<svg xmlns="http://www.w3.org/2000/svg" viewBox="0 0 195.49 302.17"><defs><style>.cls-1{fill:#2e3738;}.cls-2{fill:#fff;}.cls-3{fill:#e99280;}.cls-4{fill:#f4bf9b;}.cls-5{fill:#1b2426;}.cls-6{fill:#e7f1f7;}</style></defs><title>icon</title><g id="图层_3" data-name="图层 3"><polyline class="cls-1" points="159.6 184.47 146.36 206.66 139.02 207.21 136.67 203.71"/><polygon class="cls-1" points="57.13 193.44 68.46 200.55 68.46 206.5 59.25 206.5 57.13 193.44"/><polygon class="cls-2" points="68.46 215.54 0 240.24 0 300.81 195.49 302.17 195.49 240.24 138.21 215.54 68.46 215.54"/><path class="cls-3" d="M138.21,247.72c-7-.41-17.3,0-25.82,5.45-7.15,4.56-10.4,11-12.67,10.21-3.39-1.12,3.73-15.48-2.37-20.42-3.09-2.51-10.37-3.25-28.89,4.76V192.53h69.75Z"/><path class="cls-4" d="M176.4,135.38a71.17,71.17,0,0,1-1.1,14.49A64.18,64.18,0,0,1,172,161c-.12.64-.27,1.36-.46,2.15a61.59,61.59,0,0,1-2.57,8.06c-3.52,8.61-16.28,21.09-16.28,21.09a62.4,62.4,0,0,1-22,18,54.41,54.41,0,0,1-23,6c-11.21.31-19.35-3.17-26-6a81,81,0,0,1-44.8-47.4,93.64,93.64,0,0,1-5.14-27.47C30.76,99,54.87,51.39,78,51.54c8.41.06,9.38,6.39,26.1,10.91,17.16,4.63,20.8-.78,32.14,2.61C166.78,74.2,176,124.22,176.4,135.38Z"/><path class="cls-3" d="M36.68,150.26V122.1c-1.88-.54-6.8-1.7-11,.49-7.2,3.75-8.66,15.44-2.78,22.1C27.57,150,35.2,150.23,36.68,150.26Z"/><path class="cls-4" d="M42.68,158.69v-5.43a20.91,20.91,0,0,1-10-3.25c-9.25-6.28-10.23-21-3.92-24.42,4.42-2.41,11.74,1.07,13.92,2.13.26-3,.51-6.11.77-9.16a17.28,17.28,0,0,0-6.67-7.31c-.61-.36-7-4-12-2-8.26,3.37-8.39,20.55-6,31,1.17,5.12,3.19,14,11,19,7,4.5,16.49,4.57,17,3C47.05,161.4,44.73,159.87,42.68,158.69Z"/><path class="cls-3" d="M171.8,153.69V125c1.8-.55,6.51-1.73,10.54.5,6.89,3.82,8.29,15.72,2.66,22.5C180.53,153.41,173.21,153.67,171.8,153.69Z"/><path class="cls-4" d="M178.31,161.25a21.28,21.28,0,0,1-11.63,2l3-9.56a17.43,17.43,0,0,0,9.05-3.3c8.39-6.4,9.28-21.36,3.56-24.87-4-2.46-10.63,1.08-12.61,2.17l-.69-9.34c5.14-7.41,12.21-11.14,17.32-9.1,8.57,3.42,7.34,21.3,7.16,24C193.37,135.37,191.79,154.61,178.31,161.25Z"/><ellipse class="cls-5" cx="72.86" cy="131.91" rx="4.41" ry="3.79"/><ellipse class="cls-5" cx="130.14" cy="131.28" rx="4.41" ry="3.79"/><path class="cls-5" d="M57.09,115.19c.56,1.27,8.26-2.26,14.93,1,2.46,1.19,3.63,2.74,7.67,4,1.27.41,4.56,1.46,5.6.39.72-.75.06-2.18-.13-2.61-2.27-4.94-13.41-9.34-22.2-6.66C59.59,112.37,56.74,114.39,57.09,115.19Z"/><path class="cls-5" d="M150.74,114.84c-.6,1.41-9-2.44-16.32,1.18-2.67,1.33-3.93,3-8.35,4.51-1.38.45-5,1.63-6.11.46-.8-.82-.09-2.4.12-2.87,2.44-5.46,14.58-10.38,24.21-7.49C148,111.75,151.12,114,150.74,114.84Z"/><rect class="cls-3" x="96.97" y="131.28" width="16.81" height="26.52" rx="8.08" ry="8.08"/><path class="cls-3" d="M121.1,173c-.67.92-6,7.89-15.42,8.3-10.49.46-16.67-7.63-17.17-8.3a2.5,2.5,0,0,1-1.72-.71,2.43,2.43,0,0,1-.71-1.72v-.19a2.43,2.43,0,0,1,2.43-2.43H121.1a2.43,2.43,0,0,1,2.43,2.43v.19A2.43,2.43,0,0,1,121.1,173Z"/><path class="cls-6" d="M113.18,275.63a31.08,31.08,0,0,0-.79-22.46A33.49,33.49,0,0,0,105.26,243a17.15,17.15,0,0,1,5.54.68c4.07,1.21,4.67,3.19,6.33,3.4,6.47.84,12.57-26.73,23-27.22,2.29-.11,4.16,1.29,7.91,4.08a30.06,30.06,0,0,1,10.29,13.61Z"/><path class="cls-2" d="M138.5,215.73,105.26,243a25.09,25.09,0,0,1,7.92,5.44,21.42,21.42,0,0,1,5.76,17l35.39-36.07Z"/><path class="cls-6" d="M57,223.22a7.7,7.7,0,0,1,4.51-1.29,7.49,7.49,0,0,1,6.57,4.69,1,1,0,0,1,.31-.31c1.59-1,5.53,3.28,12.36,7.12,4.94,2.78,10.16,4.65,15.83,8.85a4.4,4.4,0,0,1,.79.68c2.65,3.13-3.2,8.67-6.33,17a39.83,39.83,0,0,0-2.38,10.21c-3.26-.56-16.89-3.22-26.12-14.29C50.47,241.43,56.3,225,57,223.22Z"/><path class="cls-2" d="M68.06,215.73l29.29,26.93a22.05,22.05,0,0,0-7.12,3.7c-7.51,5.95-7.22,14.69-7.13,16.34-4-1.25-15.37-5.27-23.74-15.66a38.41,38.41,0,0,1-8.71-23.14Z"/><path class="cls-1" d="M33.21,116.63a56.14,56.14,0,0,1,6.47-10.38c5.33-6.75,7.8-6.64,11-12,3.93-6.58,2-9.82,6-14,3.27-3.44,7.48-4.31,11-5,22.6-4.39,33.89-6.59,46-6,14.1.69,21.24,1.13,26,6,5.15,5.27,2.55,9.36,9,17,6,7.09,11,6.78,16,14a30.24,30.24,0,0,1,5,13l17-4c.55-6.8,2.58-41-22-67-28-29.63-76.24-33.29-107-13-23,15.16-30.38,39.85-31,42a75.22,75.22,0,0,0-.59,38.24Z"/><rect class="cls-3" x="80.05" y="146.13" width="2.19" height="34" transform="translate(111.74 -16.48) rotate(36.11)"/><rect class="cls-3" x="130.05" y="145.13" width="2.19" height="34" transform="translate(-66.63 96.02) rotate(-32.55)"/></g></svg>