<svg xmlns="http://www.w3.org/2000/svg" viewBox="0 0 196.49 307.1"><defs><style>.cls-1{fill:#f4bf9b;}.cls-2{fill:#e99280;}.cls-3{fill:#333;}.cls-4{fill:#011c29;}.cls-5{fill:#fff;}.cls-6{fill:#f9d2b9;}.cls-7{fill:none;stroke:#e5e1df;stroke-miterlimit:10;}.cls-8{fill:#e5e1df;}</style></defs><title>icon</title><g id="图层_3" data-name="图层 3"><path class="cls-1" d="M153.12,110.57a16.71,16.71,0,0,0-2.17.4,17.75,17.75,0,0,0-2.07.64q3.45,4.62,6.92,9.22a15.33,15.33,0,0,1,4.73-1.15c1.62-.13,2.62-.21,3.45.3,2.59,1.58,1.92,7.84,1.84,8.59-1,9.23-10.28,15-13,16.55l.46,3.88a17.65,17.65,0,0,0,4.36,0c8.69-1,15.21-11.59,16.41-21.41.72-6,0-16.12-4.85-18.62C165.1,106.87,157.76,110,153.12,110.57Z"/><path class="cls-2" d="M149.33,115.48l3.47,29.64a17.08,17.08,0,0,0,12.06-7.25A21.23,21.23,0,0,0,168,126.81c.13-2.8.27-5.6-1-7.85C164.64,114.57,157.41,113.17,149.33,115.48Z"/><path class="cls-3" d="M66.61,207.4,0,241.07v66H196.49v-64L131,207.4Z"/><rect class="cls-2" x="64.1" y="181.68" width="66.89" height="57.14"/><path class="cls-1" d="M41.63,112.65a18,18,0,0,1,2.2.43,20.56,20.56,0,0,1,2.1.67l-7.11,8.38A16.74,16.74,0,0,0,34,120.91c-1.64-.17-2.66-.27-3.51.18-2.64,1.39-2,7.24-1.94,7.95.93,8.62,10.34,14.26,13.11,15.8l-.49,3.61a20.08,20.08,0,0,1-4.44-.12c-8.83-1.2-15.38-11.26-16.52-20.44-.69-5.58.15-15,5.08-17.2C29.47,108.84,36.91,112,41.63,112.65Z"/><path class="cls-2" d="M45.44,117.34l-3.77,27.5c-1.41-.19-8.11-1.28-12.21-7.11a18.92,18.92,0,0,1-3.12-10.4c-.11-2.61-.23-5.23,1-7.28C29.88,116,37.24,114.94,45.44,117.34Z"/><path class="cls-1" d="M157.47,129.42a97.63,97.63,0,0,1-1.39,17.42,95,95,0,0,1-4.1,15.62c-.25.72-.81,2.28-1.47,3.89A62.8,62.8,0,0,1,138,185.17a53.79,53.79,0,0,1-21.6,12.54,61.64,61.64,0,0,1-33.44,1.39,54,54,0,0,1-24.39-12.54C48.62,177.43,45,166.9,41.81,155.9a123.69,123.69,0,0,1-4.88-28.57C36,109.71,35,90.16,47.38,74.38,63.17,54.22,90.25,53.63,97.2,53.47c7.45-.16,34-.74,49.12,17.42C157.26,84,157.34,101.1,157.47,129.42Z"/><ellipse class="cls-4" cx="73.15" cy="125.17" rx="4.53" ry="4.45"/><path class="cls-4" d="M85.62,116.93l-11.69-2.3c-5.31-1.06-7.28-1.46-10-1a17.42,17.42,0,0,0-7.84,3.57,23.67,23.67,0,0,1,2.84-4.57c1.7-2.17,3.8-4.84,7-6,1.77-.65,6,.57,14.49,3,2.31.67,4.32,1.28,5.2,3.12A5.58,5.58,0,0,1,85.62,116.93Z"/><rect class="cls-2" x="92.28" y="127.01" width="11.44" height="21.6" rx="3.81" ry="3.81"/><ellipse class="cls-4" cx="120.91" cy="125" rx="4.53" ry="4.63"/><path class="cls-5" d="M64.1,236.73l66.9,3.32q-3,33.87-5.92,67.75H70Q67.06,272.27,64.1,236.73Z"/><polyline points="61.7 214.16 31.38 247.1 46.36 257.8 27.69 278.88 31.69 305.71 27.69 305.71 23.69 276.32 41.7 260.99 28.36 245.66 61.7 210.52"/><polyline points="132.42 214.21 161.85 247.64 147.31 258.49 165.43 279.88 161.55 307.1 165.43 307.1 169.32 277.29 151.84 261.73 164.79 246.17 132.42 210.52"/><path class="cls-6" d="M71.07,215.13a45.76,45.76,0,0,0,25.78,6.27c16.84-1,27.41-11.31,30-13.94l-6.27,31.36-39.71,3Z"/><path class="cls-5" d="M64,201.15a62.92,62.92,0,0,0-9.57,63.45,51.22,51.22,0,0,1,40.82-23.26q-6-7.91-12.11-15.88Q73.53,213,64,201.15Z"/><path class="cls-5" d="M131.22,199.85c-6,9.41-12.82,19.22-20.5,29.2q-5.31,6.87-10.54,13.1,6,3.66,12.17,7.29,12.84,7.51,25.27,14.12a74.12,74.12,0,0,0-6.4-63.71Z"/><path class="cls-4" d="M108.42,116.93l10.89-2.3c4.94-1.06,6.78-1.46,9.31-1a15.8,15.8,0,0,1,7.31,3.57,24.8,24.8,0,0,0-2.65-4.57c-1.59-2.17-3.54-4.84-6.52-6-1.65-.65-5.62.57-13.5,3-2.15.67-4,1.28-4.84,3.12A5.94,5.94,0,0,0,108.42,116.93Z"/><path class="cls-4" d="M31.5,111.83l13.43,8.8a181.62,181.62,0,0,0,0-20c-.36-6.35-.94-10.25,1-15a22.17,22.17,0,0,1,7-9,84.24,84.24,0,0,1,8-3c6-1.93,14.8-4,32-4,20.86,0,33.3.13,39,8,.94,1.3.84,1.62,3,5a90.92,90.92,0,0,0,12,15q3.07,9.78,6.14,19.57l6.81-8.1a61.23,61.23,0,0,0-23.95-53.47,9.7,9.7,0,0,0-6-2c-2.21.1-3.13,1.09-5,1-3.11-.15-5.26-3.12-6-4-5.27-6.3-21.28-5.43-29-5a83.09,83.09,0,0,0-33,9,64.38,64.38,0,0,0-25.43,57.2Z"/><rect class="cls-2" x="83.93" y="157.63" width="32" height="6"/><rect class="cls-7" x="48.43" y="113.13" width="47" height="25"/><rect class="cls-7" x="103.43" y="113.13" width="47" height="25"/><rect class="cls-8" x="95.43" y="121.13" width="8" height="2"/></g></svg>