<svg xmlns="http://www.w3.org/2000/svg" viewBox="0 0 199.94 273.39"><defs><style>.cls-1{fill:#404050;}.cls-2{fill:#e99280;}.cls-3{fill:#dddde1;}.cls-4{fill:#f9d2b9;}.cls-5{fill:#fff;}.cls-6{fill:#f4bf9b;}.cls-7{fill:#5b5b5b;}.cls-8{fill:#eca68c;}.cls-9{fill:#011c29;}</style></defs><title>icon</title><g id="图层_3" data-name="图层 3"><path class="cls-1" d="M67.78,168.9,0,204.18v69.21H199.94V206.32L133.3,168.9Z"/><rect class="cls-2" x="65.23" y="151.25" width="68.07" height="55.64"/><path class="cls-3" d="M65.23,204.86l68.07,3.23q-3,33-6,66h-56Z"/><polyline points="64.52 174.79 32.28 209.78 48.21 221.14 28.36 243.53 32.62 272.03 28.36 272.03 24.11 240.82 43.25 224.54 29.07 208.25 64.52 170.93"/><polyline points="134 176.15 164.55 211.14 149.45 222.5 168.26 244.89 164.23 273.39 168.26 273.39 172.29 242.18 154.16 225.89 167.59 209.61 134 172.29"/><path class="cls-4" d="M72.32,183.82A47.42,47.42,0,0,0,129,176.36l-6.38,30.53L82.25,209.8Z"/><path class="cls-5" d="M65.3,172.19a75.6,75.6,0,0,0-.58,39.61,73.59,73.59,0,0,0,6.56,16.49,35.5,35.5,0,0,1,13.26-15.23,36.88,36.88,0,0,1,11.89-4.82q-5.93-7.1-12.06-14.25Q74.82,182.83,65.3,172.19Z"/><path class="cls-5" d="M133.35,170.94c-6,8.31-12.86,17-20.62,25.77q-5.34,6.06-10.63,11.53A53.28,53.28,0,0,1,114.86,215a51.34,51.34,0,0,1,12,12.21,85.8,85.8,0,0,0,7.8-25.78A85.2,85.2,0,0,0,133.35,170.94Z"/><path class="cls-6" d="M151.8,83.75l-.3,0c-.37.06-1,.16-1.79.36a18.44,18.44,0,0,0-2,.63l6.65,9.09a14.66,14.66,0,0,1,4.55-1.13c1.55-.13,2.52-.21,3.32.29,2.48,1.56,1.84,7.73,1.76,8.47-.94,9.1-9.88,14.77-12.51,16.31l.44,3.83a17.26,17.26,0,0,0,4.19,0c8.44-1,15.14-11.44,15.77-21.11s-4.69-19.61-9-19.75C160.45,80.71,153.14,83.58,151.8,83.75Z"/><path class="cls-2" d="M148.15,88.59l3.34,29.21a16.3,16.3,0,0,0,11.59-7.14,21.41,21.41,0,0,0,3-10.91c.13-2.76.26-5.52-.93-7.73C162.87,87.69,155.92,86.31,148.15,88.59Z"/><path class="cls-6" d="M44.62,85.79l.3,0a17.8,17.8,0,0,1,1.83.38c.68.19,1.36.41,2,.66l-6.83,8.26a16,16,0,0,0-4.63-1.2c-1.57-.17-2.55-.27-3.37.17-2.54,1.38-1.93,7.15-1.86,7.84C33,110.45,42,116,44.67,117.53l-.48,3.55a12.5,12.5,0,0,1-4.27-.11c-8.67-1.77-14.42-13.11-15-22.76-.44-7.58,2.18-16.76,6-17.42C34.34,80.2,43.17,85.59,44.62,85.79Z"/><path class="cls-2" d="M48.29,90.42l-3.62,27.11c-1.36-.19-7.8-1.26-11.74-7a19,19,0,0,1-3-10.26c-.11-2.57-.22-5.15,1-7.17C33.33,89.12,40.4,88.05,48.29,90.42Z"/><path class="cls-4" d="M156,102.33a97.73,97.73,0,0,1-1.34,17.17,96.25,96.25,0,0,1-3.94,15.4c-.39,1.12-.83,2.4-1.42,3.83a52.22,52.22,0,0,1-10.39,15.87c-6.3,6.55-12.68,9.44-19,12.3-7.26,3.29-13,5.88-21,6.15-9.56.31-16.69-2.88-24-6.15s-12.74-5.71-18-11.28c-6.66-7.05-8.73-14.69-12.12-27.19a126.94,126.94,0,0,1-4.69-28.16c-.87-17.38-1.84-36.64,10-52.2C65.34,28.2,91.36,27.61,98,27.47c7.16-.17,32.68-.74,47.22,17.17C155.78,57.58,155.85,74.41,156,102.33Z"/><path class="cls-7" d="M149.26,89.52l8.81-4.14A78.2,78.2,0,0,0,159.31,58c-.91-6.75-3.12-22.49-14.42-34.58C129.37,6.78,106.45,7.57,93.91,8s-31.25,1.08-45,15.38c-12.3,12.79-14.19,29.72-15,36.9a76.87,76.87,0,0,0,2,27.68l9.32,3.63a37.59,37.59,0,0,1,3.68-19c2.32-4.6,3.93-5.08,7-10.26,6.8-11.46,3.73-17.23,8-20.5,6.94-5.32,16.22-14.25,33.61-14.76S124,34.82,131.9,39.78c4,2.48,1.93,6.22,9,17.43,4.71,7.48,7.15,8.25,9,13.33C152.21,76.9,151.27,83.59,149.26,89.52Z"/><rect class="cls-8" x="92.35" y="98.93" width="11" height="21.29" rx="3.81" ry="3.81"/><ellipse class="cls-9" cx="70.66" cy="97.19" rx="5" ry="5.13"/><ellipse class="cls-9" cx="125.34" cy="97.19" rx="5" ry="5.13"/><path class="cls-7" d="M82.16,88.07A22.22,22.22,0,0,0,63.82,84a10.81,10.81,0,0,0-6.32,4.1C55.74,87.56,55.17,87,55,86.58c-.91-1.79,3.29-4.26,7-5.22,9.33-2.46,23.32,2.7,22.76,5.22C84.53,87.27,83.26,87.76,82.16,88.07Z"/><path class="cls-7" d="M137.51,88.07A22.2,22.2,0,0,0,119.18,84a10.85,10.85,0,0,0-6.33,4.1c-1.75-.51-2.32-1.09-2.53-1.49-.9-1.79,3.3-4.26,7-5.22,9.33-2.46,23.33,2.7,22.76,5.22C139.89,87.27,138.62,87.76,137.51,88.07Z"/><path class="cls-8" d="M76.91,141.88l-1.75-1.11a39.9,39.9,0,0,1,4.54-14.35A36.09,36.09,0,0,1,88.12,116l1.75,1.11a37.62,37.62,0,0,0-8.29,10.32A41.37,41.37,0,0,0,76.91,141.88Z"/><path class="cls-8" d="M116.89,142.67l1.9-1.09A38.54,38.54,0,0,0,114.92,127a35,35,0,0,0-8.14-10.71l-1.89,1.09a36.24,36.24,0,0,1,8,10.63A39.37,39.37,0,0,1,116.89,142.67Z"/><path class="cls-2" d="M109.12,141.88c-.74.88-5.2,6.07-12.49,6.19-7.59.12-12.28-5.34-13-6.19v-3.12c4.15.2,8.49.31,13,.31,4.32,0,8.48-.12,12.49-.31Z"/></g></svg>