<svg xmlns="http://www.w3.org/2000/svg" viewBox="0 0 188.64 261"><defs><style>.cls-1{fill:#ededed;}.cls-2{fill:#eca68c;}.cls-3{fill:#c6ccce;}.cls-4{fill:#f9d2b9;}.cls-5{fill:#e99280;}.cls-6{fill:#f4bf9b;}.cls-7{fill:#1b2426;}.cls-8{fill:#434349;}.cls-9{fill:#efae8f;}.cls-10{fill:#d19780;}.cls-11{fill:#011c29;}.cls-12{fill:none;stroke:#921600;stroke-miterlimit:10;stroke-width:2px;}.cls-13{fill:#921600;}</style></defs><title>icon</title><g id="图层_3" data-name="图层 3"><polygon class="cls-1" points="63.41 196.29 -5.04 217.02 -5.04 267.86 190.44 269 190.44 217.02 133.17 196.29 63.41 196.29"/><path class="cls-2" d="M133.17,214.47c-7-.41-17.3,0-25.83,5.45-7.15,4.56-10.4,11-12.66,10.21-3.39-1.12,3.72-15.48-2.38-20.42-3.09-2.51-10.37-3.25-28.89,4.76v-55.2h69.76Z"/><path class="cls-3" d="M108.13,245.38a31,31,0,0,0-.79-22.46,33.48,33.48,0,0,0-7.12-10.21,17.18,17.18,0,0,1,5.54.68c4.07,1.21,4.66,3.19,6.33,3.4,6.46.84,12.57-26.73,22.95-27.22,2.3-.11,4.17,1.29,7.92,4.08a30.16,30.16,0,0,1,10.29,13.61Z"/><path class="cls-4" d="M66.12,190a51,51,0,0,0,32.43,8.05c20.19-2,31.88-15.7,34.13-18.45V215l-31.9-1-5.35-.17-29.31-.92Z"/><path class="cls-1" d="M133.46,185.48l-33.24,27.23a25.06,25.06,0,0,1,7.91,5.44,21.4,21.4,0,0,1,5.77,17l35.39-36.07Z"/><path class="cls-3" d="M51.94,193a7.65,7.65,0,0,1,4.51-1.29A7.49,7.49,0,0,1,63,196.37a.9.9,0,0,1,.31-.31c1.59-1,5.53,3.28,12.35,7.12,4.95,2.78,10.16,4.64,15.83,8.85a3.77,3.77,0,0,1,.79.68c2.65,3.13-3.19,8.67-6.33,17a40.16,40.16,0,0,0-2.37,10.21c-3.27-.56-16.9-3.22-26.12-14.29C45.43,211.17,51.26,194.78,51.94,193Z"/><path class="cls-1" d="M63,185.48,92.3,212.41a22.26,22.26,0,0,0-7.12,3.7c-7.5,5.95-7.21,14.69-7.12,16.33-4-1.25-15.37-5.26-23.75-15.65a38.31,38.31,0,0,1-8.7-23.14Z"/><path class="cls-5" d="M39.76,123.45,33.5,94.15c-1.61-.25-5.75-.63-8.57,2.35C20.09,101.6,21.54,114,27.65,120A13.78,13.78,0,0,0,39.76,123.45Z"/><path class="cls-6" d="M40.64,132l-2.07-8.92a16.49,16.49,0,0,1-8.58-3.2c-7-5.31-6.44-14.43-6.35-15.88.18-2.9.39-6.42,3-8.23,2.88-2,7.72-1.23,12,2.11,0-1.63,0-3.25.07-4.88-3.89-7.94-9.79-12.14-14-11-3.63,1-5.24,5.74-6,8s-2.27,7.78,3,24c3.72,11.46,5.79,17.43,11,19C34,133.39,36.61,133.84,40.64,132Z"/><path class="cls-5" d="M154.23,122.74V94.44c5.5-3.64,8.72-2.75,9.71-2.38,6.74,2.47,9.67,17.2,2.95,25.09C162.67,122.1,156.1,122.65,154.23,122.74Z"/><path class="cls-6" d="M151.64,133l.6-10.26a10.56,10.56,0,0,0,3.95-.78c5.77-2.41,7.45-9.65,8.45-14,1.35-5.81,2.52-10.83-.3-13.07-2.56-2-7.56-1.09-12.1,2.14l-.6-6.07c2.06-3.08,6.26-8.35,11-8,7.41.55,13.38,14.68,11,25-.46,2-.49.61-6,12-3.52,7.27-4.68,10.25-8,12A12.68,12.68,0,0,1,151.64,133Z"/><path class="cls-6" d="M157.66,104.67c-3.41,27.92-9.94,41.33-12,45.33a55.25,55.25,0,0,1-10,14,51.52,51.52,0,0,1-14.4,10.25c-16.33,7.57-32.78,3.49-40.24,1.62-2.45-.61-4.35-1.22-5.57-1.62A70,70,0,0,1,56.8,165c-5.81-4.35-8.59-11.91-14.16-27a191.25,191.25,0,0,1-9.09-33.33,156.89,156.89,0,0,1-2.31-21.81c-.6-12.11.79-22.52,6.93-33A59.48,59.48,0,0,1,51.36,34.44c4.46-3.84,19.31-16.26,41.93-16.9,19.9-.56,33.93,8.33,38.82,11.53A61.52,61.52,0,0,1,152.3,49.81c.46.81.95,1.69,1.42,2.73C160.17,66.7,159.74,87.62,157.66,104.67Z"/><ellipse class="cls-7" cx="69.1" cy="98.59" rx="4.54" ry="3.46"/><ellipse class="cls-7" cx="122.16" cy="97.82" rx="4.52" ry="3.46"/><path class="cls-8" d="M53.64,90c.78,1,4.48-1.81,12-3,3.48-.55,5.22-.35,6.43,0,.35.11,1.51.51,3.19.94.6.15,1.25.3,2,.45,2.77.56,4.82.72,5.5-.28s-.31-2.72-.42-2.9c-1.76-3.08-6.19-3.63-11.69-4.25-4.55-.51-6.82-.76-9,0C56.07,83,52.73,88.88,53.64,90Z"/><path class="cls-9" d="M82.64,119.77A26.21,26.21,0,0,0,77.85,124c-.63.69-1.21,1.39-1.74,2.09a58.39,58.39,0,0,0-.43,9c.06,2.08.23,3.94.43,5.57-.08.67.15,1.27.44,1.39s.79-.34.84-1.18a49.54,49.54,0,0,1-.41-5.09,51.63,51.63,0,0,1,.44-8.35,11,11,0,0,1,.87-2.09,6.36,6.36,0,0,1,4.35-3.48Z"/><path class="cls-9" d="M113.64,120.77a27,27,0,0,1,5,4.18c.65.69,1.25,1.39,1.8,2.09a56.26,56.26,0,0,1,0,14.62c.08.67-.16,1.27-.45,1.39s-.83-.34-.87-1.18a49.32,49.32,0,0,0,.42-5.09,50.37,50.37,0,0,0-.45-8.35,11.17,11.17,0,0,0-.9-2.09,6.61,6.61,0,0,0-4.51-3.48Z"/><path class="cls-8" d="M137.7,88.23c-.61.87-3.83-1.41-10.16-2.14-2.93-.34-4.37-.1-5.37.29-.29.12-1.24.51-2.63,1-.49.16-1,.32-1.64.48-2.29.6-4,.83-4.61,0s.15-2.39.23-2.56c1.34-2.76,5-3.43,9.59-4.19,3.78-.63,5.67-.94,7.52-.36C135.37,82.16,138.41,87.21,137.7,88.23Z"/><ellipse class="cls-10" cx="92.39" cy="122.48" rx="2.03" ry="1.94" transform="translate(-21.7 19.91) rotate(-11.02)"/><ellipse class="cls-10" cx="100.15" cy="122.48" rx="1.95" ry="2.02" transform="translate(-57.75 132.54) rotate(-54.37)"/><path class="cls-11" d="M35.21,82.9c-4.18,1.14-6.74.66-8.32,0C15.27,78,16.5,46.07,36.25,24.88A65.25,65.25,0,0,1,52.89,12.09C84-4.49,125.66,5,133,13.79a20.66,20.66,0,0,0,7.28,6c4.22,2.07,7.24,1.81,10.4,2.56,9.2,2.2,13.63,11.57,16.64,17.92,3.74,7.89,3.94,14.46,4.16,21.33a78,78,0,0,1-2.08,20.48L159,83.75a41.59,41.59,0,0,0-9.36-17.06c-2.74-3-5-4.54-7.28-8.53-3.56-6.21-2.17-8.65-4.16-11.09-5.5-6.77-28.39-1.19-60.31,6.82-21,5.28-30,8.63-36.4,16.21A28.72,28.72,0,0,0,35.21,82.9Z"/><path class="cls-12" d="M86.15,114.59a94.62,94.62,0,0,1-40.58,0,2.63,2.63,0,0,1-1.81-.75A2.56,2.56,0,0,1,43,112V91.43a2.57,2.57,0,0,1,2.57-2.57H86.15a2.57,2.57,0,0,1,2.57,2.57V112A2.57,2.57,0,0,1,86.15,114.59Z"/><path class="cls-12" d="M149.15,113.59a94.62,94.62,0,0,1-40.58,0,2.63,2.63,0,0,1-1.81-.75A2.56,2.56,0,0,1,106,111V90.43a2.57,2.57,0,0,1,2.57-2.57h40.58a2.57,2.57,0,0,1,2.57,2.57V111A2.57,2.57,0,0,1,149.15,113.59Z"/><path class="cls-13" d="M106.64,94.29a14.12,14.12,0,0,0-9.33-3.14,13.8,13.8,0,0,0-8.67,3.14V92.1a14.27,14.27,0,0,1,8.67-3,14.55,14.55,0,0,1,9.33,3Z"/><path class="cls-5" d="M112,148.4a31.89,31.89,0,0,0-17.79-4,32.53,32.53,0,0,0-12.87,4v-5.09A27,27,0,0,1,93,138.22c8.85-1.37,15.76,2.81,18.92,5.09Z"/></g></svg>