<svg xmlns="http://www.w3.org/2000/svg" viewBox="0 0 196.49 293.46"><defs><style>.cls-1{fill:#f4bf9b;}.cls-2{fill:#e99280;}.cls-3{fill:#666;}.cls-4{fill:#011c29;}.cls-5{fill:none;stroke:#0e1600;stroke-width:0.75px;}.cls-10,.cls-5{stroke-miterlimit:10;}.cls-6{fill:#eca68c;}.cls-7{fill:#0e1600;}.cls-8{fill:#fff;}.cls-9{fill:#333;}.cls-10,.cls-11{fill:#5cd5ff;}.cls-10{stroke:#5ca1ff;stroke-width:3px;}</style></defs><title>icon</title><g id="图层_3" data-name="图层 3"><path class="cls-1" d="M153.12,96.93a16.71,16.71,0,0,0-2.17.4,17.75,17.75,0,0,0-2.07.64l6.92,9.22a15.33,15.33,0,0,1,4.73-1.15c1.62-.13,2.62-.21,3.45.3,2.59,1.58,1.92,7.84,1.84,8.59-1,9.23-10.28,15-13,16.55l.46,3.88a18.15,18.15,0,0,0,4.36,0c8.69-1,15.21-11.6,16.41-21.41.72-6,0-16.12-4.85-18.63C165.1,93.22,157.76,96.36,153.12,96.93Z"/><path class="cls-2" d="M149.33,101.84l3.47,29.64a17.08,17.08,0,0,0,12.06-7.25A21.23,21.23,0,0,0,168,113.17c.13-2.8.27-5.61-1-7.85C164.64,100.93,157.41,99.53,149.33,101.84Z"/><path class="cls-3" d="M66.61,186.16,0,222.39v71.07H196.49V224.58L131,186.16Z"/><rect class="cls-2" x="64.1" y="168.04" width="66.89" height="57.14"/><path class="cls-1" d="M41.63,99a21.52,21.52,0,0,1,2.2.44q1.08.28,2.1.66l-7.11,8.38A17.12,17.12,0,0,0,34,107.27c-1.64-.17-2.66-.27-3.51.17-2.64,1.4-2,7.25-1.94,8,.93,8.63,10.34,14.27,13.11,15.81l-.49,3.6a20.07,20.07,0,0,1-4.44-.11c-8.83-1.21-15.38-11.26-16.52-20.44-.69-5.59.15-15,5.08-17.21C29.47,95.19,36.91,98.34,41.63,99Z"/><path class="cls-2" d="M45.44,103.69,41.67,131.2c-1.41-.2-8.11-1.28-12.21-7.12a18.87,18.87,0,0,1-3.12-10.4c-.11-2.61-.23-5.22,1-7.28C29.88,102.38,37.24,101.3,45.44,103.69Z"/><path class="cls-1" d="M157.47,115.78a97.63,97.63,0,0,1-1.39,17.42,95,95,0,0,1-4.1,15.62c-.25.71-.81,2.28-1.47,3.89A62.53,62.53,0,0,1,138,171.52a53.72,53.72,0,0,1-21.6,12.55,61.75,61.75,0,0,1-33.44,1.39,54,54,0,0,1-24.39-12.54c-9.91-9.13-13.49-19.66-16.72-30.66a123.79,123.79,0,0,1-4.88-28.57C36,96.06,35,76.52,47.38,60.74,63.17,40.58,90.25,40,97.2,39.83c7.45-.16,34-.74,49.12,17.42C157.26,70.39,157.34,87.45,157.47,115.78Z"/><path class="cls-4" d="M150.49,102.79l9.16-4.21a77.55,77.55,0,0,0,1.29-27.81c-1.2-8.64-3.44-24.95-15-35.08-9.46-8.3-23.3-8-51-7.28C69.29,29,56.24,29.54,46.1,38.81c-8.14,7.44-11,16.87-13.41,24.83a81.26,81.26,0,0,0-1.55,40.27l11.14,1c-1.08-9.77-1.51-26,8-32.79C54.77,68.85,59.81,69,62.74,69c36.79-.12,67-22.75,74.88-12.48,2,2.65,2.82,7.8,4.16,16.64a26.89,26.89,0,0,0,3.6,10.29c.29.48.52.8.61,1A34.06,34.06,0,0,1,150.49,102.79Z"/><rect class="cls-5" x="104.17" y="102.89" width="43.2" height="17.42" rx="2.34" ry="2.34"/><rect class="cls-5" x="47.03" y="102.89" width="43.2" height="17.42" rx="2.74" ry="2.74"/><ellipse class="cls-4" cx="68.99" cy="111.26" rx="4.53" ry="4.18"/><path class="cls-4" d="M84.58,98.08C79,96.66,73.7,95.35,67.94,93.93c-2.64-.66-5.45-1.31-8.32,0a10.17,10.17,0,0,0-4.57,4.43A6.06,6.06,0,0,1,54.42,95c.39-3.09,3.33-4.74,4.16-5.2,2.1-1.18,4.2-1.15,8.32-1a46.46,46.46,0,0,1,12.48,2.08c3.27,1,4.56,1.77,5.2,3.12A5.55,5.55,0,0,1,84.58,98.08Z"/><rect class="cls-6" x="91.28" y="118.57" width="11.44" height="21.6" rx="3.81" ry="3.81"/><path class="cls-2" d="M113.57,145.82q-6.63.09-13.39.1-8.75,0-17.27-.1v3.59a167.45,167.45,0,0,0,18.31.67c4.35-.07,8.47-.31,12.35-.67Z"/><ellipse class="cls-4" cx="125.07" cy="110.9" rx="4.53" ry="4.18"/><rect class="cls-7" x="90.3" y="110.56" width="14.04" height="1.56"/><path class="cls-6" d="M72.15,154.11,70.22,153A37.23,37.23,0,0,1,84.5,128.25l1.94,1.12a38.27,38.27,0,0,0-14.29,24.74Z"/><path class="cls-8" d="M64.1,223.09l66.9,3.32q-3,33.87-5.92,67.75H70Q67.06,258.63,64.1,223.09Z"/><polyline class="cls-9" points="63.41 192.21 31.72 228.14 47.38 239.81 27.87 262.8 32.05 292.07 27.87 292.07 23.69 260.01 42.5 243.29 28.57 226.57 63.41 188.25"/><polyline class="cls-9" points="131.69 193.6 161.71 229.53 146.88 241.2 165.36 264.2 161.4 293.46 165.36 293.46 169.32 261.41 151.5 244.69 164.7 227.96 131.69 189.64"/><path class="cls-1" d="M71.07,201.49a45.76,45.76,0,0,0,25.78,6.27c16.84-1,27.41-11.31,30-13.94l-6.27,31.36-39.71,3Z"/><path class="cls-10" d="M107.3,258.62H92Q86.4,241.9,80.83,225.18h37.62Q112.89,241.89,107.3,258.62Z"/><path class="cls-11" d="M118.45,292.76H80.83Q86.4,275.69,92,258.62H107.3Q112.88,275.69,118.45,292.76Z"/><path class="cls-8" d="M64.18,187.45a80.81,80.81,0,0,0-.58,40.68,77.64,77.64,0,0,0,6.45,16.93,36.06,36.06,0,0,1,13-15.63,35.14,35.14,0,0,1,11.68-5q-5.82-7.29-11.84-14.63Q73.52,198.39,64.18,187.45Z"/><path class="cls-8" d="M131.05,186.17c-5.92,8.54-12.64,17.43-20.26,26.46q-5.25,6.23-10.45,11.85A51.7,51.7,0,0,1,124.72,244a91.17,91.17,0,0,0,6.33-57.82Z"/><path class="cls-4" d="M108.59,98.69c5.91-1.72,11.51-3.31,17.61-5,2.8-.8,5.77-1.6,8.92-.5a10.61,10.61,0,0,1,5.14,4,5.53,5.53,0,0,0,.49-3.34c-.58-3-3.82-4.41-4.74-4.82-2.32-1-4.57-.86-9-.51a55,55,0,0,0-13.26,2.76c-3.45,1.17-4.79,2-5.41,3.35A4.92,4.92,0,0,0,108.59,98.69Z"/><path class="cls-6" d="M121.21,154.89l2.09-1.09a35.55,35.55,0,0,0-13.23-25.32L108,129.57a36.5,36.5,0,0,1,13.23,25.32Z"/></g></svg>