<svg xmlns="http://www.w3.org/2000/svg" viewBox="0 0 196.49 297.62"><defs><style>.cls-1{fill:#f4bf9b;}.cls-2{fill:#e99280;}.cls-3{fill:#666;}.cls-4{fill:#b3b3b3;}.cls-5{fill:none;stroke:#fff;stroke-miterlimit:10;}.cls-6{fill:#011c29;}.cls-7{fill:#eca68c;}.cls-8{fill:#fff;}.cls-9{fill:#333;}.cls-10{fill:#e6e6e6;}</style></defs><title>icon</title><g id="图层_3" data-name="图层 3"><path class="cls-1" d="M153.12,101.09a16.71,16.71,0,0,0-2.17.4,17.75,17.75,0,0,0-2.07.64q3.45,4.62,6.92,9.22a15.33,15.33,0,0,1,4.73-1.15c1.62-.13,2.62-.21,3.45.3,2.59,1.58,1.92,7.84,1.84,8.59-1,9.23-10.28,15-13,16.55l.46,3.88a17.65,17.65,0,0,0,4.36,0c8.69-1,15.21-11.59,16.41-21.41.72-6,0-16.12-4.85-18.62C165.1,97.39,157.76,100.52,153.12,101.09Z"/><path class="cls-2" d="M149.33,106l3.47,29.64a17.08,17.08,0,0,0,12.06-7.25A21.23,21.23,0,0,0,168,117.33c.13-2.8.27-5.6-1-7.85C164.64,105.09,157.41,103.69,149.33,106Z"/><path class="cls-3" d="M66.61,190.32,0,226.55v71.07H196.49V228.75L131,190.32Z"/><rect class="cls-2" x="64.1" y="172.2" width="66.89" height="57.14"/><path class="cls-1" d="M41.63,103.17a18,18,0,0,1,2.2.43,20.56,20.56,0,0,1,2.1.67l-7.11,8.38A16.74,16.74,0,0,0,34,111.43c-1.64-.17-2.66-.27-3.51.18-2.64,1.39-2,7.24-1.94,8,.93,8.62,10.34,14.26,13.11,15.8L41.18,139a20.08,20.08,0,0,1-4.44-.12c-8.83-1.2-15.38-11.26-16.52-20.44-.69-5.58.15-15,5.08-17.2C29.47,99.36,36.91,102.5,41.63,103.17Z"/><path class="cls-2" d="M45.44,107.86l-3.77,27.5c-1.41-.19-8.11-1.28-12.21-7.11a18.92,18.92,0,0,1-3.12-10.4c-.11-2.61-.23-5.23,1-7.28C29.88,106.55,37.24,105.46,45.44,107.86Z"/><path class="cls-1" d="M157.47,119.94a97.63,97.63,0,0,1-1.39,17.42A95,95,0,0,1,152,153c-.25.72-.81,2.28-1.47,3.89A62.8,62.8,0,0,1,138,175.69a53.79,53.79,0,0,1-21.6,12.54,61.64,61.64,0,0,1-33.44,1.39,54,54,0,0,1-24.39-12.54C48.62,168,45,157.42,41.81,146.42a123.69,123.69,0,0,1-4.88-28.57C36,100.23,35,80.68,47.38,64.9,63.17,44.74,90.25,44.15,97.2,44c7.45-.16,34-.74,49.12,17.42C157.26,74.55,157.34,91.62,157.47,119.94Z"/><path class="cls-4" d="M150.49,107l9.16-4.2a77.63,77.63,0,0,0,1.29-27.82c-.95-6.88-3.24-22.77-15-35.08-17-17.76-42.46-16.23-53-15.6-9.05.54-31.14,1.87-46.8,18.72-8.36,9-11.58,18.8-13.41,24.84a81.26,81.26,0,0,0-1.55,40.27l11.14,1c-1.08-9.78-1.51-26,8-32.8,4.51-3.24,9.55-3.11,12.48-3.12,36.79-.12,67-22.74,74.88-12.48,2,2.65,2.82,7.8,4.16,16.64a26.84,26.84,0,0,0,3.6,10.29c.29.48.52.8.61,1A34.06,34.06,0,0,1,150.49,107Z"/><rect class="cls-5" x="104.17" y="107.05" width="43.2" height="17.42" rx="2.34" ry="2.34"/><rect class="cls-5" x="47.03" y="107.05" width="43.2" height="17.42" rx="2.74" ry="2.74"/><ellipse class="cls-6" cx="68.99" cy="115.42" rx="4.53" ry="4.18"/><path class="cls-4" d="M84.58,102.25C79,100.82,73.7,99.51,67.94,98.09c-2.64-.66-5.45-1.31-8.32,0a10.22,10.22,0,0,0-4.57,4.43,6.06,6.06,0,0,1-.63-3.39c.39-3.08,3.33-4.73,4.16-5.2,2.1-1.18,4.2-1.15,8.32-1A46.89,46.89,0,0,1,79.38,95c3.27,1,4.56,1.77,5.2,3.12A5.58,5.58,0,0,1,84.58,102.25Z"/><rect class="cls-7" x="91.28" y="122.73" width="11.44" height="21.6" rx="3.81" ry="3.81"/><path class="cls-2" d="M113.57,150q-6.63.09-13.39.11-8.75,0-17.27-.11v3.6a172.61,172.61,0,0,0,18.31.67c4.35-.08,8.47-.32,12.35-.67Z"/><ellipse class="cls-6" cx="125.07" cy="115.07" rx="4.53" ry="4.18"/><rect class="cls-8" x="90.3" y="114.72" width="14.04" height="1.56"/><path class="cls-7" d="M72.15,158.27l-1.93-1.12A37.29,37.29,0,0,1,84.5,132.41l1.94,1.12a38.34,38.34,0,0,0-14.29,24.74Z"/><path class="cls-8" d="M64.1,227.25l66.9,3.32q-3,33.87-5.92,67.75H70Q67.06,262.78,64.1,227.25Z"/><polyline class="cls-9" points="63.41 196.37 31.72 232.3 47.38 243.97 27.87 266.96 32.05 296.23 27.87 296.23 23.69 264.18 42.5 247.46 28.57 230.73 63.41 192.41"/><polyline class="cls-9" points="131.69 197.76 161.71 233.7 146.88 245.37 165.36 268.36 161.4 297.62 165.36 297.62 169.32 265.57 151.5 248.85 164.7 232.13 131.69 193.8"/><path class="cls-1" d="M71.07,205.65a45.76,45.76,0,0,0,25.78,6.27c16.84-1,27.41-11.31,30-13.94l-6.27,31.36-39.71,3Z"/><path class="cls-10" d="M107.3,262.78H92q-5.58-16.71-11.15-33.44h37.62Q112.89,246.07,107.3,262.78Z"/><path class="cls-10" d="M118.45,296.93H80.83Q86.4,279.86,92,262.78H107.3Q112.88,279.87,118.45,296.93Z"/><path class="cls-8" d="M64.18,191.62a80.79,80.79,0,0,0-.58,40.68,77.84,77.84,0,0,0,6.45,16.93,36.06,36.06,0,0,1,13-15.63,35.19,35.19,0,0,1,11.68-5Q88.94,221.37,82.92,214,73.52,202.55,64.18,191.62Z"/><path class="cls-8" d="M131.05,190.34c-5.92,8.54-12.64,17.42-20.26,26.46q-5.25,6.22-10.45,11.84a51.7,51.7,0,0,1,24.38,19.51,91.15,91.15,0,0,0,6.33-57.81Z"/><path class="cls-4" d="M108.59,102.86c5.91-1.72,11.51-3.31,17.61-5,2.8-.79,5.77-1.59,8.92-.49a10.55,10.55,0,0,1,5.14,4,5.53,5.53,0,0,0,.49-3.34c-.58-3-3.82-4.41-4.74-4.81-2.32-1-4.57-.87-9-.52a55.52,55.52,0,0,0-13.26,2.76c-3.45,1.17-4.79,2-5.41,3.35A5,5,0,0,0,108.59,102.86Z"/><path class="cls-7" d="M121.21,159.06,123.3,158a35.5,35.5,0,0,0-13.23-25.32L108,133.74a36.44,36.44,0,0,1,13.23,25.32Z"/></g></svg>