<svg xmlns="http://www.w3.org/2000/svg" viewBox="0 0 195 276.61"><defs><style>.cls-1{fill:#cbaf86;}.cls-2{fill:#f4bf9b;}.cls-3{fill:#76562c;}.cls-4{fill:#dbd19e;}.cls-5{fill:#e99280;}.cls-6{fill:#1b2426;}.cls-7{fill:#68686d;}.cls-8{fill:#eca68c;}.cls-9{fill:none;stroke:#a8a8a8;stroke-miterlimit:10;stroke-width:3px;}</style></defs><title>icon</title><g id="图层_3" data-name="图层 3"><polygon class="cls-1" points="67.34 195.34 -2 219.93 -2 280.25 196 281.61 196 219.93 137.99 195.34 67.34 195.34"/><path class="cls-2" d="M136.71,236.81c-7.18-.55-17.67,0-26.38,7.16C103,250,99.72,258.4,97.4,257.41c-3.46-1.47,3.81-20.37-2.42-26.87-3.16-3.3-10.59-4.28-29.5,6.27V164.14h71.23Z"/><path class="cls-3" d="M110.33,270a51.9,51.9,0,0,0-.8-29.57A45.75,45.75,0,0,0,102.25,227a13.94,13.94,0,0,1,5.66.9c4.15,1.6,4.76,4.19,6.47,4.48,6.6,1.1,12.83-35.2,23.43-35.84,3.1-.19,6.55,3.72,8.08,5.37a23.38,23.38,0,0,1,4.85,8.07A93.2,93.2,0,0,1,141,237.7,84.23,84.23,0,0,1,110.33,270Z"/><path class="cls-4" d="M137.31,186.63,102.25,227A23.76,23.76,0,0,1,112,235c6.47,9.12,5.64,20.19,5.44,22.4a207.76,207.76,0,0,0,16.19-19.71,223.44,223.44,0,0,0,17.16-27.77,45.68,45.68,0,0,0-5.22-13.44A38.4,38.4,0,0,0,137.31,186.63Z"/><path class="cls-3" d="M54.57,202.76a6.73,6.73,0,0,1,4.61-1.7c2.92.16,5.6,2.61,6.71,6.18a1.08,1.08,0,0,1,.31-.41c1.62-1.29,5.65,4.31,12.62,9.37,5,3.66,10.37,6.12,16.16,11.65a5.14,5.14,0,0,1,.81.89c2.7,4.13-3.26,11.42-6.47,22.4a65.82,65.82,0,0,0-2.42,13.44,43.22,43.22,0,0,1-26.67-18.81C47.92,226.73,53.87,205.14,54.57,202.76Z"/><path class="cls-4" d="M65.08,186.63q15.35,21.06,30.71,42.11a18.44,18.44,0,0,0-9.7,4.48c-7.52,6.71-7.32,17.44-7.27,18.82a57.71,57.71,0,0,1-24.25-20.61,65.92,65.92,0,0,1-9.7-23.29,43.6,43.6,0,0,1,8.89-13.44A38.81,38.81,0,0,1,65.08,186.63Z"/><path class="cls-5" d="M65.58,175.24a48.83,48.83,0,0,0,20.58,11c26.2,6.61,48.44-11.49,50.54-13.26l.3-14.4H65.18Z"/><path class="cls-5" d="M45,119.86,43,91c-1.67-.43-6-1.28-9.49,1.26-6,4.34-6.41,16.43-.85,22.86C37.11,120.21,43.74,119.94,45,119.86Z"/><path class="cls-2" d="M42.3,126.56a14.27,14.27,0,0,0,3.6-.47V120.5a14.75,14.75,0,0,1-8.21-3.33c-7.6-6.46-8.4-21.57-3.22-25.12,3.63-2.48,9.64,1.1,11.43,2.19l.63-9.42c-1.28-1.11-10.16-8.63-16.62-5.45-7.75,3.83-6.81,20.52-3.24,30.36C31.18,122.15,41,126.56,42.3,126.56Z"/><path class="cls-5" d="M156.6,120.15V90.66c5.27-3.79,8.35-2.86,9.3-2.48,6.45,2.58,9.25,17.93,2.82,26.14C164.68,119.48,158.4,120.05,156.6,120.15Z"/><path class="cls-2" d="M158.35,126.32a14.67,14.67,0,0,1-3.65-.48v-5.69a14.87,14.87,0,0,0,8.32-3.4c7.69-6.58,8.51-22,3.26-25.58-3.68-2.53-9.76,1.12-11.58,2.23l-.63-9.6c2.52-2.26,8.69-7.18,14.06-5.23,8,2.93,9.66,19.56,6.05,30.61C170.14,121.54,159.76,126.32,158.35,126.32Z"/><path class="cls-2" d="M159.88,101.32c-4,33.23-6.15,50-14,58.89-7.47,8.38-16.06,11.75-20.81,13.61-20.47,8-38.67,1.85-43.84,0-4.56-1.63-11.2-4-17.84-9.61-16.21-13.7-18.87-35.34-22.25-62.89-2.87-23.45-4.68-40.16,4.42-57.16a60.73,60.73,0,0,1,12.63-16c4.27-4,18.48-16.94,40.13-17.61,19-.59,32.47,8.68,37.15,12a61.71,61.71,0,0,1,19.32,21.61c.45.84.91,1.76,1.37,2.85C163.67,65.07,160.48,96.34,159.88,101.32Z"/><ellipse class="cls-6" cx="74.13" cy="93.98" rx="3.34" ry="3.6"/><ellipse class="cls-6" cx="126.89" cy="94.18" rx="3.34" ry="3.6"/><rect class="cls-5" x="96.96" y="102.7" width="8.84" height="24.06" rx="3.81" ry="3.81"/><path class="cls-5" d="M117.08,137.1q-8.26-.21-16.9-.21-8.34,0-16.31.21a3.12,3.12,0,0,0-2.18.91,3.08,3.08,0,0,0-.91,2.18h0a3.1,3.1,0,0,0,3.09,3.09,81,81,0,0,0,33.21,0,3.2,3.2,0,0,0,2.18-.91,3.07,3.07,0,0,0,.9-2.18c-.22-.71-.45-1.43-.68-2.14Z"/><path class="cls-7" d="M43.65,84.78l-8.11-6.1c-1.25-5.24,1.13-11.74,1.22-20.14.11-9.63,3-17.8,4.64-23.4A55.57,55.57,0,0,1,56,16.61C70.53,4.42,82.44,2.43,95.79,1.88c14.41-.6,30.6,3.43,46.21,15.73,8.75,6.88,9.37,13.16,11.95,18.6,2.19,5,6.14,11.08,7,21.26.79,9.78,3.86,17.09,2.6,22.34l-7.47,3.75a22.24,22.24,0,0,0,0-9.75c-1.47-6.24-4.91-7.35-8.11-14.63-1.79-4.07-.84-4-3.48-13.41-2.55-9.11-3.63-13.91-5.59-14.88-4.87-2.4-3.48-5.32-20.89-4.25-5,.31-11.66,1.28-16.24,1.06C87.15,27,75.05,30.89,62.29,29.83c-4.81-.4-3.33,6-5.8,9.57-4.15,5.94-1.89,10.52-5.8,20.2-2.51,6.2-.16,6.13-3.57,14.21A62,62,0,0,0,43.65,84.78Z"/><path class="cls-7" d="M123.81,80c4.53-1,8.25-.46,12.35.1a46.77,46.77,0,0,1,8.8,2.06,9.16,9.16,0,0,0-1.91-3.68c-2.05-2.34-5-3-8.7-3.22-8.5-.46-17.39,1.82-21.6,3a4.89,4.89,0,0,0,1.7,3.21C116.5,83,119,81,123.81,80Z"/><path class="cls-7" d="M75.13,79.88c-4.56-1.07-8.32-.65-12.47-.19a48.53,48.53,0,0,0-8.92,1.85,9.11,9.11,0,0,1,2-3.64c2.11-2.29,5.12-2.89,8.84-3,8.59-.26,17.52,2.22,21.75,3.54a4.84,4.84,0,0,1-1.77,3.17C82.45,83,79.93,81,75.13,79.88Z"/><path class="cls-8" d="M76.27,144.42l-1.93-1.12a37.29,37.29,0,0,1,14.28-24.74l1.94,1.12a38.34,38.34,0,0,0-14.29,24.74Z"/><path class="cls-8" d="M125.34,145.21l2.08-1.09a35.5,35.5,0,0,0-13.23-25.32l-2.08,1.09a36.54,36.54,0,0,1,13.23,25.32Z"/><rect class="cls-9" x="51.01" y="85.52" width="43.2" height="17.42" rx="8.38" ry="8.38"/><rect class="cls-9" x="108.01" y="86.52" width="43.2" height="17.42" rx="8.38" ry="8.38"/><rect class="cls-9" x="94.42" y="94.23" width="13.94" height="2.09"/></g></svg>