<svg xmlns="http://www.w3.org/2000/svg" viewBox="0 0 175.75 294.64"><defs><style>.cls-1{fill:#fff;}.cls-2{fill:#f4bf9b;}.cls-3{fill:#e99280;}.cls-4{fill:#e6e6e6;}.cls-5{fill:#011c29;}.cls-6{fill:#eca68c;}.cls-7{fill:none;stroke:#a8a8a8;stroke-miterlimit:10;}.cls-8{fill:#a8a8a8;}</style></defs><title>icon</title><g id="图层_3" data-name="图层 3"><polygon class="cls-1" points="61.55 222.65 0 243.17 0 293.5 175.75 294.64 175.75 243.17 124.26 222.65 61.55 222.65"/><path class="cls-2" d="M123.12,257.25c-6.37-.45-15.68,0-23.41,6-6.48,5-9.42,12-11.47,11.21-3.08-1.23,3.37-17-2.16-22.43-2.8-2.75-9.4-3.56-26.18,5.23V196.62h63.22Z"/><path class="cls-3" d="M59.18,219.31a42.31,42.31,0,0,0,18.29,11c23.3,6.61,43.06-11.49,44.94-13.26q.12-7.2.26-14.4H58.82Z"/><path class="cls-4" d="M99.71,284.92A40.84,40.84,0,0,0,99,260.24,37.71,37.71,0,0,0,92.54,249a13,13,0,0,1,5,.75c3.69,1.33,4.23,3.5,5.74,3.74,5.86.91,11.39-29.37,20.8-29.91,2.75-.16,5.81,3.11,7.18,4.49a19.47,19.47,0,0,1,4.3,6.72A74.65,74.65,0,0,1,127,258,72.69,72.69,0,0,1,99.71,284.92Z"/><path class="cls-1" d="M123.66,215.39,92.54,249a21,21,0,0,1,8.61,6.73c5.74,7.6,5,16.84,4.82,18.69A176.37,176.37,0,0,0,120.35,258a184.44,184.44,0,0,0,15.23-23.18A36.94,36.94,0,0,0,131,223.61,33,33,0,0,0,123.66,215.39Z"/><path class="cls-4" d="M50.22,228.84a6.22,6.22,0,0,1,4.08-1.42c2.6.14,5,2.18,6,5.16a.91.91,0,0,1,.28-.34c1.44-1.08,5,3.6,11.2,7.82,4.48,3.05,9.2,5.1,14.34,9.72a4.23,4.23,0,0,1,.72.75c2.4,3.44-2.89,9.52-5.74,18.69a51.83,51.83,0,0,0-2.15,11.21,38.61,38.61,0,0,1-23.67-15.7C44.32,248.84,49.6,230.83,50.22,228.84Z"/><path class="cls-1" d="M59.54,215.39,86.8,250.53a16.83,16.83,0,0,0-8.61,3.73c-6.67,5.6-6.5,14.55-6.45,15.7a50.65,50.65,0,0,1-21.52-17.19,53,53,0,0,1-8.61-19.44,36.23,36.23,0,0,1,7.89-11.22A34.45,34.45,0,0,1,59.54,215.39Z"/><path class="cls-2" d="M33.53,120.38a21.79,21.79,0,0,1,2.27.46h0a17.6,17.6,0,0,1,2.16.71l-.51,3.85c-9.13.52-16.44,5.52-17.37,12.55s4.83,13.9,13.5,17q.06,5.94.14,11.87a24.07,24.07,0,0,1-12.2-5.23c-8.95-7.52-9-20.09-9-26.5a50.74,50.74,0,0,1,2.08-14.56C25,120.18,32.67,120.25,33.53,120.38Z"/><path class="cls-3" d="M37.45,125.41l-3.87,29.51a19.72,19.72,0,0,1-10.7-7.38c-1.2-1.7-3.49-4.94-3.12-9.36a13.24,13.24,0,0,1,3.91-8C28.82,124.79,36.24,125.31,37.45,125.41Z"/><path class="cls-2" d="M151.5,116.57l-2.26.14h0a19.49,19.49,0,0,0-2.18.4l4.3,6.93c5.58,2,9.49,6.82,9.83,12.06.46,7-5.55,14.09-14.13,14.86v13.46a28.18,28.18,0,0,0,21.41-29.36,30.07,30.07,0,0,0-6.24-16.64C155.48,116.84,152.67,116.49,151.5,116.57Z"/><path class="cls-3" d="M148.49,123.3v29.15c9.91-2.77,15-12.26,12.7-19.47C159.61,128,154.55,124.24,148.49,123.3Z"/><path class="cls-2" d="M152.8,138.38c-.5,8.79-2.15,18.69-2.15,18.69-1.53,9.09-2.4,14.32-5,20.93-1.89,4.78-5.2,13.57-12.91,20.19-1.47,1.26-1.1.73-15.19,8.63-11.13,6.23-11.31,6.53-13.52,7.28a40.29,40.29,0,0,1-20.8,1c-2.73-.58-4.93-1.34-19.76-9.36-10.48-5.66-15.72-8.49-16.64-9.36-6.43-6-9.09-13.78-13.08-29.63-2.17-8.57-4.39-17.77-5-30.65-.93-18.92-2-39.89,10.76-56.83,16.26-21.63,44.13-22.26,51.3-22.42,7.66-.18,35-.8,50.57,18.69C155.22,93,154,117.67,152.8,138.38Z"/><path class="cls-5" d="M72.72,135.58c-.1,1.82-2.57,3.2-4.59,3.34-3.12.2-6.41-2.47-6.11-4.5.27-1.78,3.27-3,5.72-2.77C70,131.9,72.83,133.58,72.72,135.58Z"/><rect class="cls-6" x="88.56" y="138.67" width="7.89" height="22.39" rx="3.69" ry="3.69"/><path class="cls-5" d="M124.24,134.24c.44,1.93-1.69,4.07-3.76,4.7-3,.89-6.74-1.05-6.9-3.2-.13-1.86,2.48-3.74,4.86-4.08C120.64,131.35,123.78,132.19,124.24,134.24Z"/><path class="cls-5" d="M69.68,121.54a19.84,19.84,0,0,0-7.28-1c-4.92.34-7.41,3-8.32,2.08s.35-3.57,2.08-5.2a8.52,8.52,0,0,1,5.2-2.08c1.68-.18,3.7-.07,9.36,2.08A90.28,90.28,0,0,1,79,121a4,4,0,0,1-1.84,2.72C75.42,124.58,73.66,122.8,69.68,121.54Z"/><path class="cls-3" d="M107.12,173.72q-7.12-.18-14.56-.18c-4.79,0-9.48.07-14.06.18a2.64,2.64,0,0,0-1.88.82,3.21,3.21,0,0,0-.78,2c-.14,2.4,7.39,8.09,16.72,8.48,1,0,12.69.39,16.44-6.52a9.14,9.14,0,0,0,.78-2c-.19-.64-.39-1.28-.58-1.92Z"/><path class="cls-5" d="M149.75,131.94a3.93,3.93,0,0,0,3.12,0c3.31-1.79.39-9.78,4.16-12.48,1.81-1.29,3.05.13,5.2-1,2.89-1.57,3.47-5.68,4.16-13.52.91-10.25,1.36-15.38,1-17.68-.58-4.14-1.73-12.39-8.32-19.76a33.86,33.86,0,0,0-18.72-10.4,60.83,60.83,0,0,0-18.71-15.59c-25.45-13.55-53.23-3.91-64.48,0-8.64,3-16.18,5.61-23.92,12.47C15.93,69.33,13.88,91.58,13.52,98.66q1,10.92,2.08,21.84c5.62-.65,8.12.73,9.36,2.08C28.14,126,26,132.45,29.12,134a4.09,4.09,0,0,0,3.12,0c-2-12.26.45-20.05,3.12-25,2.12-3.89,3.83-5.56,7.28-10.4A51.46,51.46,0,0,0,51,78.9C66.32,84.34,77.14,83.14,84.24,81c10.72-3.26,14.37-9.14,27-10.4,5-.49,14.36-1.42,20.79,4.16,4.17,3.62,2.71,6.15,9.36,16.64,4.29,6.76,7,7.49,8.32,12.48.94,3.5.36,5.3,0,12.48C149.57,120,149.44,125.38,149.75,131.94Z"/><path class="cls-5" d="M115.72,122a16.51,16.51,0,0,1,6.61-1.23c4.56.19,7.09,2.77,7.84,1.81s-.64-3.51-2.37-5.07a8,8,0,0,0-5-1.9c-1.56-.13-3.42,0-8.43,2.32a74.83,74.83,0,0,0-7.32,3.82,4.3,4.3,0,0,0,1.94,2.63C110.7,125.17,112.16,123.36,115.72,122Z"/><rect class="cls-7" x="43.87" y="125.83" width="43.2" height="20.73" rx="6.15" ry="6.15"/><rect class="cls-7" x="99.28" y="126.15" width="43.2" height="20.73" rx="6.15" ry="6.15"/><rect class="cls-8" x="86.84" y="132.03" width="11.96" height="3.03"/></g></svg>