<svg xmlns="http://www.w3.org/2000/svg" viewBox="0 0 175.75 277.97"><defs><style>.cls-1{fill:#d1cfcf;}.cls-2{fill:#f4bf9b;}.cls-3{fill:#e99280;}.cls-4{fill:#605f5f;}.cls-5{fill:#f9d2b9;}.cls-6{fill:#011c29;}.cls-7{fill:#f8c49f;}.cls-8{fill:#404344;}.cls-9{fill:#eaac81;}</style></defs><title>icon</title><g id="图层_3" data-name="图层 3"><path class="cls-1" d="M59.28,198.47,0,226.51v50.33L175.75,278V226.51l-52-28Z"/><path class="cls-2" d="M123.12,240.59c-6.37-.46-15.68,0-23.41,6-6.48,5-9.42,12-11.47,11.22-3.08-1.23,3.37-17-2.16-22.43-2.8-2.76-9.4-3.57-26.18,5.23V180h63.22Z"/><path class="cls-3" d="M59.18,202.65a42.31,42.31,0,0,0,18.29,11c23.3,6.61,43.06-11.49,44.94-13.26q.12-7.2.26-14.4H58.82Z"/><path class="cls-4" d="M99.71,268.25A40.8,40.8,0,0,0,99,243.58a37.71,37.71,0,0,0-6.46-11.21,13.17,13.17,0,0,1,5,.74c3.69,1.34,4.23,3.5,5.74,3.74,5.86.92,11.39-29.37,20.8-29.9,2.75-.16,5.81,3.1,7.18,4.48a19.4,19.4,0,0,1,4.3,6.73A74.83,74.83,0,0,1,127,241.34,72.64,72.64,0,0,1,99.71,268.25Z"/><path class="cls-1" d="M123.66,198.72,92.54,232.37a20.86,20.86,0,0,1,8.61,6.72c5.74,7.61,5,16.85,4.82,18.7a176.37,176.37,0,0,0,14.38-16.45,185.17,185.17,0,0,0,15.23-23.18A36.84,36.84,0,0,0,131,207,32.92,32.92,0,0,0,123.66,198.72Z"/><path class="cls-4" d="M50.22,212.18a6.17,6.17,0,0,1,4.08-1.42c2.6.13,5,2.17,6,5.16a.93.93,0,0,1,.28-.35c1.44-1.07,5,3.61,11.2,7.82,4.48,3.06,9.2,5.11,14.34,9.72a4.23,4.23,0,0,1,.72.75c2.4,3.44-2.89,9.52-5.74,18.69a51.9,51.9,0,0,0-2.15,11.22,38.66,38.66,0,0,1-23.67-15.7C44.32,232.18,49.6,214.17,50.22,212.18Z"/><path class="cls-1" d="M59.54,198.72,86.8,233.86a16.87,16.87,0,0,0-8.61,3.74c-6.67,5.6-6.5,14.55-6.45,15.7a50.62,50.62,0,0,1-21.52-17.2,53,53,0,0,1-8.61-19.44,36.33,36.33,0,0,1,7.89-11.21A34.73,34.73,0,0,1,59.54,198.72Z"/><path class="cls-5" d="M33.53,103.71a14.7,14.7,0,0,1,2.27.47h0a21.83,21.83,0,0,1,2.16.71l-.51,3.85c-.85-.1-8.23-.9-11.76,3.84a10,10,0,0,0-1.77,5.82c-.43,9.5,7.21,17.47,9.66,19.86,0,4,.09,7.91.14,11.86A19,19,0,0,1,26,146.48c-5.68-4.57-3.92-9.08-9.36-26-2.16-6.72-4.2-11.47-2.08-16.64.71-1.73,1.43-3.49,3.12-4.16C22,98,31.67,103.49,33.53,103.71Z"/><path class="cls-3" d="M37.45,108.74l-3.87,29.52A26.05,26.05,0,0,1,25,130.88c-2-2.73-5.44-7.36-4.16-12.48a10.94,10.94,0,0,1,2.87-4.91C28.49,108.35,35.84,108.64,37.45,108.74Z"/><path class="cls-5" d="M151.5,99.9l-2.26.15a17.45,17.45,0,0,0-2.18.4l4.3,6.93a14.71,14.71,0,0,1,7.75,13.1,14.92,14.92,0,0,1-12.05,13.81q-.21,7.65-.43,15.31a29.49,29.49,0,0,0,8.32-6.24c3.27-3.52,4.73-6.87,6.24-10.4a45.25,45.25,0,0,0,4.16-19.76c-.16-5.36-.28-9.44-3.12-11.44C162.23,101.76,158.94,99.44,151.5,99.9Z"/><path class="cls-3" d="M148.49,106.63v29.16c9.91-2.78,15-12.27,12.7-19.47C159.61,111.31,154.55,107.57,148.49,106.63Z"/><path class="cls-5" d="M152.8,121.71c-.5,8.79-2.15,18.69-2.15,18.69-.77,4.55-1.36,8.13-2.1,11.4a58,58,0,0,1-2.93,9.54c-2.14,5.13-5.28,8.59-11.47,15.29-4.91,5.33-8.47,9.15-14.35,13.12a64.16,64.16,0,0,1-9.33,5.23c-16,7.36-32.55,2.12-34.43,1.5A56.1,56.1,0,0,1,66,192a67.25,67.25,0,0,1-19.2-16.4C39,166,35.92,156.8,33.72,150.12c-1.7-5.14-4.27-15.31-5-30.65-.93-18.91-2-39.88,10.76-56.82C55.71,41,83.58,40.38,90.75,40.22c7.66-.17,35-.8,50.57,18.69C155.22,76.3,154,101,152.8,121.71Z"/><path class="cls-6" d="M68.54,120.24c-.2,1.82-2.75,3.06-4.77,3.09-3.12,0-6.27-2.81-5.85-4.82.36-1.76,3.43-2.85,5.85-2.45S68.75,118.25,68.54,120.24Z"/><rect class="cls-7" x="87.52" y="120.97" width="10.24" height="26.55" rx="3.69" ry="3.69"/><path class="cls-6" d="M124.36,118.46c.11,2-2.34,3.74-4.49,4-3.07.39-6.47-2.15-6.27-4.29.18-1.86,3.07-3.28,5.47-3.22C121.29,115,124.24,116.36,124.36,118.46Z"/><path class="cls-6" d="M64.36,103.52c-4.31,0-7.61,1.07-11.26,2.3a45.62,45.62,0,0,0-7.66,3.39,8,8,0,0,1,1.09-3.59c1.45-2.42,4-3.55,7.37-4.38,7.67-1.93,16.19-1.53,20.24-1.21a4.32,4.32,0,0,1-1,3.13C71.55,104.83,68.89,103.55,64.36,103.52Z"/><path class="cls-8" d="M28.08,108c-4.18,1.39-6.74.81-8.32,0-11.61-6-10.39-44.89,9.36-70.72,3.11-4.07,7.91-10.74,16.64-15.6.51-.29,12.17-6.66,23.92-7.28a46.71,46.71,0,0,0,8.32-1c4.79-1,7-2.34,9.36-3.12,7.28-2.38,14.54.66,22.88,4.16a64.57,64.57,0,0,1,15.59,9.36c2.28,2.91,4,5.31,7.28,7.28,4.22,2.52,7.24,2.2,10.4,3.12,9.2,2.67,13.64,14.1,16.64,21.84,3.74,9.62,3.95,17.63,4.16,26a115,115,0,0,1-2.08,25L151.83,109a54.45,54.45,0,0,0-9.36-20.8c-2.74-3.64-5-5.53-7.28-10.4a32.21,32.21,0,0,1-2-5.47c-1.74-6.55-1.48-7.16-2.13-8.05-2.26-3.12-19.87,3.92-32.23,7.28C74,78.32,51.23,74.82,49.92,69.52c-.37-1.5.85-3.6,0-4.16s-3.55,1.38-5.2,3.12c-4.43,4.65-3.47,8.64-7.28,15.6-2.25,4.1-3,3.56-5.2,7.28A32.89,32.89,0,0,0,28.08,108Z"/><path class="cls-6" d="M114.66,104.43c4.25.28,7.43,1.63,10.94,3.11a44.72,44.72,0,0,1,7.32,3.94,8.14,8.14,0,0,0-.82-3.65c-1.26-2.53-3.73-3.84-6.95-4.92-7.44-2.48-15.87-2.69-19.9-2.67a4.35,4.35,0,0,0,.74,3.2C107.46,105.21,110.18,104.14,114.66,104.43Z"/><path class="cls-9" d="M105.06,163.12a81.86,81.86,0,0,1-26,0c-1.12,0-2.05-1.41-2.05-3.12s.92-3.12,2.05-3.12a41.71,41.71,0,0,0,26.05,0c1.13,0,2.06,1.4,2.06,3.12S106.19,163.12,105.06,163.12Z"/><rect class="cls-7" x="75.81" y="135.44" width="2.65" height="19.76" transform="translate(82.99 -19.1) rotate(30)"/><rect class="cls-7" x="105.97" y="136.48" width="2.65" height="19.76" transform="translate(-41.51 42.48) rotate(-18.84)"/></g></svg>