<svg xmlns="http://www.w3.org/2000/svg" viewBox="0 0 195.49 288.38"><defs><style>.cls-1{fill:#fff;}.cls-2{fill:#e99280;}.cls-3{fill:#f4bf9b;}.cls-4{fill:#1b2426;}.cls-5{fill:#e7f1f7;}.cls-6{fill:none;stroke:#a8a8a8;stroke-miterlimit:10;}.cls-7{fill:#a8a8a8;}</style></defs><title>icon</title><g id="图层_3" data-name="图层 3"><polygon class="cls-1" points="68.46 201.75 0 226.45 0 287.02 195.49 288.38 195.49 226.45 138.21 201.75 68.46 201.75"/><path class="cls-2" d="M138.21,233.93c-7-.41-17.3,0-25.82,5.45-7.15,4.56-10.4,11-12.67,10.21-3.39-1.12,3.73-15.48-2.37-20.42-3.09-2.51-10.37-3.25-28.89,4.76V178.74h69.75Z"/><path class="cls-3" d="M176.4,121.59a71.17,71.17,0,0,1-1.1,14.49A64.18,64.18,0,0,1,172,147.16a53.76,53.76,0,0,1-3,10.21,57.3,57.3,0,0,1-20.27,24.93,64.11,64.11,0,0,1-19.29,9.06,83.54,83.54,0,0,1-43.34,1.57c-1.79-.41-3.12-.78-3.65-.93-5.22-1.48-18.32-5.33-29.4-15.93-9.71-9.3-13.42-19.54-16.13-27a93.64,93.64,0,0,1-5.14-27.47c-1-36.36,23.13-84,46.23-83.84,8.41,0,9.38,6.39,26.1,10.91,17.16,4.63,20.8-.78,32.14,2.61C166.78,60.41,176,110.43,176.4,121.59Z"/><path class="cls-2" d="M35.31,139.47V111.31c-2-.54-7.2-1.7-11.64.49-7.61,3.75-9.16,15.44-2.94,22.1C25.66,139.2,33.74,139.44,35.31,139.47Z"/><path class="cls-3" d="M33.2,145.36a21.79,21.79,0,0,0,4.39-.46v-5.43a20.85,20.85,0,0,1-10-3.25c-9.26-6.28-10.24-21-3.92-24.42,4.42-2.41,11.73,1.07,13.92,2.13.25-3.05.51-6.11.76-9.16-2-1-10-4.53-16.89-1.81-9.86,3.89-10.36,17.71-7.29,26C18.51,140.8,31.46,145.36,33.2,145.36Z"/><path class="cls-2" d="M172.4,139.9V111.23c2-.56,7.29-1.74,11.79.5,7.7,3.82,9.26,15.72,3,22.5C182.16,139.62,174,139.88,172.4,139.9Z"/><path class="cls-3" d="M174.53,145.9a21.5,21.5,0,0,1-4.44-.47V139.9a21,21,0,0,0,10.12-3.3c9.38-6.4,10.37-21.36,4-24.87-4.48-2.47-11.89,1.08-14.1,2.17l-.78-9.34c2-1,10.1-4.61,17.11-1.84,10,4,10.49,18,7.38,26.51C189.4,141.26,176.3,145.9,174.53,145.9Z"/><path class="cls-4" d="M30.13,71c-.13,1-.39,3.06-.76,11.68-.41,9.86-.53,17.92-.56,23.41l14,3.79a13.65,13.65,0,0,1,2.2-9.47c4-5.7,10.53-4.5,13.22-9.48s-1.84-8,1.47-14.52c.54-1.07,3.44-6.8,9.54-7.58a12.94,12.94,0,0,1,8.08,1.9c13.36,7.29,21.43,6.64,26.43,4.42,7.52-3.35,9.61-10.91,22.11-18.71a62.32,62.32,0,0,1,10.4-5.2,37.83,37.83,0,0,1,3.69,4.25h0a91.89,91.89,0,0,0,6.71,8.22c4,4.48-.5,10.67,3.12,18.72,3.36,7.48,9.43,7,12.71,15.44a22.84,22.84,0,0,1,1.47,9.47l12.56-5.24c1.78-22.75-3.19-39.35-7-48.79-5-12.41-14.61-29.08-22.88-28.08-2,.24-3.44,1.44-6.24,1-5.59-.8-8.46-6.83-10.4-9.36-10.38-13.51-54.06-4.69-78,15.6A65.74,65.74,0,0,0,40.53,45,64.11,64.11,0,0,0,30.13,71Z"/><ellipse class="cls-4" cx="72.86" cy="118.12" rx="4.41" ry="3.79"/><ellipse class="cls-4" cx="130.14" cy="117.49" rx="4.41" ry="3.79"/><path class="cls-4" d="M58.45,107.56c1,.92,6.51-5.55,13.94-5.45,2.73,0,4.44,1,8.66.41,1.32-.17,4.74-.62,5.23-2,.34-1-.86-2-1.23-2.3-4.15-3.51-16.1-2.77-22.92,3.39C59.52,103.94,57.79,107,58.45,107.56Z"/><path class="cls-4" d="M148.89,108.6c-1.19,1-6.79-6.45-14.91-6.72-3-.1-4.91.81-9.49,0-1.43-.26-5.15-.92-5.6-2.51-.31-1.09,1.06-2.14,1.48-2.46,4.73-3.64,17.75-2.21,24.85,4.92C147.94,104.57,149.65,108,148.89,108.6Z"/><rect class="cls-2" x="96.97" y="117.49" width="16.81" height="26.52" rx="8.08" ry="8.08"/><rect class="cls-2" x="86.08" y="154.11" width="37.45" height="5.05" rx="2.43" ry="2.43"/><path class="cls-5" d="M113.18,261.84a31.08,31.08,0,0,0-.79-22.46,33.49,33.49,0,0,0-7.13-10.21,17.15,17.15,0,0,1,5.54.68c4.07,1.21,4.67,3.19,6.33,3.4,6.47.84,12.57-26.73,23-27.22,2.29-.11,4.16,1.29,7.91,4.08a30.06,30.06,0,0,1,10.29,13.61Z"/><path class="cls-1" d="M138.5,201.94l-33.24,27.23a25.09,25.09,0,0,1,7.92,5.44,21.42,21.42,0,0,1,5.76,17l35.39-36.07Z"/><path class="cls-5" d="M57,209.43a7.7,7.7,0,0,1,4.51-1.29,7.49,7.49,0,0,1,6.57,4.69,1,1,0,0,1,.31-.31c1.59-1,5.53,3.28,12.36,7.12,4.94,2.78,10.16,4.65,15.83,8.85a4.4,4.4,0,0,1,.79.68c2.65,3.13-3.2,8.67-6.33,17a39.83,39.83,0,0,0-2.38,10.21c-3.26-.56-16.89-3.22-26.12-14.29C50.47,227.64,56.3,211.24,57,209.43Z"/><path class="cls-1" d="M68.06,201.94l29.29,26.93a22.05,22.05,0,0,0-7.12,3.7c-7.51,6-7.22,14.69-7.13,16.34-4-1.26-15.37-5.27-23.74-15.66a38.41,38.41,0,0,1-8.71-23.14Z"/><polyline class="cls-4" points="160.41 171.54 145.57 192.71 138.21 192.71 136.13 189.05"/><polygon class="cls-4" points="57.13 179.64 68.46 186.76 68.46 192.71 59.25 192.71 57.13 179.64"/><rect class="cls-6" x="49.05" y="105.47" width="48.21" height="29.57" rx="2.21" ry="2.21"/><rect class="cls-6" x="110.88" y="105.94" width="48.21" height="29.57" rx="2.21" ry="2.21"/><rect class="cls-7" x="96.99" y="114.32" width="13.35" height="4.32"/></g></svg>