<svg xmlns="http://www.w3.org/2000/svg" viewBox="0 0 202.79 290.5"><defs><style>.cls-1{fill:#dcddb8;}.cls-2{fill:#e99280;}.cls-3{fill:#f4bf9b;}.cls-4{fill:#1b2426;}.cls-5{fill:#434349;}.cls-6{fill:#efae8f;}.cls-7{fill:#828e75;}.cls-8{fill:#e8e2c5;}</style></defs><title>icon</title><g id="图层_3" data-name="图层 3"><polygon class="cls-1" points="71.02 205.54 0 229.76 0 289.16 202.79 290.5 202.79 229.76 143.38 205.54 71.02 205.54"/><rect class="cls-2" x="65.7" y="165.01" width="74.54" height="71.6"/><path class="cls-2" d="M44.78,135l-6.26-29.3C36.91,105.4,32.77,105,30,108c-4.84,5.11-3.39,17.52,2.72,23.47A13.78,13.78,0,0,0,44.78,135Z"/><path class="cls-3" d="M45.66,143.5l-2.07-8.92a16.49,16.49,0,0,1-8.58-3.2c-7-5.31-6.44-14.43-6.35-15.88.18-2.9.39-6.42,3-8.23,2.88-2,7.72-1.23,12,2.1,0-1.62,0-3.25.07-4.87-3.88-8-9.79-12.15-14-11-3.63,1-5.23,5.73-6,8s-2.27,7.77,3,24c3.72,11.46,5.79,17.43,11,19C39,144.89,41.63,145.34,45.66,143.5Z"/><path class="cls-2" d="M159.25,134.24v-28.3c5.5-3.64,8.72-2.75,9.72-2.39,6.73,2.48,9.66,17.21,2.94,25.09C167.7,133.6,161.13,134.14,159.25,134.24Z"/><path class="cls-3" d="M156.66,144.5l.6-10.26a10.56,10.56,0,0,0,4-.78c5.77-2.41,7.45-9.66,8.45-14,1.35-5.81,2.52-10.84-.3-13.07-2.56-2-7.56-1.1-12.1,2.14l-.6-6.07c2.06-3.08,6.26-8.36,11-8,7.41.55,13.38,14.67,11,25-.46,2-.49.6-6,12-3.52,7.27-4.68,10.25-8,12A12.68,12.68,0,0,1,156.66,144.5Z"/><path class="cls-3" d="M162.68,116.16c-3.41,27.93-9.94,41.33-12,45.34a55.44,55.44,0,0,1-10,14,51.76,51.76,0,0,1-14.4,10.25c-16.33,7.56-32.78,3.49-40.24,1.62-2.45-.62-4.35-1.22-5.57-1.62a70.28,70.28,0,0,1-18.63-9.22c-5.81-4.36-8.59-11.91-14.16-27a191.52,191.52,0,0,1-9.09-33.34,156.75,156.75,0,0,1-2.31-21.81c-.6-12.1.79-22.52,6.93-33a59.36,59.36,0,0,1,13.2-15.36C60.84,42.1,75.69,29.68,98.31,29c19.9-.56,33.93,8.32,38.82,11.52A61.72,61.72,0,0,1,157.32,61.3c.46.81,1,1.69,1.42,2.74C165.19,78.19,164.76,99.11,162.68,116.16Z"/><ellipse class="cls-4" cx="74.12" cy="110.08" rx="4.54" ry="3.46"/><ellipse class="cls-4" cx="127.18" cy="109.31" rx="4.52" ry="3.46"/><path class="cls-2" d="M115,148.52A45.29,45.29,0,0,1,102.86,150a45.79,45.79,0,0,1-10.51-1.43,1.16,1.16,0,0,1-.8-.33,1.12,1.12,0,0,1-.33-.79v-.94a1.13,1.13,0,0,1,1.13-1.12H115a1.16,1.16,0,0,1,.79.33,1.08,1.08,0,0,1,.33.79v.94A1.12,1.12,0,0,1,115,148.52Z"/><path class="cls-5" d="M58.66,101.5c.78,1,4.48-1.82,12-3,3.48-.55,5.22-.36,6.43,0,.35.11,1.51.51,3.19.93.6.16,1.25.31,2,.46,2.77.55,4.82.72,5.5-.28s-.31-2.72-.42-2.91c-1.76-3.07-6.19-3.63-11.69-4.24-4.55-.51-6.82-.77-9,0C61.09,94.44,57.75,100.37,58.66,101.5Z"/><path class="cls-6" d="M87.66,131.27a26.5,26.5,0,0,0-4.79,4.17c-.63.7-1.2,1.4-1.74,2.09a58.53,58.53,0,0,0-.43,9.05c.06,2.08.23,3.95.43,5.57a1.44,1.44,0,0,0,.44,1.4c.33.14.79-.34.84-1.18a49.54,49.54,0,0,1-.41-5.09,51.56,51.56,0,0,1,.44-8.35,10.69,10.69,0,0,1,.87-2.09,6.3,6.3,0,0,1,4.35-3.48Z"/><path class="cls-6" d="M118.66,132.27a27.26,27.26,0,0,1,5,4.17c.65.7,1.25,1.4,1.8,2.09a56.26,56.26,0,0,1,0,14.62c.08.68-.16,1.28-.45,1.4s-.83-.34-.87-1.18a49.32,49.32,0,0,0,.42-5.09,50.3,50.3,0,0,0-.45-8.35,10.89,10.89,0,0,0-.9-2.09,6.55,6.55,0,0,0-4.51-3.48Z"/><path class="cls-7" d="M112.74,276.73a49.29,49.29,0,0,0-.83-29.11,44.69,44.69,0,0,0-7.45-13.24,14.87,14.87,0,0,1,5.79.88c4.26,1.58,4.88,4.13,6.62,4.41,6.76,1.09,13.15-34.66,24-35.29,3.17-.18,6.7,3.67,8.28,5.29a23.06,23.06,0,0,1,5,8A89.6,89.6,0,0,1,144.19,245,84.74,84.74,0,0,1,112.74,276.73Z"/><path class="cls-8" d="M140.37,194.67l-35.91,39.71a24.29,24.29,0,0,1,9.93,7.94c6.63,9,5.78,19.88,5.57,22.06A209,209,0,0,0,136.55,245a221,221,0,0,0,17.57-27.35,44.17,44.17,0,0,0-5.35-13.24A38.63,38.63,0,0,0,140.37,194.67Z"/><path class="cls-7" d="M55.83,211.59a7.13,7.13,0,0,1,4.82-1.36c3,.36,5.55,3,6.45,6.53a1.15,1.15,0,0,1,.34-.38c1.75-1.16,5.49,4.62,12.27,10.06,4.92,3.94,10.2,6.72,15.74,12.54a4.45,4.45,0,0,1,.77.94c2.49,4.24-4.09,11-8.1,21.57a63,63,0,0,0-3.37,13,44.37,44.37,0,0,1-26-20.29C47.44,234.69,55,213.89,55.83,211.59Z"/><path class="cls-8" d="M70.51,196.54l25.94,45.13A19.18,19.18,0,0,0,86,244.79c-8.48,5.57-9.62,16.08-9.74,17.43a58.63,58.63,0,0,1-22.06-23.28,63.51,63.51,0,0,1-6.94-24A43,43,0,0,1,58,203,40.09,40.09,0,0,1,70.51,196.54Z"/><path class="cls-5" d="M44,100.18l-8.11-5.74a75.76,75.76,0,0,1,1.16-41.27A67.88,67.88,0,0,1,52.15,34.82c17.33-14.74,37-16,43.51-16.32,6.26-.31,28.89-1.11,48,14C147,35.14,154.85,41.08,159.92,52a65,65,0,0,1,4,43.48L156.44,99a19.71,19.71,0,0,0,0-9.17C155,84,151.53,82.94,148.33,76.1c-1.79-3.83-.84-3.76-3.48-12.61-2.55-8.57-3.83-12.85-5.79-13.76-4.83-2.24-10.79,4.63-24.34,10.32-5.92,2.48-13.3,3.8-28.06,6.45-15.6,2.79-26.77,3.66-31,9.6-.36.51-2.63,4.2-5.59,9a40,40,0,0,0-2.52,4.81A56.43,56.43,0,0,0,44,100.18Z"/><path class="cls-5" d="M142.72,99.73c-.61.87-3.83-1.41-10.16-2.14-2.93-.34-4.37-.1-5.37.29-.29.11-1.24.51-2.63,1-.49.16-1,.32-1.64.48-2.29.6-4,.83-4.61,0s.15-2.39.23-2.56c1.34-2.77,5-3.43,9.59-4.19,3.78-.63,5.67-.94,7.52-.36C140.39,93.65,143.43,98.71,142.72,99.73Z"/><rect class="cls-2" x="97.66" y="110.5" width="12" height="26"/></g></svg>