<svg xmlns="http://www.w3.org/2000/svg" viewBox="0 0 196.49 293.35"><defs><style>.cls-1{fill:#f4bf9b;}.cls-2{fill:#e99280;}.cls-3{fill:#011c29;}.cls-4{fill:#eca68c;}.cls-5{fill:#b9e9ff;}</style></defs><title>icon</title><g id="图层_3" data-name="图层 3"><path class="cls-1" d="M153.06,103.3l-.3,0c-.39,0-1.06.15-1.87.33s-1.39.37-2.07.6l6.92,8.56a16.37,16.37,0,0,1,4.73-1.07c1.62-.12,2.62-.19,3.45.28,2.58,1.47,1.92,7.28,1.84,8-1,8.56-10.28,13.91-13,15.36l.45,3.61a19.93,19.93,0,0,0,4.37,0c8.76-1,15.73-10.78,16.39-19.88s-4.87-18.48-9.36-18.61C162.07,100.44,154.46,103.15,153.06,103.3Z"/><path class="cls-2" d="M149.28,107.86l3.47,27.52c1.38-.15,8-1,12.05-6.73A18.74,18.74,0,0,0,168,118.38c.13-2.6.27-5.2-1-7.28C164.58,107,157.36,105.72,149.28,107.86Z"/><path class="cls-3" d="M66.61,186.05,0,222.28v71.07H196.49V224.48L131,186.05Z"/><rect class="cls-2" x="64.1" y="167.93" width="66.89" height="57.14"/><path class="cls-1" d="M41.62,105.23l.31,0a17.43,17.43,0,0,1,1.89.36c.72.17,1.42.38,2.1.61L38.81,114A18.31,18.31,0,0,0,34,112.9c-1.64-.15-2.66-.25-3.51.17-2.64,1.29-2,6.73-1.94,7.38.93,8,10.34,13.24,13.1,14.68l-.49,3.34a14.34,14.34,0,0,1-4.44-.1c-9-1.68-15-12.35-15.59-21.44-.46-7.14,2.26-15.79,6.24-16.41C30.92,100,40.11,105,41.62,105.23Z"/><path class="cls-2" d="M45.43,109.59l-3.77,25.54c-1.41-.19-8.1-1.2-12.2-6.61a16.56,16.56,0,0,1-3.12-9.66c-.12-2.42-.23-4.85,1-6.76C29.87,108.37,37.23,107.36,45.43,109.59Z"/><path class="cls-1" d="M157.42,120.81a83.22,83.22,0,0,1-5.49,30.68c-.41,1-.87,2.26-1.48,3.61A49.11,49.11,0,0,1,139.65,170c-6.56,6.17-13.19,8.89-19.75,11.58-7.56,3.1-13.52,5.55-21.83,5.8-9.94.29-17.35-2.71-24.95-5.8S59.88,176.25,54.41,171c-6.93-6.64-9.08-13.83-12.61-25.61a109.39,109.39,0,0,1-4.88-26.52C36,102.5,35,84.36,47.37,69.7,63.16,51,90.22,50.43,97.17,50.29c7.44-.15,34-.69,49.1,16.18C157.21,78.66,157.29,94.51,157.42,120.81Z"/><path class="cls-3" d="M150.43,108.74l9.16-3.9A66.82,66.82,0,0,0,160.88,79c-.95-6.35-3.24-21.18-15-32.56-16.14-15.64-40-14.9-53-14.49-13.19.41-32.49,1-46.78,14.49-12.78,12-14.76,28-15.59,34.76a65.57,65.57,0,0,0,2.08,26.07l9.69,3.41a32.46,32.46,0,0,1,3.82-17.9c2.42-4.33,4.09-4.78,7.28-9.65,7.06-10.8,3.87-16.23,8.31-19.31,7.22-5,17.26,8.2,35.35,7.72s27.09-14.33,35.34-9.66c4.12,2.34,2,5.86,9.36,16.42,4.9,7,7.43,7.77,9.35,12.55C153.49,96.85,152.52,103.16,150.43,108.74Z"/><path class="cls-3" d="M85.59,107.28a32.52,32.52,0,0,0-12.47-3.87c-4.92-.45-8.76.41-9.36-1-.47-1.09,1.37-3,3.12-3.86,2.68-1.36,5.63-.65,8.32,0,.71.17,2.2.75,5.19,1.93,3.84,1.5,4.73,2,5.2,2.89A4.81,4.81,0,0,1,85.59,107.28Z"/><rect class="cls-4" x="91.25" y="117.6" width="11.43" height="20.05" rx="3.81" ry="3.81"/><path class="cls-5" d="M64.1,223,131,226.3q-3,33.87-5.92,67.75H70Q67.06,258.52,64.1,223Z"/><polyline points="63.41 192.1 31.72 228.04 47.38 239.7 27.87 262.7 32.05 291.96 27.87 291.96 23.69 259.91 42.5 243.19 28.57 226.46 63.41 188.14"/><polyline points="131.69 193.5 161.71 229.43 146.88 241.1 165.36 264.09 161.4 293.36 165.36 293.36 169.32 261.3 151.5 244.58 164.7 227.86 131.69 189.53"/><path class="cls-1" d="M71.07,201.38a45.68,45.68,0,0,0,25.78,6.27c16.84-1,27.41-11.31,30-13.94l-6.27,31.36-39.71,3Z"/><path class="cls-5" d="M64,187.51a89.72,89.72,0,0,0,1,43.94,86.92,86.92,0,0,0,7.45,18.15,37.89,37.89,0,0,1,13.09-17.13,35.88,35.88,0,0,1,12.09-5.58q-6.41-7.74-13-15.57Q74.22,199.14,64,187.51Z"/><path class="cls-5" d="M130.85,186c-6.14,9.07-13.1,18.52-21,28.13q-5.43,6.61-10.81,12.6a52,52,0,0,1,12.84,7.29A53.53,53.53,0,0,1,124,247.24,100.15,100.15,0,0,0,132,219.18,99.57,99.57,0,0,0,130.85,186Z"/><path class="cls-3" d="M109.29,107.28a32.89,32.89,0,0,1,12.55-3.87c5-.45,8.82.41,9.42-1,.47-1.09-1.38-3-3.14-3.86-2.7-1.36-5.66-.65-8.37,0-.71.17-2.22.75-5.23,1.93-3.86,1.5-4.75,2-5.23,2.89A4.85,4.85,0,0,0,109.29,107.28Z"/><rect class="cls-2" x="81.43" y="145.9" width="33.26" height="4.83" rx="2.32" ry="2.32"/><ellipse class="cls-3" cx="76.24" cy="115.97" rx="5.2" ry="4.83"/><ellipse class="cls-3" cx="119.9" cy="115.97" rx="5.2" ry="4.83"/></g></svg>