<svg xmlns="http://www.w3.org/2000/svg" viewBox="0 0 196.49 295.58"><defs><style>.cls-1{fill:#2b1d33;}.cls-2{fill:#e99280;}.cls-3{fill:#c5cad8;}.cls-4{fill:#18151e;}.cls-5{fill:#f4bf9b;}.cls-6{fill:#a51d24;stroke:#c1272d;}.cls-11,.cls-6{stroke-miterlimit:10;}.cls-7{fill:#fff;}.cls-8{fill:#1b2426;}.cls-9{fill:#434349;}.cls-10{fill:#efae8f;}.cls-11{fill:none;stroke:#b7b7b7;}.cls-12{fill:#011c29;}.cls-13{fill:#d19780;}</style></defs><title>icon</title><g id="图层_3" data-name="图层 3"><path class="cls-1" d="M66.61,188.28,0,224.51v71.07H196.49V226.71L131,188.28Z"/><rect class="cls-2" x="64.1" y="170.16" width="66.89" height="57.14"/><path class="cls-3" d="M64.1,225.21l66.9,3.32q-3,33.87-5.92,67.75H70Q67.06,260.75,64.1,225.21Z"/><polyline class="cls-4" points="63.41 194.33 31.72 230.26 47.38 241.93 27.87 264.93 32.05 294.19 27.87 294.19 23.69 262.14 42.5 245.42 28.57 228.69 63.41 190.37"/><polyline class="cls-4" points="131.69 195.73 161.71 231.66 146.88 243.33 165.36 266.32 161.4 295.58 165.36 295.58 169.32 263.53 151.5 246.81 164.7 230.09 131.69 191.76"/><path class="cls-5" d="M71.07,203.61a45.76,45.76,0,0,0,25.78,6.27c16.84-1,27.41-11.31,30-13.94l-6.27,31.36-39.71,3Z"/><path class="cls-6" d="M107.3,260.75H92Q86.4,244,80.83,227.3h37.62Q112.89,244,107.3,260.75Z"/><path class="cls-6" d="M118.45,294.89H80.83Q86.4,277.82,92,260.75H107.3Q112.88,277.82,118.45,294.89Z"/><path class="cls-7" d="M64.18,189.58a80.8,80.8,0,0,0-.58,40.68,77.84,77.84,0,0,0,6.45,16.93,36.06,36.06,0,0,1,13-15.63,35.41,35.41,0,0,1,11.68-5Q88.94,219.33,82.92,212,73.52,200.51,64.18,189.58Z"/><path class="cls-7" d="M131.05,188.3c-5.92,8.54-12.64,17.42-20.26,26.46q-5.25,6.23-10.45,11.84a51.7,51.7,0,0,1,24.38,19.51,91.2,91.2,0,0,0,7.67-26.47A91.61,91.61,0,0,0,131.05,188.3Z"/><path class="cls-2" d="M40.35,128.71,38.28,101c-1.75-.41-6.28-1.22-9.93,1.22-6.23,4.17-6.69,15.76-.88,21.94C32.08,129.05,39,128.78,40.35,128.71Z"/><path class="cls-5" d="M37.5,135.14a16.7,16.7,0,0,0,3.77-.45v-5.37a16.2,16.2,0,0,1-8.58-3.2c-7.95-6.2-8.79-20.7-3.37-24.1,3.8-2.39,10.07,1,12,2.1.22-3,.43-6,.65-9.05C40.59,94,31.31,86.79,24.56,89.85c-8.1,3.67-7.12,19.69-3.39,29.13C25.89,130.9,36.11,135.14,37.5,135.14Z"/><path class="cls-2" d="M156.93,129v-28.3c5.5-3.63,8.72-2.74,9.71-2.38,6.74,2.48,9.67,17.21,3,25.09C165.37,128.34,158.8,128.89,156.93,129Z"/><path class="cls-5" d="M158.76,134.91a16.58,16.58,0,0,1-3.82-.46V129a16.35,16.35,0,0,0,8.69-3.26c8-6.31,8.89-21.08,3.41-24.55-3.84-2.43-10.2,1.07-12.1,2.15l-.66-9.22c2.63-2.17,9.08-6.89,14.69-5,8.4,2.81,10.09,18.77,6.32,29.37C171.08,130.31,160.23,134.91,158.76,134.91Z"/><path class="cls-5" d="M160.36,110.91c-4.18,31.9-6.43,48-14.68,56.53-7.8,8-16.78,11.27-21.74,13.06-21.39,7.7-40.4,1.77-45.81,0-4.75-1.56-11.7-3.84-18.63-9.22-17-13.16-19.72-33.92-23.25-60.37-1.06-8-2-15.15-2.32-21.81-.59-12.11.8-22.52,6.93-33a59.57,59.57,0,0,1,13.2-15.36C58.52,36.84,73.37,24.43,96,23.79c19.9-.57,33.93,8.32,38.82,11.52A61.52,61.52,0,0,1,155,56.05c.46.81.94,1.69,1.42,2.74C164.31,76.12,161,106.13,160.36,110.91Z"/><ellipse class="cls-8" cx="70.76" cy="104.83" rx="3.49" ry="3.46"/><ellipse class="cls-8" cx="125.88" cy="104.06" rx="3.49" ry="3.46"/><path class="cls-9" d="M55.62,92.63c.54,1,4.79-2.11,11.59-1.15a52,52,0,0,1,7.56,1.8A44.65,44.65,0,0,0,80,94.67c2.77.56,4.82.73,5.5-.28s-.22-2.53-.42-2.9c-2.11-3.9-7.76-4.85-11.56-5.48-3.5-.58-5.71-1-8.58-.26C59.22,87.11,55.05,91.58,55.62,92.63Z"/><path class="cls-9" d="M141.37,92.63c-.4.72-3.06-1.14-8.11-1.15a33.81,33.81,0,0,0-10,1.82,38.67,38.67,0,0,1-4.91,1.37c-2.64.56-4.6.73-5.24-.28s.26-2.65.4-2.9c1.72-3.13,6-3.88,10.51-4.59s7.15-1.15,10.43,0C138.66,88.37,141.84,91.78,141.37,92.63Z"/><path class="cls-10" d="M79.68,139a26.52,26.52,0,0,0-4.78,4.18c-.63.69-1.21,1.39-1.74,2.09a58.38,58.38,0,0,0-.44,9.05,55.85,55.85,0,0,0,.44,5.57c-.08.68.15,1.27.43,1.39s.8-.34.84-1.17A50.23,50.23,0,0,1,74,155a51.9,51.9,0,0,1,.43-8.36,12.41,12.41,0,0,1,.87-2.09,6.4,6.4,0,0,1,4.35-3.48Z"/><path class="cls-10" d="M114.62,139a26.63,26.63,0,0,1,5,4.18c.65.69,1.25,1.39,1.8,2.09a55.85,55.85,0,0,1,.45,9.05,52.81,52.81,0,0,1-.45,5.57c.09.68-.15,1.27-.45,1.39s-.82-.34-.86-1.17a50,50,0,0,0,.41-5.09,49.43,49.43,0,0,0-.45-8.36,11.17,11.17,0,0,0-.9-2.09,6.59,6.59,0,0,0-4.51-3.48Z"/><rect class="cls-11" x="108.73" y="95.63" width="48.14" height="19.2" rx="2.34" ry="2.34"/><rect class="cls-11" x="45.07" y="95.63" width="48.14" height="19.2" rx="2.74" ry="2.74"/><rect class="cls-11" x="93.28" y="104.09" width="15.64" height="1.72"/><path class="cls-12" d="M161.29,92.55h0s2.58-10.21,3-11.84a68.84,68.84,0,0,0,.68-28.29c-4-19.51-19.05-31.55-21-33.06-16.84-13.1-36-13.22-50.21-13.31C79.86,6,59.46,5.82,43.56,19.21c-10.89,9.18-14.72,20.43-16.5,25.88a62.32,62.32,0,0,0,.13,38.2,21.06,21.06,0,0,1,3.75,6.28c1.6,4.26.84,6.82,3,9.76a11.4,11.4,0,0,0,4.5,3.49C35.78,90.53,38,82.36,40.66,77c3.85-7.59,8.05-9.41,10.46-17.4,2.75-9.13-2.15-16,.72-17.42C54,41.13,57,44.76,62.34,47.11c3.49,1.53,9.16,3,24.72,0,25.16-4.87,28-12.24,38.93-9.7,6,1.39,16.51,6.22,18,13.27.6,2.8.25,8.23,4.25,14.32l.18.28c.26.38.46.65.48.68a89.28,89.28,0,0,1,8.62,14A57.37,57.37,0,0,1,161.29,92.55Z"/><path class="cls-2" d="M109.2,150.69a47.71,47.71,0,0,1-24,0,1.22,1.22,0,0,1-.84-.35,1.2,1.2,0,0,1-.36-.84v-1a1.2,1.2,0,0,1,1.2-1.19h24a1.22,1.22,0,0,1,.84.35,1.19,1.19,0,0,1,.35.84v1A1.19,1.19,0,0,1,109.2,150.69Z"/><ellipse class="cls-13" cx="96.08" cy="123.73" rx="2.03" ry="1.94" transform="translate(-21.87 20.64) rotate(-11.02)"/><ellipse class="cls-13" cx="103.85" cy="123.73" rx="1.95" ry="2.02" transform="matrix(0.58, -0.81, 0.81, 0.58, -57.21, 136.06)"/></g></svg>