<svg xmlns="http://www.w3.org/2000/svg" viewBox="0 0 195.49 261.37"><defs><style>.cls-1{fill:#ededed;}.cls-2{fill:#eca68c;}.cls-3{fill:#9fa299;stroke:#dcd3d6;stroke-width:3px;}.cls-3,.cls-8{stroke-miterlimit:10;}.cls-4{fill:#c6ccce;}.cls-5{fill:#f4bf9b;}.cls-6{fill:#e99280;}.cls-7{fill:#011c29;}.cls-8{fill:none;stroke:#a8a8a8;}.cls-9{fill:#a8a8a8;}</style></defs><title>icon</title><g id="图层_3" data-name="图层 3"><polygon class="cls-1" points="68.46 188.67 0 209.39 0 260.23 195.49 261.37 195.49 209.39 138.21 188.67 68.46 188.67"/><path class="cls-2" d="M138.21,151.65v55.2c-7-.42-17.3,0-25.82,5.44-7.15,4.56-10.4,11-12.67,10.21-3.39-1.12,3.73-15.47-2.37-20.42-3.09-2.5-10.37-3.24-28.89,4.77v-55.2"/><polyline class="cls-1" points="195.49 209.39 138.21 188.67 68.46 188.67 0 209.39"/><line class="cls-1" y1="260.23" x2="195.49" y2="261.37"/><path class="cls-3" d="M109.11,241.7H93.78Q88.21,225,82.63,208.26h37.63Q114.68,225,109.11,241.7Z"/><path class="cls-4" d="M158.29,199.64l-45.11,38.11a31.08,31.08,0,0,0-.79-22.46,33.61,33.61,0,0,0-7.13-10.21,17.43,17.43,0,0,1,5.54.68c4.07,1.22,4.67,3.19,6.33,3.41,6.47.83,12.57-26.74,23-27.23"/><path class="cls-4" d="M140.09,181.94c2.29-.11,4.16,1.29,7.91,4.08a30,30,0,0,1,10.29,13.62"/><path class="cls-5" d="M137.72,172v35.36l-31.9-1-5.35-.17-29.31-.91V182.42"/><path class="cls-1" d="M138.5,177.86l-33.24,27.22a25.15,25.15,0,0,1,7.92,5.45,21.4,21.4,0,0,1,5.76,17l35.39-36.07L138.5,177.86"/><path class="cls-4" d="M57,185.34a7.86,7.86,0,0,1,4.51-1.29,7.48,7.48,0,0,1,6.57,4.7,1,1,0,0,1,.31-.32c1.59-1,5.53,3.28,12.36,7.12,4.94,2.78,10.16,4.65,15.83,8.85a4.4,4.4,0,0,1,.79.68c2.65,3.14-3.2,8.67-6.33,17a39.65,39.65,0,0,0-2.38,10.21c-3.26-.56-16.89-3.23-26.12-14.3C50.47,203.55,56.3,187.15,57,185.34Z"/><path class="cls-1" d="M68.06,177.86l29.29,26.92a22.26,22.26,0,0,0-7.12,3.7c-7.51,6-7.22,14.7-7.13,16.34-4-1.25-15.37-5.26-23.74-15.65A38.42,38.42,0,0,1,50.65,186l17.41-8.16"/><path class="cls-3" d="M120.26,262.37H82.63Q88.21,252,93.78,241.7h15.33Z"/><path class="cls-5" d="M157.88,81.32a16.26,16.26,0,0,0-2.18.39,20.54,20.54,0,0,0-2.06.65l6.91,9.22a15.49,15.49,0,0,1,4.74-1.15c1.62-.13,2.62-.21,3.45.3,2.58,1.58,1.92,7.84,1.84,8.59-1,9.23-10.29,15-13,16.55l.46,3.88a18.68,18.68,0,0,0,4.36,0c8.69-1,15.21-11.6,16.4-21.41.73-6,0-16.12-4.84-18.63C169.86,77.61,162.52,80.75,157.88,81.32Z"/><path class="cls-6" d="M154.09,86.23l3.47,29.64a17.09,17.09,0,0,0,12.06-7.25,21.37,21.37,0,0,0,3.16-11.06c.13-2.8.27-5.61-1-7.85C169.4,85.32,162.17,83.92,154.09,86.23Z"/><path class="cls-5" d="M46.38,83.39a21,21,0,0,1,2.21.44q1.08.28,2.1.66l-7.11,8.38a17.22,17.22,0,0,0-4.81-1.21c-1.64-.17-2.66-.28-3.51.17-2.64,1.4-2,7.25-1.94,8,.93,8.63,10.34,14.27,13.11,15.81l-.5,3.6a20.09,20.09,0,0,1-4.44-.11C32.66,117.87,26.12,107.82,25,98.64c-.69-5.59.14-15,5.08-17.21C34.22,79.58,41.66,82.73,46.38,83.39Z"/><path class="cls-6" d="M50.2,88.08l-3.77,27.51c-1.41-.2-8.11-1.28-12.21-7.12a18.79,18.79,0,0,1-3.12-10.4c-.12-2.61-.23-5.22,1-7.28C34.63,86.77,42,85.69,50.2,88.08Z"/><path class="cls-5" d="M146.68,163.06c-5.52,5.74-20,8.31-26,8.31h-33c-6,0-20.52.76-30-8.31-9.91-9.49-7.89-26.74-11.12-38.18a133.28,133.28,0,0,1-4.87-29.69c-.91-18.32-1.92-38.63,10.45-55C67.93,19.19,95,18.58,102,18.42c7.44-.17,34-.77,49.12,18.11,10.94,13.65,11,31.39,11.15,60.83a105.46,105.46,0,0,1-1.39,18.11,103.46,103.46,0,0,1-4.1,16.24"/><ellipse class="cls-7" cx="77.9" cy="95.92" rx="4.53" ry="4.45"/><path class="cls-7" d="M90.38,87.67c-5.64-1.1-9.62-1.88-11.7-2.3-5.3-1.05-7.28-1.45-10-1A17.52,17.52,0,0,0,60.84,88a24.73,24.73,0,0,1,2.84-4.58c1.71-2.16,3.81-4.83,7-6,1.77-.64,6,.57,14.5,3,2.3.67,4.32,1.29,5.2,3.12A5.58,5.58,0,0,1,90.38,87.67Z"/><rect class="cls-6" x="97.04" y="97.76" width="11.44" height="21.6" rx="3.81" ry="3.81"/><ellipse class="cls-7" cx="125.67" cy="95.74" rx="4.53" ry="4.63"/><path class="cls-7" d="M113.17,87.67c5.26-1.1,9-1.88,10.9-2.3,4.94-1.05,6.78-1.45,9.31-1a15.82,15.82,0,0,1,7.3,3.58A24.68,24.68,0,0,0,138,83.37c-1.59-2.16-3.55-4.83-6.52-6-1.65-.64-5.62.57-13.5,3-2.15.67-4,1.29-4.85,3.12A6,6,0,0,0,113.17,87.67Z"/><path d="M165.54,81.81c1.46-6.18,11.55-28.28,2.26-48.05C154.79,6.1,149.28,2.69,141.4,1.6c0,0-45.5-1.83-60.24,4.92C76,8.87,73.4,10.07,71,13.16c-1.48,1.9-2.12,3.54-4.06,4.43-3.07,1.41-5.75-.72-8.14-1.1-7.11-1.15-15.72,12.57-19.32,22.14-7,18.61-.78,36.79,1.5,42.66l9.69,4.95a44.86,44.86,0,0,1,2-16.61c1.9-5.76,4.06-7.93,5.08-13.29a29.82,29.82,0,0,0-1-14.39C58.6,38,62,32.12,67.94,29.77c11.31-4.49,21.55,7.85,40.67,14.4,7.63,2.61,19.46,5.25,35.58,3.32-2.08,18.93.07,25.14,3.05,26.57,1.55.74,3.7.38,5.09,2.21,1.66,2.2,1,5.88,0,8.86Z"/><path class="cls-6" d="M116.87,129.37a38.1,38.1,0,0,1-30.66,0V133a32.9,32.9,0,0,0,30.66,0Z"/><rect class="cls-8" x="53.9" y="88.88" width="43.2" height="20.73" rx="6.15" ry="6.15"/><rect class="cls-8" x="109.31" y="89.2" width="43.2" height="20.73" rx="6.15" ry="6.15"/><rect class="cls-9" x="96.87" y="95.08" width="11.96" height="3.03"/></g></svg>