<svg xmlns="http://www.w3.org/2000/svg" viewBox="0 0 176 248"><defs><style>.cls-1{fill:#fff;}.cls-2{fill:#e99280;}.cls-3{fill:#261a14;}.cls-4{fill:#f9d2b9;}.cls-5{fill:#1b2426;}.cls-6{fill:#1a120d;}.cls-7{fill:#eca68c;}.cls-8,.cls-9{fill:#33231a;}.cls-9{stroke:#543d2d;stroke-miterlimit:10;}.cls-10{fill:#e97c80;}.cls-11{fill:#efae8f;}.cls-12{fill:#e7f1f7;}</style></defs><title>icon</title><g id="图层_3" data-name="图层 3"><polygon class="cls-1" points="68.04 165.29 9.32 189.99 9.32 250.56 177 251.92 177 189.99 127.87 165.29 68.04 165.29"/><path class="cls-2" d="M127.87,197.47c-6-.41-14.84,0-22.15,5.45-6.13,4.56-8.92,11-10.86,10.21-2.91-1.12,3.19-15.48-2-20.42-2.65-2.51-8.9-3.25-24.78,4.76v-55.2h59.83Z"/><path class="cls-3" d="M173,88c5,3.42-2.82,10-2.23,12.57.94,4.06-1,5.89-1,14.56,0,4.42.45,4.74,0,7.28-.88,5-3.51,8-5.2,10.4a44.86,44.86,0,0,0-7.28,17.67,11,11,0,0,1-6.24,6.24,10.73,10.73,0,0,1-7.28,0c0,.23-.39-1-3.73.28s-9.15,4.57-10.83-1.32c6.1-12.53,5.74-18.58,12.83-31.68C146.83,115.06,159,87,173,88Z"/><path class="cls-2" d="M45.79,112.49,43.93,87.36c-1.56-.38-5.64-1.11-8.9,1.09-5.6,3.79-6,14.31-.8,19.9C38.37,112.8,44.59,112.56,45.79,112.49Z"/><path class="cls-4" d="M43.23,118.33a14.57,14.57,0,0,0,3.39-.41v-4.87a14.45,14.45,0,0,1-7.7-2.9c-7.13-5.63-7.89-18.78-3-21.87,3.41-2.16,9,1,10.73,1.91.19-2.73.39-5.47.58-8.21-1.19-1-9.52-7.51-15.58-4.73-7.27,3.33-6.39,17.86-3,26.42C32.81,114.48,42,118.33,43.23,118.33Z"/><path class="cls-2" d="M150.41,112.74V87.07c4.94-3.3,7.83-2.49,8.72-2.16,6.05,2.25,8.67,15.61,2.65,22.76C158,112.16,152.1,112.66,150.41,112.74Z"/><path class="cls-4" d="M152.05,118.12a14.83,14.83,0,0,1-3.42-.42v-5a14.57,14.57,0,0,0,7.8-2.95c7.22-5.73,8-19.13,3.06-22.27-3.45-2.21-9.15,1-10.86,1.94-.2-2.78-.39-5.57-.59-8.36,2.36-2,8.15-6.25,13.18-4.55,7.54,2.54,9.06,17,5.67,26.64C163.11,114,153.38,118.12,152.05,118.12Z"/><path class="cls-4" d="M153.49,96.35c-3.56,25.12-5.34,37.68-15,48.94a64.9,64.9,0,0,1-17.72,14.18c-7.34,4-13.11,6.6-20.76,6.61-6.66,0-11.54-2.14-20.8-6.24l-.41-.18A52.92,52.92,0,0,1,63.65,148.4C60.78,145.31,47,128.57,42.11,96.35,39.5,79.18,37,62.59,46.25,46.59A54,54,0,0,1,58.1,32.65c4-3.48,17.33-14.74,37.62-15.33a59.45,59.45,0,0,1,34.84,10.46,55.48,55.48,0,0,1,18.12,18.81c.42.73.85,1.53,1.28,2.48C157.32,65.4,153.89,93.51,153.49,96.35Z"/><ellipse class="cls-5" cx="72.6" cy="95.61" rx="4.65" ry="3.12"/><path class="cls-6" d="M59.55,89c.74.51,2.9-4.13,8.12-5.61a21.42,21.42,0,0,1,8.71-.27c.22.05,1.28.29,2.76.5.59.09,1.25.16,2,.23C82.94,84,85.9,83.67,86,83c.15-1-5.65-3.5-11.93-3.68-2.94-.08-8.42-.24-12,3.48C59.8,85.23,59,88.56,59.55,89Z"/><rect class="cls-7" x="93.81" y="101.61" width="7.74" height="20.8" rx="3.3" ry="3.3"/><ellipse class="cls-5" cx="121.4" cy="95.61" rx="4.65" ry="3.12"/><path class="cls-8" d="M116,39c3.28,4,1.89,8.41,9,15,11.72,10.86,7.41,17.19,14.57,25.77a65.58,65.58,0,0,1,12.48,23.92,13,13,0,0,0,5.2-3.12c3.42-3.45,2.95-7.29,6.24-9.36,1-.64,6.93-3.43,9.51-3.21.34-12.49-6.42-19.92-8.47-25.91-7.87-23-9.33-38-35.53-43.09-5.6-1.09-5.84,1.88-9,2C120.69,31.4,115.31,28.6,116,39Z"/><path class="cls-9" d="M32.46,158.88c-1.55-4.46-2.39-4-3.12-7.28s.18-3.69-.41-7.26c-.85-5.19-3-5.08-3.75-10.41-.35-2.33-.15-3.66-1-6.24-.76-2.19-5.81-1.17-6.14-1.69-3.51-5.49-12-19.53-11-30,.83-8.42,7.34-12.43,14-29,4.18-10.4,11.9-14.79,13.54-19.39,3.35-9.45,12.87-15.92,31.19-29.12C71.83,14.1,77.65,13.7,85,12c5.12-1.18,32,8.83,35,9,.69,10.4-4.69,7.6-4,18-4.22,3.51-27.61,9-35.71,14.85-19.94,14.48-22.1,12.93-26,18.72-10.09,15-3.44,37.1,1,52,1.58,5.24,2.57,8.54,5.2,12.48,3.22,4.81,6,6.23,7.28,10.39S65.22,150.07,64,153c-2.23,2.86-3.22,4.87-8,6-4.16,1-12.26.4-15,2"/><path class="cls-3" d="M135.23,89.05c-.75.52-3-4.07-8.45-5.5a22.78,22.78,0,0,0-9-.19c-.23,0-1.33.3-2.85.52-.6.09-1.27.17-2,.24-1.86.18-4.91-.11-5-.76-.18-1,5.75-3.52,12.21-3.75,3-.11,8.67-.32,12.4,3.35C134.92,85.33,135.85,88.63,135.23,89.05Z"/><rect class="cls-10" x="85.53" y="127.77" width="28.08" height="3.12"/><path class="cls-11" d="M85,115.77A26.21,26.21,0,0,0,80.21,120c-.63.69-1.2,1.39-1.74,2.09a58.39,58.39,0,0,0-.43,9c.06,2.08.23,3.94.43,5.57a1.43,1.43,0,0,0,.44,1.39c.33.14.79-.34.84-1.18a49.54,49.54,0,0,1-.41-5.09,51.63,51.63,0,0,1,.44-8.35,11,11,0,0,1,.87-2.09A6.38,6.38,0,0,1,85,117.86Z"/><path class="cls-11" d="M113,115.77a27,27,0,0,1,5,4.18c.65.69,1.25,1.39,1.8,2.09a56.26,56.26,0,0,1,0,14.62c.08.67-.16,1.27-.45,1.39s-.82-.34-.87-1.18a49.32,49.32,0,0,0,.42-5.09,50.37,50.37,0,0,0-.45-8.35,11.17,11.17,0,0,0-.9-2.09,6.61,6.61,0,0,0-4.51-3.48Z"/><path class="cls-12" d="M106.4,225.38a35.89,35.89,0,0,0-.68-22.46,34.16,34.16,0,0,0-6.11-10.21,12.76,12.76,0,0,1,4.75.68c3.49,1.21,4,3.19,5.43,3.4,5.55.84,10.78-26.73,19.69-27.22,2-.11,3.57,1.29,6.79,4.08a30.29,30.29,0,0,1,8.82,13.61Z"/><path class="cls-12" d="M58.2,173a5.92,5.92,0,0,1,3.86-1.29,6.58,6.58,0,0,1,5.64,4.69,1,1,0,0,1,.26-.31c1.37-1,4.75,3.28,10.6,7.12,4.24,2.78,8.72,4.64,13.58,8.85a3.85,3.85,0,0,1,.68.68c2.27,3.13-2.74,8.67-5.43,17a45.6,45.6,0,0,0-2,10.21A36.79,36.79,0,0,1,63,205.64C52.61,191.17,57.61,174.78,58.2,173Z"/><path class="cls-1" d="M128.12,165.48,99.61,192.71a21.74,21.74,0,0,1,6.79,5.44c5.59,6.79,5.13,14.9,4.94,17L141.7,179.1Z"/><path class="cls-1" d="M67.7,165.48l25.12,26.93a18.17,18.17,0,0,0-6.11,3.7c-6.44,5.95-6.19,14.69-6.11,16.33a42.07,42.07,0,0,1-27.84-38.79Z"/></g></svg>