<svg xmlns="http://www.w3.org/2000/svg" viewBox="0 0 176.5 257"><defs><style>.cls-1{fill:#3b465e;}.cls-2{fill:#f4bf9b;}.cls-3{fill:#e99280;}.cls-4{fill:#5a73ab;}.cls-5{fill:#011c29;}.cls-6{fill:#eca68c;}.cls-7{fill:none;stroke:#a8a8a8;stroke-miterlimit:10;}.cls-8{fill:#a8a8a8;}</style></defs><title>icon</title><g id="图层_3" data-name="图层 3"><polygon class="cls-1" points="57.68 183.44 -9.49 205.56 -9.41 259.56 182.5 260.47 182.42 205.25 126.16 183.33 57.68 183.44"/><path class="cls-2" d="M125,220.45c-7-.47-17.12,0-25.55,6.46C92.36,232.3,89.15,239.84,86.91,239c-3.36-1.31,3.65-18.25-2.39-24.07-3.06-2.94-10.27-3.8-28.58,5.66l-.1-65.05,69-.11Z"/><path class="cls-3" d="M55.09,179.86a46.41,46.41,0,0,0,20,11.79c25.44,7.06,47-12.4,49-14.3q.12-7.72.26-15.46L54.68,162Z"/><path d="M99.46,250.18a43.15,43.15,0,0,0-.83-26.47,40.21,40.21,0,0,0-7.06-12,14.57,14.57,0,0,1,5.48.8c4,1.42,4.62,3.75,6.27,4,6.4,1,12.39-31.53,22.67-32.13,3-.17,6.35,3.33,7.84,4.8a20.69,20.69,0,0,1,4.71,7.22,79.51,79.51,0,0,1-9.36,24.88A78.84,78.84,0,0,1,99.46,250.18Z"/><path class="cls-4" d="M125.49,175.53,91.57,211.68a22.9,22.9,0,0,1,9.41,7.21c6.28,8.15,5.49,18.07,5.29,20.05A189.16,189.16,0,0,0,122,221.26a199.8,199.8,0,0,0,16.59-24.89,39.14,39.14,0,0,0-5.08-12A35.32,35.32,0,0,0,125.49,175.53Z"/><path d="M45.32,190.1a6.83,6.83,0,0,1,4.46-1.53c2.84.14,5.43,2.32,6.51,5.52a1.19,1.19,0,0,1,.3-.37c1.58-1.16,5.49,3.86,12.25,8.37,4.89,3.27,10.06,5.46,15.68,10.41a4,4,0,0,1,.78.8c2.63,3.69-3.14,10.22-6.23,20.06a55.38,55.38,0,0,0-2.34,12,42.27,42.27,0,0,1-25.87-16.81C38.91,211.57,44.65,192.23,45.32,190.1Z"/><path class="cls-4" d="M55.48,175.64,85.3,213.3a18.48,18.48,0,0,0-9.39,4c-7.28,6-7.07,15.62-7,16.86a55.26,55.26,0,0,1-23.52-18.41,56.4,56.4,0,0,1-9.43-20.84,38.77,38.77,0,0,1,8.59-12.05A37.91,37.91,0,0,1,55.48,175.64Z"/><path class="cls-2" d="M26.37,86a24.32,24.32,0,0,1,4.78,1.1l-.54,3.59c-9.87.49-17.76,5.14-18.76,11.7s5.22,13,14.57,15.81l-.55,3.6a24.84,24.84,0,0,1-4.94-.11C9.3,120.29,1.08,111.13,2.58,101.28S14.73,84.6,26.37,86Z"/><path class="cls-3" d="M30.61,90.72l-4.19,27.51c-9.35-2.86-15.57-9.25-14.57-15.81S20.74,91.21,30.61,90.72Z"/><path class="cls-2" d="M153.73,85.39a23.51,23.51,0,0,0-4.79.51v3.64c9.47,1.7,16.42,7.31,16.42,14s-7,12.26-16.42,14v3.66a23.51,23.51,0,0,0,4.79.49c11.47,0,20.77-8.11,20.77-18.11S165.2,85.39,153.73,85.39Z"/><path class="cls-3" d="M148.94,89.54v27.93c9.47-1.7,16.42-7.3,16.42-14S158.41,91.24,148.94,89.54Z"/><path class="cls-2" d="M155.14,102.81a87.67,87.67,0,0,1-1.55,17.42A89.26,89.26,0,0,1,149,135.85c-.29.71-.9,2.27-1.65,3.89-2,4.35-5.82,12.55-13.94,18.81-2.18,1.68-6.1,3.68-13.94,7.67-5.26,2.68-7.9,4-10.07,4.87-17.3,6.86-35.14,2-37.17,1.4a84.67,84.67,0,0,1-10.85-4.18A128.52,128.52,0,0,1,45.16,160c-12.32-8-17-24.24-18.59-30.66a112.93,112.93,0,0,1-5.42-28.57c-1-17.63-2.13-37.17,11.62-53C50.32,27.6,80.41,27,88.14,26.86c8.28-.16,37.79-.74,54.61,17.42C154.91,57.41,155,74.48,155.14,102.81Z"/><ellipse class="cls-5" cx="57.94" cy="99.33" rx="5.03" ry="4.18"/><path class="cls-5" d="M71.49,85.39C65.5,77.83,55.92,75,49,77.73a14.8,14.8,0,0,0-7.74,7.66c-2.16-1-2.85-2-3.1-2.79-1.11-3.34,4-7.95,8.52-9.75,11.43-4.59,28.57,5.05,27.88,9.75C74.4,83.9,72.84,84.81,71.49,85.39Z"/><path class="cls-5" d="M104.05,85.39c6-7.56,15.49-10.42,22.34-7.66a14.8,14.8,0,0,1,7.7,7.66c2.14-1,2.83-2,3.08-2.79,1.11-3.34-4-7.95-8.47-9.75C117.33,68.26,100.27,77.9,101,82.6,101.15,83.9,102.7,84.81,104.05,85.39Z"/><rect class="cls-6" x="81.56" y="105.6" width="13.17" height="21.6" rx="5.5" ry="5.5"/><path class="cls-3" d="M104,147.4a38.65,38.65,0,0,0-19.77-4,39.09,39.09,0,0,0-14.31,4v-5.09a31.7,31.7,0,0,1,13-5.09c9.84-1.37,17.53,2.81,21,5.09Z"/><ellipse class="cls-5" cx="119.12" cy="97.93" rx="5.03" ry="4.18"/><polygon class="cls-6" points="60.3 141.13 58.29 140.09 74.17 115.35 76.18 116.39 60.3 141.13"/><polygon class="cls-6" points="116.22 139.74 114.26 140.86 97.24 116.74 99.2 115.62 116.22 139.74"/><path class="cls-5" d="M150.52,88.11l10.56-3.87c1.65-5.8-3.68-22.3-5.58-33.19-1.11-6.36-4.39-12.57-18-24C118.81,11.4,98.85,10.85,83.78,11.21,68.55,11.58,54,12.66,37.5,26.07c-14.73,12-16.06,18.22-17,25-1.55,11.11-8,29.47-6.11,35.21L25.6,89.69A28.7,28.7,0,0,1,30,71.83c2.78-4.32,4.71-4.77,8.37-9.62,8.13-10.77,4.43-16.2,9.54-19.27,8.32-5,20,8.26,40.85,7.84S120,36.55,129.5,41.25c4.77,2.34,2.35,5.85,10.87,16.43,5.68,7.05,8.6,7.78,10.84,12.57C154,76.24,152.91,82.53,150.52,88.11Z"/><rect class="cls-7" x="38.72" y="88.51" width="43.2" height="20.73" rx="6.15" ry="6.15"/><rect class="cls-7" x="94.13" y="88.83" width="43.2" height="20.73" rx="6.15" ry="6.15"/><rect class="cls-8" x="81.68" y="94.71" width="11.96" height="3.03"/></g></svg>