<svg xmlns="http://www.w3.org/2000/svg" viewBox="0 0 196.49 287.23"><defs><style>.cls-1{fill:#2b1d33;}.cls-2{fill:#e99280;}.cls-3{fill:#c5cad8;}.cls-4{fill:#18151e;}.cls-5{fill:#f4bf9b;}.cls-6{fill:#a51d24;stroke:#c1272d;stroke-miterlimit:10;}.cls-7{fill:#fff;}.cls-8{fill:#1b2426;}.cls-9{fill:#efae8f;}.cls-10{fill:#434349;}</style></defs><title>icon</title><g id="图层_3" data-name="图层 3"><path class="cls-1" d="M66.61,179.92,0,216.16v71.07H196.49V218.35L131,179.92Z"/><rect class="cls-2" x="64.1" y="161.81" width="66.89" height="57.14"/><path class="cls-3" d="M64.1,216.85l66.9,3.32q-3,33.89-5.92,67.75H70Q67.06,252.39,64.1,216.85Z"/><polyline class="cls-4" points="63.41 185.97 31.72 221.91 47.38 233.57 27.87 256.57 32.05 285.83 27.87 285.83 23.69 253.78 42.5 237.06 28.57 220.34 63.41 182.01"/><polyline class="cls-4" points="131.69 187.37 161.71 223.3 146.88 234.97 165.36 257.96 161.4 287.23 165.36 287.23 169.32 255.18 151.5 238.45 164.7 221.73 131.69 183.41"/><path class="cls-5" d="M71.07,195.25a45.68,45.68,0,0,0,25.78,6.27c16.84-1,27.41-11.31,30-13.93l-6.27,31.35-39.71,3Z"/><path class="cls-6" d="M107.3,252.39H92q-5.58-16.72-11.15-33.45h37.62Q112.89,235.67,107.3,252.39Z"/><path class="cls-6" d="M118.45,286.53H80.83Q86.4,269.46,92,252.39H107.3Q112.88,269.46,118.45,286.53Z"/><path class="cls-7" d="M64.18,181.22a80.81,80.81,0,0,0-.58,40.68,77.64,77.64,0,0,0,6.45,16.93,36.06,36.06,0,0,1,13-15.63,35.14,35.14,0,0,1,11.68-4.95Q88.94,211,82.92,203.61,73.52,192.15,64.18,181.22Z"/><path class="cls-7" d="M131.05,179.94c-5.92,8.54-12.64,17.43-20.26,26.46q-5.25,6.22-10.45,11.85a51.53,51.53,0,0,1,24.38,19.51,91.17,91.17,0,0,0,6.33-57.82Z"/><path class="cls-2" d="M43.44,133.65l-1.86-25.14c-1.57-.37-5.64-1.11-8.91,1.1-5.59,3.78-6,14.3-.79,19.9C36,134,42.23,133.71,43.44,133.65Z"/><path class="cls-5" d="M40.88,139.48a14.55,14.55,0,0,0,3.38-.41V134.2a14.47,14.47,0,0,1-7.7-2.9c-7.13-5.62-7.88-18.78-3-21.86,3.4-2.17,9,1,10.72,1.9.19-2.73.39-5.47.59-8.2-1.2-1-9.53-7.52-15.59-4.74-7.26,3.33-6.39,17.86-3,26.43C30.45,135.64,39.63,139.48,40.88,139.48Z"/><path class="cls-2" d="M148.06,133.9V108.23c4.93-3.3,7.83-2.5,8.72-2.17,6,2.25,8.67,15.61,2.64,22.76C155.64,133.32,149.74,133.81,148.06,133.9Z"/><path class="cls-5" d="M149.7,139.27a14.3,14.3,0,0,1-3.42-.42V133.9a14.66,14.66,0,0,0,7.79-3c7.22-5.73,8-19.12,3.06-22.27-3.45-2.2-9.15,1-10.85,1.94l-.6-8.35c2.36-2,8.15-6.26,13.19-4.56,7.54,2.55,9,17,5.67,26.64C160.76,135.1,151,139.27,149.7,139.27Z"/><path class="cls-5" d="M151.13,117.5c-3.74,28.94-5.76,43.56-13.17,51.27-7,7.29-15.06,10.23-19.51,11.85-19.19,7-36.25,1.61-41.11,0a51.72,51.72,0,0,1-16.72-8.36c-15.21-11.93-17.69-30.77-20.86-54.76-2.7-20.41-4.39-35,4.14-49.76A53.71,53.71,0,0,1,55.74,53.81c4-3.49,17.33-14.75,37.63-15.33C111.23,38,123.82,46,128.21,48.93a55.48,55.48,0,0,1,18.11,18.81c.42.73.85,1.54,1.28,2.48C154.69,85.94,151.7,113.17,151.13,117.5Z"/><circle class="cls-8" cx="70.72" cy="111.99" r="3.14"/><circle class="cls-8" cx="120.2" cy="111.29" r="3.14"/><ellipse class="cls-9" cx="92.56" cy="135.48" rx="1.82" ry="1.76" transform="translate(-31.3 27.86) rotate(-14.67)"/><ellipse class="cls-9" cx="99.52" cy="135.48" rx="1.76" ry="1.82" transform="translate(-66.65 110.06) rotate(-45)"/><path class="cls-10" d="M44.59,103.28l-7-4.48a29.56,29.56,0,0,1-3.43-14.34c.47-17.34,17.23-27.18,18.58-27.94-6.81,6.27-8.5,11.7-8.82,15.4-.55,6.24,2.56,9.64,2.78,18.12A37.32,37.32,0,0,1,44.59,103.28Z"/><path class="cls-10" d="M148,106.08l5.7-4.6a34.63,34.63,0,0,0,2.49-14.37c-.77-17.31-14.82-26.81-15.95-27.55,5.76,6.14,7.27,11.52,7.63,15.21C148.44,81,146,84.44,146,92.9A45.15,45.15,0,0,0,148,106.08Z"/><path class="cls-2" d="M105.65,148.66a40.2,40.2,0,0,1-20.33,0,1,1,0,0,1-1-1v-.86a1,1,0,0,1,1-1,25.65,25.65,0,0,0,20.33,0,1,1,0,0,1,.72.3,1,1,0,0,1,.29.71v.86A1,1,0,0,1,105.65,148.66Z"/><path class="cls-10" d="M57.83,102.58c.88.87,3.78-3.55,9.06-3.48,3.66,0,4.78,2.19,12.08,3.67,2.49.51,4.33.66,4.94-.25s-.2-2.3-.38-2.63c-1-1.83-2.9-3.06-10.37-5-4.64-1.2-7-1.78-8.36-1.4C59.67,95,56.84,101.59,57.83,102.58Z"/><path class="cls-10" d="M133.59,102.58c-.83.87-3.6-3.55-8.64-3.48-3.5,0-4.57,2.19-11.54,3.67-2.37.51-4.13.66-4.71-.25s.19-2.3.36-2.63c.94-1.83,2.77-3.06,9.9-5,4.43-1.2,6.67-1.78,8-1.4C131.84,95,134.54,101.59,133.59,102.58Z"/><path class="cls-2" d="M77.67,120.41a23.4,23.4,0,0,1-9.1,4.44,24.53,24.53,0,0,1-5.54.66l-.13-1.29a29.41,29.41,0,0,0,7.95-1.88,28,28,0,0,0,7.25-4.2C78,118.9,77.82,119.65,77.67,120.41Z"/><path class="cls-2" d="M114.91,120.19a20.84,20.84,0,0,0,8.62,3.49,16.1,16.1,0,0,0,4.67,0l-.24-1.35a21.25,21.25,0,0,1-7-1,26.52,26.52,0,0,1-7-3.47C114.27,118.65,114.59,119.42,114.91,120.19Z"/><path class="cls-9" d="M78.74,143a24,24,0,0,0-4.3,3.79c-.56.63-1.08,1.27-1.56,1.9a53.3,53.3,0,0,0-.39,8.21,49.82,49.82,0,0,0,.39,5.05,1.31,1.31,0,0,0,.39,1.26c.3.13.71-.31.75-1.06-.17-1.34-.31-2.89-.36-4.62a47.45,47.45,0,0,1,.39-7.58,9.83,9.83,0,0,1,.78-1.89,5.71,5.71,0,0,1,3.91-3.16Z"/><path class="cls-9" d="M110.09,143a24.38,24.38,0,0,1,4.45,3.79c.59.63,1.12,1.27,1.62,1.9a51.92,51.92,0,0,1,.4,8.21,49.61,49.61,0,0,1-.4,5.05c.07.61-.14,1.15-.41,1.26s-.74-.31-.78-1.06a44.21,44.21,0,0,0,.38-4.62,46.17,46.17,0,0,0-.4-7.58,10,10,0,0,0-.81-1.89,5.91,5.91,0,0,0-4-3.16Z"/></g></svg>