<svg xmlns="http://www.w3.org/2000/svg" viewBox="0 0 175.75 292.41"><defs><style>.cls-1,.cls-5{fill:#8bb5ff;}.cls-2{fill:#f4bf9b;}.cls-3{fill:#e99280;}.cls-4{fill:#2e80ff;}.cls-5{stroke:#73a3ff;stroke-miterlimit:10;}.cls-6{fill:#011c29;}.cls-7{fill:#eca68c;}</style></defs><title>icon</title><g id="图层_3" data-name="图层 3"><polygon class="cls-1" points="61.55 220.43 0 240.95 0 291.28 175.75 292.41 175.75 240.95 124.26 220.43 61.55 220.43"/><path class="cls-2" d="M123.12,255c-6.37-.45-15.68,0-23.41,6-6.48,5-9.42,12-11.47,11.22-3.08-1.23,3.37-17-2.16-22.43-2.8-2.75-9.4-3.57-26.18,5.23V194.4h63.22Z"/><path class="cls-3" d="M59.18,217.09a42.41,42.41,0,0,0,18.29,11c23.3,6.6,43.06-11.5,44.94-13.27q.12-7.2.26-14.4H58.82Z"/><path class="cls-4" d="M99.71,282.69A40.8,40.8,0,0,0,99,258a37.71,37.71,0,0,0-6.46-11.21,13.17,13.17,0,0,1,5,.74c3.69,1.34,4.23,3.51,5.74,3.74,5.86.92,11.39-29.37,20.8-29.9,2.75-.16,5.81,3.11,7.18,4.48a19.49,19.49,0,0,1,4.3,6.73A74.83,74.83,0,0,1,127,255.78,72.64,72.64,0,0,1,99.71,282.69Z"/><path class="cls-1" d="M123.66,213.16,92.54,246.81a20.82,20.82,0,0,1,8.61,6.73c5.74,7.6,5,16.84,4.82,18.69a176.37,176.37,0,0,0,14.38-16.45,185.17,185.17,0,0,0,15.23-23.18A36.84,36.84,0,0,0,131,221.39,32.92,32.92,0,0,0,123.66,213.16Z"/><path class="cls-4" d="M50.22,226.62a6.17,6.17,0,0,1,4.08-1.42c2.6.14,5,2.18,6,5.16a.84.84,0,0,1,.28-.34c1.44-1.08,5,3.6,11.2,7.82,4.48,3,9.2,5.1,14.34,9.71a4.6,4.6,0,0,1,.72.75c2.4,3.44-2.89,9.53-5.74,18.69a52,52,0,0,0-2.15,11.22,38.66,38.66,0,0,1-23.67-15.7C44.32,246.62,49.6,228.61,50.22,226.62Z"/><path class="cls-5" d="M59.54,213.16,86.8,248.3A16.87,16.87,0,0,0,78.19,252c-6.67,5.6-6.5,14.55-6.45,15.7a50.65,50.65,0,0,1-21.52-17.19,53.11,53.11,0,0,1-8.61-19.44,36.23,36.23,0,0,1,7.89-11.22A34.73,34.73,0,0,1,59.54,213.16Z"/><path class="cls-2" d="M33.53,118.15c1.19.18,2.27.47,2.27.47h0a21.83,21.83,0,0,1,2.16.71l-.51,3.86c-9.13.52-16.44,5.51-17.37,12.55s4.83,13.9,13.5,17q.06,5.94.14,11.87a24,24,0,0,1-12.2-5.24c-8.95-7.52-9-20.08-9-26.49a50.68,50.68,0,0,1,2.08-14.56C25,118,32.67,118,33.53,118.15Z"/><path class="cls-3" d="M37.45,123.19,33.58,152.7a19.72,19.72,0,0,1-10.7-7.38c-1.2-1.71-3.49-4.94-3.12-9.36a13.21,13.21,0,0,1,3.91-8C28.82,122.57,36.24,123.08,37.45,123.19Z"/><path class="cls-2" d="M151.5,114.34l-2.26.15h0a19.49,19.49,0,0,0-2.18.4l4.3,6.93c5.58,2,9.49,6.82,9.83,12.06.46,7-5.55,14.08-14.13,14.86v13.45a28.16,28.16,0,0,0,21.41-29.35,30.07,30.07,0,0,0-6.24-16.64C155.48,114.61,152.67,114.27,151.5,114.34Z"/><path class="cls-3" d="M148.49,121.07v29.16c9.91-2.78,15-12.27,12.7-19.47C159.61,125.75,154.55,122,148.49,121.07Z"/><path class="cls-2" d="M152.8,136.16c-.5,8.78-2.15,18.69-2.15,18.69-1.53,9.09-2.4,14.32-5,20.93-2.48,6.25-5.8,13.83-12.91,20.19-2,1.8-5.65,3.94-12.91,8.22-4.88,2.88-7.32,4.31-9.33,5.23-16,7.36-32.55,2.13-34.43,1.5a70.21,70.21,0,0,1-10-4.49,111.31,111.31,0,0,1-15.07-9c-11.41-8.61-15.78-26-17.21-32.89a138.58,138.58,0,0,1-5-30.66C27.76,115,26.72,94,39.45,77.09c16.26-21.63,44.13-22.26,51.3-22.43,7.66-.17,35-.8,50.57,18.69C155.22,90.75,154,115.45,152.8,136.16Z"/><path class="cls-6" d="M69.18,130.92c.72,1.67-.88,4-2.62,5-2.7,1.57-6.84.66-7.47-1.3-.56-1.7,1.57-4.17,3.87-5S68.38,129.08,69.18,130.92Z"/><rect class="cls-7" x="87.52" y="135.41" width="7.89" height="22.39" rx="3.69" ry="3.69"/><path class="cls-6" d="M124.13,134.74c-.56,1.9-3.46,2.73-5.57,2.26-3-.67-5.37-4.22-4.46-6.16.8-1.69,4-2.05,6.24-1.18C122.41,130.46,124.73,132.73,124.13,134.74Z"/><path class="cls-6" d="M66.56,116.2c-3.45-1.21-5.19-1.81-7.48-1.51-4.93.65-7.77,4.86-10.2,3.59a2.63,2.63,0,0,1-1-1A10.55,10.55,0,0,1,51,111c5.18-4.68,14.42-1.26,17.4-.16A29.7,29.7,0,0,1,78,116.72a4,4,0,0,1-1.84,2.72C74.05,120.48,71.78,118,66.56,116.2Z"/><path class="cls-3" d="M106.08,167.34q-7.12-.18-14.56-.18-7.18,0-14.06.18a2.66,2.66,0,0,0-1.88.81,2.85,2.85,0,0,0-.78,2h0a2.73,2.73,0,0,0,2.66,2.78,66.81,66.81,0,0,0,28.62,0,2.64,2.64,0,0,0,1.88-.82,2.82,2.82,0,0,0,.78-2c-.19-.64-.39-1.27-.58-1.91Z"/><path class="cls-6" d="M46.8,69.4c-6.19-12.39-6-25.95,1-34.32,8.84-10.53,25-8.76,29.12-8.32,14.22,1.56,16.15,9.15,35.36,13.52,11.92,2.72,12.4.07,20.79,3.12,2.13.78,21,8,27,25,2.2,6.2.72,8.16,1,28.08.16,9.81.66,17.78,1,22.88l-15.6-1c.47-9-1.92-14.4-4.16-17.68-3.78-5.54-7.87-6-13.52-12.48-6-6.89-3.8-9.69-8.31-14.56-7.44-8-19.66-8.22-26-8.32-10.52-.16-13.3,2.82-27,4.16A107.06,107.06,0,0,1,46.8,69.4Z"/><path class="cls-6" d="M47.84,59a26.36,26.36,0,0,0-12.48-4.16C21.65,54,12.54,64.92,11.44,66.28A95.1,95.1,0,0,0,9.36,82.92a98.6,98.6,0,0,0,7.28,40.56H33.17c-1.44-13.59,1.3-22.94,4.27-29.12,6.07-12.67,17-20.11,14.56-29.12A12.81,12.81,0,0,0,47.84,59Z"/><path class="cls-6" d="M116.74,116.47c3.42-1.39,5.14-2.1,7.48-1.89,5,.45,8.17,4.67,10.55,3.25a2.59,2.59,0,0,0,1-1.12,11.25,11.25,0,0,0-3.54-6.29c-5.54-4.6-14.69-.66-17.64.61a29.28,29.28,0,0,0-9.37,6.49,4.26,4.26,0,0,0,2,2.72C109.41,121.22,111.56,118.59,116.74,116.47Z"/></g></svg>