<svg xmlns="http://www.w3.org/2000/svg" viewBox="0 0 170.71 287.41"><defs><style>.cls-1{fill:#cbaf86;}.cls-2{fill:#f4bf9b;}.cls-3{fill:#e99280;}.cls-4{fill:#76562c;}.cls-5{fill:#dbd19e;}.cls-6{fill:#011c29;}.cls-7{fill:none;stroke:#a8a8a8;stroke-miterlimit:10;}.cls-8{fill:#eca68c;}.cls-9{fill:#a8a8a8;}</style></defs><title>icon</title><g id="图层_3" data-name="图层 3"><polygon class="cls-1" points="59.78 220.33 0 239.45 0 286.36 170.71 287.42 170.71 239.45 120.7 220.33 59.78 220.33"/><path class="cls-2" d="M119.59,252.58c-6.19-.43-15.23,0-22.74,5.57-6.29,4.67-9.15,11.22-11.15,10.45-3-1.14,3.28-15.84-2.09-20.9-2.72-2.57-9.13-3.32-25.43,4.88V196.07h61.41Z"/><path class="cls-3" d="M57.48,217.22a41.49,41.49,0,0,0,17.77,10.27c22.63,6.16,41.82-10.71,43.64-12.36q.14-6.7.26-13.42h-62Z"/><path class="cls-4" d="M96.85,278.36a36.55,36.55,0,0,0-.69-23,35,35,0,0,0-6.27-10.45,13.05,13.05,0,0,1,4.87.7c3.58,1.24,4.11,3.26,5.58,3.48,5.69.86,11.06-27.37,20.2-27.87,2.67-.15,5.65,2.9,7,4.18a18,18,0,0,1,4.18,6.27,68,68,0,0,1-8.36,21.6A69.52,69.52,0,0,1,96.85,278.36Z"/><path class="cls-5" d="M120.11,213.56,89.89,244.91a20.33,20.33,0,0,1,8.36,6.27c5.58,7.09,4.86,15.7,4.68,17.42a165.24,165.24,0,0,0,14-15.33,171.7,171.7,0,0,0,14.79-21.6,33.59,33.59,0,0,0-4.5-10.45A30.87,30.87,0,0,0,120.11,213.56Z"/><path class="cls-4" d="M48.77,226.1a6.17,6.17,0,0,1,4-1.32,6.73,6.73,0,0,1,5.79,4.8.94.94,0,0,1,.27-.32c1.4-1,4.87,3.36,10.88,7.29,4.35,2.85,8.94,4.76,13.93,9.06a3.76,3.76,0,0,1,.7.69c2.33,3.21-2.81,8.88-5.57,17.42a46.47,46.47,0,0,0-2.09,10.46c-2.88-.58-14.88-3.3-23-14.64C43,244.74,48.17,228,48.77,226.1Z"/><path class="cls-5" d="M57.83,213.56,84.31,246.3A16.77,16.77,0,0,0,76,249.79c-6.48,5.22-6.31,13.56-6.27,14.63a48.3,48.3,0,0,1-29.27-34.14,33.72,33.72,0,0,1,17.42-16.72Z"/><path class="cls-2" d="M32.57,125a22.18,22.18,0,0,1,2.2.44,18.31,18.31,0,0,1,2.1.66l-.49,3.59c-8.87.49-16,5.14-16.87,11.7s4.69,12.95,13.1,15.81l.14,11a29.07,29.07,0,0,1-11.85-4.87C14.61,158.92,6.61,149.31,9.06,139a19,19,0,0,1,7-10.45A23.82,23.82,0,0,1,32.57,125Z"/><path class="cls-3" d="M36.38,129.7l-3.77,27.51c-1.38-.15-7.73-1-11.71-6.36-.91-1.24-3.42-4.65-2.78-9.06.57-4,3.34-6.34,4.87-7.67C28.05,129.76,34.22,129.64,36.38,129.7Z"/><path class="cls-2" d="M147.15,124.37a19.16,19.16,0,0,0-4.31.5l4.18,6.47c5.89,1.49,10.16,6.12,10.59,11.14.58,6.77-5.82,14-14.77,13.94V169a29.2,29.2,0,0,0,16.72-9.06c5.48-6.18,10.2-17.35,5.58-25.78a19.83,19.83,0,0,0-8.36-7.66S153.57,124.34,147.15,124.37Z"/><path class="cls-3" d="M144.23,130.64v27.17c9.59-1.53,15.1-10.4,13.24-17.42C156.1,135.21,150.74,131.13,144.23,130.64Z"/><path class="cls-2" d="M148.41,141.79c-.48,8.19-2.09,17.42-2.09,17.42-1.47,8.47-2.32,13.35-4.87,19.51-2.41,5.82-5.64,12.88-12.55,18.81-2,1.68-5.48,3.68-12.54,7.66-4.73,2.68-7.1,4-9.06,4.88-15.56,6.86-31.61,2-33.44,1.4a71.25,71.25,0,0,1-9.76-4.19,110.39,110.39,0,0,1-14.63-8.36c-11.08-8-15.33-24.23-16.72-30.66a124.23,124.23,0,0,1-4.88-28.56c-.91-17.63-1.91-37.17,10.45-53C54.12,66.58,81.19,66,88.14,65.84c7.45-.17,34-.75,49.13,17.42C150.77,99.47,149.55,122.49,148.41,141.79Z"/><path class="cls-6" d="M148.41,136.91h0s2.42-10.22,2.79-11.85a74.06,74.06,0,0,0,.68-28.29c-3.74-19.5-17.68-31.51-19.49-33C116.75,50.68,98.9,50.58,85.7,50.51,72.8,50.44,53.82,50.33,39,63.75,28.88,72.94,25.29,84.2,23.63,89.65a66.82,66.82,0,0,0,.06,38.2,21.33,21.33,0,0,1,3.48,6.27c1.48,4.26.77,6.82,2.79,9.76a10.77,10.77,0,0,0,4.18,3.48c-2.47-12.28-.42-20.46,2.09-25.78,3.59-7.6,7.5-9.43,9.76-17.42,2.57-9.13-2-16,.69-17.42,2-1.09,4.77,2.53,9.76,4.88,3.25,1.53,8.52,3,23,0,23.41-4.9,26-12.28,36.24-9.76,5.59,1.38,15.34,6.2,16.72,13.24.55,2.81.22,8.23,3.93,14.32l.17.28c.24.37.43.65.44.68a90.51,90.51,0,0,1,8,14A60.24,60.24,0,0,1,148.41,136.91Z"/><rect class="cls-7" x="38.67" y="129.59" width="43.2" height="20.21" rx="6.15" ry="6.15"/><ellipse class="cls-6" cx="60.27" cy="138.65" rx="5.23" ry="3.14"/><rect class="cls-8" x="85.01" y="141.09" width="7.66" height="25.08" rx="3.69" ry="3.69"/><rect class="cls-7" x="97.2" y="128.9" width="43.2" height="20.21" rx="6.15" ry="6.15"/><ellipse class="cls-6" cx="116.71" cy="138.65" rx="5.23" ry="3.14"/><path class="cls-6" d="M62.4,122.05c-2.57-.68-6.62-.82-12.58,2.35-1-.57-1.23-1.09-1.21-1.49.17-2.4,9.68-6.54,17.79-4.72a18.65,18.65,0,0,1,9.33,5.48A5.19,5.19,0,0,1,74,126.21C71,128.18,67.58,123.42,62.4,122.05Z"/><path class="cls-6" d="M114.49,122c2.54-.68,6.52-.86,12.29,2,1-.55,1.24-1,1.22-1.41-.1-2.22-9.33-5.94-17.33-4.12a19.44,19.44,0,0,0-9.31,5.23,4.57,4.57,0,0,0,1.68,2.34C105.84,127.85,109.36,123.37,114.49,122Z"/><path class="cls-3" d="M103,171.82a22.12,22.12,0,0,1-27.8,0,2.66,2.66,0,0,0-1.83.76,2.56,2.56,0,0,0-.76,1.82h0A2.6,2.6,0,0,0,75.24,177a26.72,26.72,0,0,0,27.8,0,2.64,2.64,0,0,0,1.82-.76,2.57,2.57,0,0,0,.76-1.83h0A2.59,2.59,0,0,0,103,171.82Z"/><rect class="cls-9" x="81.64" y="135.64" width="15.6" height="3.12"/></g></svg>