<svg xmlns="http://www.w3.org/2000/svg" viewBox="0 0 196.49 294.69"><defs><style>.cls-1{fill:#f4bf9b;}.cls-2{fill:#e99280;}.cls-3{fill:#666;}.cls-4{fill:#4f5659;}.cls-5{fill:none;stroke:#0e1600;stroke-width:0.75px;}.cls-11,.cls-5{stroke-miterlimit:10;}.cls-6{fill:#011c29;}.cls-7{fill:#eca68c;}.cls-8{fill:#0e1600;}.cls-9{fill:#fff;}.cls-10{fill:#333;}.cls-11{fill:#633e44;stroke:#512433;stroke-width:3px;}</style></defs><title>icon</title><g id="图层_3" data-name="图层 3"><path class="cls-1" d="M150,94a15.94,15.94,0,0,0-2.2,0,16.86,16.86,0,0,0-2.15.31l5.05,11.58a13.59,13.59,0,0,1,4.86-.36c1.61.17,2.61.28,3.33,1,2.23,2.25.4,9.07.18,9.89-2.69,10-12.9,14.62-15.87,15.82l-.29,4.4a16.62,16.62,0,0,0,4.28.88c8.72.56,17.1-9.91,20.11-20.57,1.84-6.49,3-17.89-1.25-21.61C162.47,92.2,154.68,94.26,150,94Z"/><path class="cls-2" d="M145.39,98.69l-2.17,33.56a16.08,16.08,0,0,0,13.19-5.69c3.56-4.16,4.66-9.25,5.17-11.66.66-3.08,1.32-6.17.53-8.89C160.57,100.66,153.75,97.7,145.39,98.69Z"/><path class="cls-3" d="M66.61,187.38,0,223.61v71.08H196.49V225.81L131,187.38Z"/><rect class="cls-2" x="64.1" y="169.27" width="66.89" height="57.14"/><path class="cls-1" d="M45.47,97.05a15.76,15.76,0,0,1,2.07.43,16.86,16.86,0,0,1,2,.69l-6.9,9.52a13.44,13.44,0,0,0-4.5-1.24c-1.54-.15-2.5-.24-3.31.28-2.52,1.61-2.07,8.13-2,8.91.66,9.59,9.4,15.65,12,17.3l-.56,4A15.82,15.82,0,0,1,40,137c-8.29-1.13-14.21-12.18-15.06-22.39-.52-6.21.5-16.74,5.2-19.3C34.11,93.1,41,96.42,45.47,97.05Z"/><path class="cls-2" d="M49,102.19l-4.21,30.75a15.66,15.66,0,0,1-11.33-7.64c-2.58-4.43-2.66-9.24-2.69-11.52,0-2.91-.1-5.82,1.15-8.14C34.32,101.1,41.28,99.71,49,102.19Z"/><path class="cls-1" d="M157.47,117a97.71,97.71,0,0,1-1.39,17.42,95.22,95.22,0,0,1-4.1,15.62c-.26.74-.7,1.94-1.47,3.89-1.18,2.93-5.55,13.9-8.63,18.58-5,7.57-13.91,9.83-25.52,12.77-7.18,1.82-18.83,4.63-33.44,1.4-6.58-1.46-21.25-4.71-31-17.17-4.91-6.24-6.63-12.84-10.07-26a136.3,136.3,0,0,1-4.88-28.56C36,97.29,35,77.75,47.38,62,63.17,41.8,90.25,41.21,97.2,41.06c7.45-.17,34-.75,49.12,17.42C157.26,71.61,157.34,88.68,157.47,117Z"/><path class="cls-4" d="M150.49,104l9.16-4.2A75,75,0,0,0,160.94,72c-2.48-17-11.79-38.26-22.06-38.47-4.24-.09-6.65,3.44-11,2s-5.21-6.33-8-10c-7.63-10-27.42-7.12-35-6S59.8,24.56,46.1,40A64.07,64.07,0,0,0,32.69,64.87a81.26,81.26,0,0,0-1.55,40.27l11.14,1c-.49-5-1.26-19.5,8-32.8C58.93,60.84,71.2,56.92,81.88,53.52c21-6.71,50-7.24,55.74,4.19,1.81,3.63,3.63,13.15,4.16,16.64a26.84,26.84,0,0,0,3.6,10.29c.29.48.52.8.61,1A34,34,0,0,1,150.49,104Z"/><rect class="cls-5" x="104.17" y="104.12" width="43.2" height="17.42" rx="2.34" ry="2.34"/><rect class="cls-5" x="47.03" y="104.12" width="43.2" height="17.42" rx="2.74" ry="2.74"/><ellipse class="cls-6" cx="68.99" cy="112.48" rx="4.53" ry="4.18"/><path class="cls-4" d="M84.58,99.31a27.65,27.65,0,0,0-16.64-4.16,27.23,27.23,0,0,0-12.89,4.44,6.08,6.08,0,0,1-.63-3.4c.39-3.08,3.33-4.73,4.16-5.2,2.1-1.18,4.2-1.15,8.32-1A46.89,46.89,0,0,1,79.38,92c3.27,1,4.56,1.77,5.2,3.12A5.58,5.58,0,0,1,84.58,99.31Z"/><rect class="cls-7" x="91.28" y="119.79" width="11.44" height="21.6" rx="3.81" ry="3.81"/><path class="cls-2" d="M113.57,147q-6.63.09-13.39.11-8.75,0-17.27-.11v3.6a17.13,17.13,0,0,0,30.66-3.6Z"/><ellipse class="cls-6" cx="125.07" cy="112.13" rx="4.53" ry="4.18"/><rect class="cls-8" x="90.3" y="111.79" width="14.04" height="1.56"/><path class="cls-7" d="M71.15,149.33l-1.93-1.11A37.23,37.23,0,0,1,83.5,123.48l1.94,1.11a38.34,38.34,0,0,0-14.29,24.74Z"/><path class="cls-9" d="M64.1,224.31l66.9,3.32q-3,33.88-5.92,67.75H70Q67.06,259.85,64.1,224.31Z"/><polyline class="cls-10" points="63.41 193.43 31.72 229.37 47.38 241.03 27.87 264.03 32.05 293.29 27.87 293.29 23.69 261.24 42.5 244.52 28.57 227.79 63.41 189.47"/><polyline class="cls-10" points="131.69 194.83 161.71 230.76 146.88 242.43 165.36 265.42 161.4 294.69 165.36 294.69 169.32 262.63 151.5 245.91 164.7 229.19 131.69 190.87"/><path class="cls-1" d="M71.07,202.71A45.68,45.68,0,0,0,96.85,209c16.84-1,27.41-11.31,30-13.93l-6.27,31.35-39.71,3Z"/><path class="cls-11" d="M107.3,259.85H92Q86.4,243.12,80.83,226.4h37.62Q112.89,243.13,107.3,259.85Z"/><path class="cls-11" d="M118.45,294H80.83Q86.4,276.92,92,259.85H107.3Q112.88,276.92,118.45,294Z"/><path class="cls-9" d="M64.18,188.68a80.81,80.81,0,0,0-.58,40.68,77.84,77.84,0,0,0,6.45,16.93,36.06,36.06,0,0,1,13-15.63,35.14,35.14,0,0,1,11.68-4.95q-5.82-7.29-11.84-14.64Q73.52,199.61,64.18,188.68Z"/><path class="cls-9" d="M131.05,187.4c-5.92,8.54-12.64,17.43-20.26,26.46q-5.25,6.22-10.45,11.85a51.59,51.59,0,0,1,24.38,19.5,91.1,91.1,0,0,0,7.67-26.47A91.61,91.61,0,0,0,131.05,187.4Z"/><path class="cls-7" d="M124.21,151.12,126.3,150a35.5,35.5,0,0,0-13.23-25.32L111,125.8a36.44,36.44,0,0,1,13.23,25.32Z"/><path class="cls-4" d="M109.4,99.31a25.92,25.92,0,0,1,28.83.28,6.19,6.19,0,0,0,.61-3.4c-.38-3.08-3.25-4.73-4.06-5.2-2.05-1.18-4.1-1.15-8.13-1A44.83,44.83,0,0,0,114.47,92c-3.19,1-4.45,1.77-5.07,3.12A5.63,5.63,0,0,0,109.4,99.31Z"/></g></svg>