<svg xmlns="http://www.w3.org/2000/svg" viewBox="0 0 172.11 289.06"><defs><style>.cls-1{fill:#fff;}.cls-2{fill:#e99280;}.cls-3{fill:#f2b186;}.cls-4{fill:#1b2426;}.cls-5{fill:#e7f1f7;}</style></defs><title>icon</title><g id="图层_3" data-name="图层 3"><polygon class="cls-1" points="60.27 200.38 0 225.66 0 287.67 172.1 289.06 172.1 225.66 121.68 200.38 60.27 200.38"/><path class="cls-2" d="M121.68,233.32c-6.19-.42-15.23,0-22.74,5.57-6.29,4.68-9.15,11.22-11.15,10.46-3-1.15,3.28-15.84-2.09-20.91-2.72-2.56-9.13-3.32-25.43,4.88V176.81h61.41Z"/><path class="cls-3" d="M155.3,118.31a71.29,71.29,0,0,1-3.88,26.18,58,58,0,0,1-9.7,24.08,60.72,60.72,0,0,1-27.8,21.17c-19.57,7.36-36.63,2.17-41.37.65-5.18-1.66-18.94-6.28-29.09-19.4-6.08-7.85-8.28-15.36-11-24.56A110.79,110.79,0,0,1,28,118.31c-.36-28.64,25.54-74.75,63.67-74.67C129,43.73,153.87,86.2,155.3,118.31Z"/><path class="cls-2" d="M31.08,136.61V107.79c-1.75-.56-6.33-1.74-10.24.5-6.7,3.84-8.06,15.8-2.59,22.62C22.59,136.33,29.7,136.59,31.08,136.61Z"/><path class="cls-3" d="M29.23,142.64a16.38,16.38,0,0,0,3.86-.47v-5.56a16.62,16.62,0,0,1-8.8-3.32c-8.15-6.43-9-21.47-3.45-25,3.89-2.48,10.33,1.09,12.25,2.18q.34-4.69.67-9.38c-1.76-1-8.77-4.64-14.86-1.85-8.69,4-9.12,18.13-6.43,26.64C16.3,138,27.69,142.64,29.23,142.64Z"/><path class="cls-2" d="M151.78,137.05V107.7c1.77-.57,6.41-1.77,10.37.51,6.79,3.91,8.17,16.09,2.62,23C160.37,136.77,153.17,137,151.78,137.05Z"/><path class="cls-3" d="M153.66,143.2a16.9,16.9,0,0,1-3.92-.48v-5.67a16.74,16.74,0,0,0,8.92-3.38c8.25-6.55,9.12-21.86,3.49-25.46-3.94-2.52-10.46,1.11-12.41,2.22-.23-3.18-.45-6.37-.68-9.56,1.79-1,8.89-4.72,15.06-1.88,8.79,4.05,9.23,18.47,6.5,27.14C166.75,138.45,155.21,143.2,153.66,143.2Z"/><path class="cls-4" d="M29.24,66.27a74.57,74.57,0,0,0-3.88,36.2l12.28,3.88a16,16,0,0,1,1.94-9.7C43.14,90.82,48.85,92,51.22,87s-1.62-8.17,1.29-14.86c.48-1.1,3-7,8.41-7.76A10.21,10.21,0,0,1,68,66.27,64.34,64.34,0,0,0,91.3,70.79a64.47,64.47,0,0,0,28.44-6.46c3.09.11,7.61.74,9.7,3.88,2.71,4.07-1.52,8.08.65,13.57,2.43,6.18,9.47,5.43,12.92,12.29a16.27,16.27,0,0,1,1.3,9.69l11.05-5.37c.69-4,4.69-29.84-13-50.87C125,26.81,99.63,26.34,91.3,26.19c-6.49-.12-29.8-.55-47.19,16.16C35,51.07,31.22,61,29.24,66.27Z"/><circle class="cls-4" cx="64.15" cy="114.75" r="3.88"/><circle class="cls-4" cx="114.57" cy="114.11" r="3.88"/><path class="cls-4" d="M50.34,99.31c.61,1.23,7-3.25,13.16-.72,2.27.93,3.44,2.38,7.11,3.23,1.15.27,4.13,1,4.94-.25.55-.84-.16-2.22-.38-2.63-2.47-4.77-12.65-8-20.07-4.23C52.25,96.15,50,98.53,50.34,99.31Z"/><path class="cls-4" d="M132.62,99.22c-.67,1.35-7.65-3.59-14.38-.8-2.48,1-3.76,2.62-7.78,3.57-1.25.29-4.51,1.05-5.39-.28-.61-.93.18-2.45.41-2.91,2.7-5.24,13.83-8.77,21.94-4.65C130.54,95.73,133.05,98.36,132.62,99.22Z"/><rect class="cls-2" x="83.54" y="114.11" width="16.81" height="27.15" rx="8.08" ry="8.08"/><rect class="cls-2" x="75.78" y="151.6" width="32.97" height="5.17" rx="2.49" ry="2.49"/><path class="cls-5" d="M99.64,261.89a36.65,36.65,0,0,0-.7-23,34.84,34.84,0,0,0-6.27-10.45,13.5,13.5,0,0,1,4.88.7c3.58,1.24,4.1,3.26,5.57,3.48,5.69.86,11.07-27.37,20.21-27.87,2-.11,3.67,1.32,7,4.18a31,31,0,0,1,9.06,13.94Z"/><path class="cls-1" d="M121.94,200.57,92.67,228.44a22.29,22.29,0,0,1,7,5.58c5.75,6.94,5.27,15.25,5.08,17.42l31.15-36.93Z"/><path class="cls-5" d="M50.17,208.24a6.17,6.17,0,0,1,4-1.33,6.76,6.76,0,0,1,5.78,4.81.94.94,0,0,1,.27-.32c1.4-1,4.87,3.36,10.88,7.29,4.35,2.85,9,4.75,13.94,9.06a3.63,3.63,0,0,1,.69.69c2.33,3.21-2.81,8.88-5.57,17.42A46.5,46.5,0,0,0,78,256.31c-2.87-.57-14.88-3.3-23-14.63C44.44,226.87,49.57,210.09,50.17,208.24Z"/><path class="cls-1" d="M59.92,200.57,85.7,228.14a18.62,18.62,0,0,0-6.27,3.79c-6.6,6.09-6.35,15-6.27,16.72a43.11,43.11,0,0,1-28.57-39.72Z"/><path class="cls-2" d="M68.28,124.34a8.17,8.17,0,0,1-16,0v-2.5a8.69,8.69,0,0,0,7,5.57,8.81,8.81,0,0,0,9.05-5.57Z"/><path class="cls-2" d="M111.49,123.64a8.6,8.6,0,0,0,16.72,0v-2.5a9,9,0,0,1-7.27,5.57,9.24,9.24,0,0,1-9.45-5.57Z"/></g></svg>