<svg xmlns="http://www.w3.org/2000/svg" viewBox="0 0 196.49 297.33"><defs><style>.cls-1{fill:#f9d2b9;}.cls-2{fill:#e99280;}.cls-3{fill:#333;}.cls-4{fill:#011c29;}.cls-5{fill:#fff;}</style></defs><title>icon</title><g id="图层_3" data-name="图层 3"><path class="cls-1" d="M153.12,100.8a16.71,16.71,0,0,0-2.17.4,17.75,17.75,0,0,0-2.07.64l6.92,9.22a15.33,15.33,0,0,1,4.73-1.15c1.62-.13,2.62-.21,3.45.3,2.59,1.58,1.92,7.84,1.84,8.59-1,9.23-10.28,15-13,16.55l.46,3.88a18.15,18.15,0,0,0,4.36,0c8.69-1,15.21-11.6,16.41-21.41.72-6,0-16.12-4.85-18.63C165.1,97.09,157.76,100.23,153.12,100.8Z"/><path class="cls-2" d="M149.33,105.71l3.47,29.64a17.08,17.08,0,0,0,12.06-7.25A21.23,21.23,0,0,0,168,117c.13-2.8.27-5.61-1-7.85C164.64,104.8,157.41,103.4,149.33,105.71Z"/><path class="cls-3" d="M66.61,197.63,0,231.3v66H196.49v-64L131,197.63Z"/><rect class="cls-2" x="64.1" y="171.91" width="66.89" height="57.14"/><path class="cls-1" d="M41.63,102.87a21.52,21.52,0,0,1,2.2.44q1.08.28,2.1.66l-7.11,8.38A17.12,17.12,0,0,0,34,111.14c-1.64-.17-2.66-.27-3.51.17-2.64,1.4-2,7.25-1.94,8,.93,8.63,10.34,14.27,13.11,15.81l-.49,3.6a20.07,20.07,0,0,1-4.44-.11c-8.83-1.21-15.38-11.26-16.52-20.44-.69-5.59.15-15,5.08-17.2C29.47,99.07,36.91,102.21,41.63,102.87Z"/><path class="cls-2" d="M45.44,107.56l-3.77,27.51c-1.41-.2-8.11-1.28-12.21-7.12a18.87,18.87,0,0,1-3.12-10.4c-.11-2.61-.23-5.22,1-7.28C29.88,106.25,37.24,105.17,45.44,107.56Z"/><path class="cls-1" d="M157.47,119.65a97.63,97.63,0,0,1-1.39,17.42,95,95,0,0,1-4.1,15.62c-.25.71-.81,2.28-1.47,3.89A62.53,62.53,0,0,1,138,175.39a53.72,53.72,0,0,1-21.6,12.55,61.75,61.75,0,0,1-33.44,1.39,54,54,0,0,1-24.39-12.54c-9.91-9.13-13.49-19.66-16.72-30.66a123.79,123.79,0,0,1-4.88-28.57C36,99.93,35,80.39,47.38,64.61,63.17,44.45,90.25,43.85,97.2,43.7c7.45-.16,34-.74,49.12,17.42C157.26,74.26,157.34,91.32,157.47,119.65Z"/><ellipse class="cls-4" cx="73.15" cy="114.25" rx="4.53" ry="3.3"/><path class="cls-4" d="M85.62,107.15C80,105.73,74.74,104.42,69,103c-2.64-.66-5.45-1.31-8.32,0a10.17,10.17,0,0,0-4.57,4.43,6.08,6.08,0,0,1-.63-3.4c.39-3.08,3.33-4.73,4.16-5.19,2.1-1.18,4.2-1.15,8.32-1a46.46,46.46,0,0,1,12.48,2.08c3.27,1,4.56,1.77,5.2,3.12A5.55,5.55,0,0,1,85.62,107.15Z"/><rect class="cls-2" x="91.28" y="117.24" width="11.44" height="21.6" rx="3.81" ry="3.81"/><path class="cls-2" d="M113.57,149.69a38.1,38.1,0,0,1-30.66,0v3.59a32.9,32.9,0,0,0,30.66,0Z"/><ellipse class="cls-4" cx="120.91" cy="114.07" rx="4.53" ry="3.48"/><path class="cls-5" d="M64.1,227l66.9,3.32q-3,33.87-5.92,67.75H70Q67.06,262.5,64.1,227Z"/><polyline points="61.7 204.38 31.38 237.33 46.36 248.03 27.69 269.11 31.69 295.94 27.69 295.94 23.69 266.55 41.7 251.22 28.36 235.89 61.7 200.75"/><polyline points="132.42 204.44 161.85 237.86 147.31 248.72 165.43 270.11 161.55 297.33 165.43 297.33 169.32 267.51 151.84 251.96 164.79 236.4 132.42 200.75"/><path class="cls-1" d="M71.07,205.36a45.76,45.76,0,0,0,25.78,6.27c16.84-1,27.41-11.31,30-13.94l-6.27,31.36-39.71,3Z"/><path class="cls-5" d="M64,191.38a62.92,62.92,0,0,0-9.57,63.45,51.22,51.22,0,0,1,40.82-23.26q-6-7.9-12.11-15.88Q73.53,203.26,64,191.38Z"/><path class="cls-5" d="M131.22,190.08c-6,9.41-12.82,19.21-20.5,29.2q-5.31,6.87-10.54,13.1,6,3.65,12.17,7.29,12.84,7.52,25.27,14.12a74.12,74.12,0,0,0-6.4-63.71Z"/><path class="cls-4" d="M108.9,108.61c5.81-2,11.32-3.93,17.31-6,2.75-.94,5.67-1.9,8.88-1a10.52,10.52,0,0,1,5.35,3.76,5.47,5.47,0,0,0,.31-3.37c-.74-2.94-4.05-4.19-5-4.54-2.37-.9-4.61-.62-9,0a54.84,54.84,0,0,0-13.1,3.48c-3.38,1.35-4.67,2.25-5.22,3.63A5,5,0,0,0,108.9,108.61Z"/><path class="cls-4" d="M123.06,60.36a40.82,40.82,0,0,0-9.36-1,41.28,41.28,0,0,0-15.6,3.12c-8,3.32-8.38,6.6-15.6,9.36A33.07,33.07,0,0,1,70,73.88a31.83,31.83,0,0,1-6.24,7.28c-3.83,3.27-6.29,3.72-9.36,6.24-2.37,1.94-5.32,5.31-7.28,11.44a66.74,66.74,0,0,0,0,27c2.65,12.34,7.85,17.89,10.4,32.24a78.48,78.48,0,0,1,1,18.72,27,27,0,0,1-8.32,6.24c-2.84,1.37-8.83,4.24-15.6,2.08-3.58-1.14-9.56-4.38-10.4-9.36-.54-3.24,1.44-5.19,0-8.32-.93-2-2.22-2.37-4.16-4.16a20.08,20.08,0,0,1-6.24-14.56c.2-4.83,2.78-5.65,2.08-10.4a32.54,32.54,0,0,0-2.08-6.24c-2-5.29-2.65-5.64-3.12-7.28C9.06,119,14.49,115.9,17,106.11c1.75-6.83-.59-6.54,1-13.51s4.43-9.11,9.36-18.72C31.06,66.7,32,63,33.62,59.32c6.64-15,24-28.4,42.64-33.28,16.56-4.35,35.6-2.33,39.52,3.12a9,9,0,0,0,4.16,3.12c4.38,1.56,7.27-1.72,11.44-2.08,7.64-.66,14.54,9,20.8,17.68,2.7,3.77,3.26,5.22,5.6,9.32.5.9,2.29,4.18,3.76,6.28,4,5.75,7.55,5.46,10.4,9.36s1.56,7,2.08,13.52c1.18,14.87,8.84,15.53,10.4,30.15.91,8.62-1.68,9.35,0,18.72,1.44,8.06,3.6,9,4.16,15.6.22,2.68,1,12.14-5.2,20.8a30.12,30.12,0,0,1-17.68,11.44c-14.92,3.37-26.59-6-28.08-7.28-1.14-2.67-2.23-6.5-1-10.4,1.4-4.6,5-6.1,8.32-9.36,7.39-7.27,7.95-18.06,8.32-25,.42-8-1.73-5.28-4.16-25-.85-6.88-1-10.76-4.16-14.55s-5.57-2.84-9.36-7.28c-3.33-3.9-2.88-6.44-6.24-13.52A62.62,62.62,0,0,0,123.06,60.36Z"/></g></svg>