<svg xmlns="http://www.w3.org/2000/svg" viewBox="0 0 202.79 291.64"><defs><style>.cls-1{fill:#cbaf86;}.cls-2{fill:#e99280;}.cls-3{fill:#f4bf9b;}.cls-4{fill:#1b2426;}.cls-5{fill:#efae8f;}.cls-6{fill:#434349;}.cls-7{fill:none;stroke:#fff;stroke-miterlimit:10;}.cls-8{fill:#fff;}.cls-9{fill:#76562c;}.cls-10{fill:#dbd19e;}.cls-11{fill:#68686d;}</style></defs><title>icon</title><g id="图层_3" data-name="图层 3"><polygon class="cls-1" points="71.02 206.68 0 230.9 0 290.3 202.79 291.64 202.79 230.9 143.38 206.68 71.02 206.68"/><rect class="cls-2" x="65.7" y="166.15" width="74.54" height="71.6"/><path class="cls-2" d="M42.68,135.1,40.6,107.39c-1.74-.41-6.28-1.23-9.92,1.21-6.24,4.17-6.7,15.77-.89,21.94C34.41,135.44,41.33,135.18,42.68,135.1Z"/><path class="cls-3" d="M39.82,141.53a16.15,16.15,0,0,0,3.77-.45v-5.36a16.28,16.28,0,0,1-8.58-3.2c-7.94-6.2-8.78-20.7-3.37-24.11,3.8-2.39,10.07,1,12,2.1.22-3,.43-6,.65-9-1.33-1.07-10.61-8.29-17.36-5.23-8.1,3.68-7.12,19.7-3.39,29.14C28.21,137.3,38.43,141.53,39.82,141.53Z"/><path class="cls-2" d="M159.25,135.38v-28.3c5.5-3.64,8.72-2.75,9.72-2.39,6.73,2.48,9.66,17.21,2.94,25.09C167.7,134.74,161.13,135.28,159.25,135.38Z"/><path class="cls-3" d="M161.08,141.3a16.58,16.58,0,0,1-3.82-.46v-5.46a16.44,16.44,0,0,0,8.69-3.26c8.05-6.32,8.9-21.09,3.41-24.55-3.84-2.43-10.2,1.07-12.1,2.14l-.66-9.22c2.63-2.17,9.08-6.89,14.69-5,8.41,2.81,10.09,18.77,6.33,29.38C173.4,136.71,162.56,141.3,161.08,141.3Z"/><path class="cls-3" d="M162.68,117.3c-4.17,31.9-6.43,48-14.68,56.53-7.79,8-16.78,11.27-21.74,13.06-21.39,7.7-40.4,1.77-45.81,0-4.75-1.56-11.7-3.84-18.63-9.22C44.88,164.51,42.1,143.75,38.57,117.3c-1.06-8-2-15.15-2.31-21.81-.6-12.11.79-22.52,6.93-33a59.36,59.36,0,0,1,13.2-15.36c4.45-3.84,19.3-16.26,41.92-16.9,19.9-.57,33.93,8.32,38.82,11.52a61.72,61.72,0,0,1,20.19,20.74c.46.81,1,1.69,1.42,2.74C166.64,82.51,163.3,112.53,162.68,117.3Z"/><ellipse class="cls-4" cx="73.08" cy="111.22" rx="3.49" ry="3.46"/><ellipse class="cls-4" cx="128.2" cy="110.45" rx="3.49" ry="3.46"/><ellipse class="cls-5" cx="97.41" cy="137.12" rx="2.03" ry="1.94" transform="translate(-24.41 21.14) rotate(-11.02)"/><ellipse class="cls-5" cx="105.17" cy="137.12" rx="1.95" ry="2.02" transform="matrix(0.58, -0.81, 0.81, 0.58, -67.55, 142.73)"/><path class="cls-2" d="M112,151.66a45.29,45.29,0,0,1-12.14,1.43,45.79,45.79,0,0,1-10.51-1.43,1.16,1.16,0,0,1-.8-.33,1.12,1.12,0,0,1-.33-.79v-.94a1.13,1.13,0,0,1,1.13-1.12H112a1.16,1.16,0,0,1,.79.33,1.08,1.08,0,0,1,.33.79v.94A1.12,1.12,0,0,1,112,151.66Z"/><path class="cls-6" d="M57.94,99c.54,1,4.8-2.1,11.59-1.14a50.73,50.73,0,0,1,7.56,1.8,46.77,46.77,0,0,0,5.18,1.39c2.77.55,4.82.72,5.5-.28s-.22-2.54-.42-2.91C85.24,94,79.59,93,75.8,92.4c-3.51-.58-5.72-.94-8.59-.26C61.54,93.5,57.37,98,57.94,99Z"/><path class="cls-6" d="M143.69,99c-.4.72-3.06-1.14-8.11-1.14a33.91,33.91,0,0,0-10,1.81,40.37,40.37,0,0,1-4.9,1.38c-2.65.55-4.61.72-5.25-.28s.26-2.66.4-2.91c1.72-3.13,6-3.87,10.51-4.59s7.15-1.14,10.43,0C141,94.77,144.16,98.18,143.69,99Z"/><path class="cls-2" d="M80.82,120.51a26.12,26.12,0,0,1-10.15,4.9,26.88,26.88,0,0,1-6.16.72l-.15-1.42a33,33,0,0,0,8.86-2.08A31.14,31.14,0,0,0,81.3,118Z"/><path class="cls-2" d="M122.32,120.26a23.17,23.17,0,0,0,9.6,3.85,18,18,0,0,0,5.21,0l-.28-1.49a23.79,23.79,0,0,1-7.76-1.08,29.55,29.55,0,0,1-7.85-3.82Z"/><path class="cls-5" d="M82,145.41a26.5,26.5,0,0,0-4.79,4.17c-.63.7-1.21,1.4-1.74,2.09a58.38,58.38,0,0,0-.44,9.05c.07,2.08.23,3.95.44,5.57-.08.68.15,1.28.43,1.4s.8-.34.84-1.18c-.19-1.47-.34-3.18-.4-5.09a50.44,50.44,0,0,1,.44-8.35,10.69,10.69,0,0,1,.87-2.09A6.3,6.3,0,0,1,82,147.5Z"/><path class="cls-5" d="M117,145.41a26.9,26.9,0,0,1,5,4.17c.65.7,1.25,1.4,1.81,2.09a57,57,0,0,1,.45,9.05c-.07,2.08-.24,3.95-.45,5.57.08.68-.16,1.28-.45,1.4s-.83-.34-.87-1.18a46.87,46.87,0,0,0,.41-5.09,49.24,49.24,0,0,0-.45-8.35,10.89,10.89,0,0,0-.9-2.09,6.54,6.54,0,0,0-4.5-3.48Z"/><rect class="cls-7" x="111.06" y="102.03" width="48.14" height="19.2" rx="2.34" ry="2.34"/><rect class="cls-7" x="47.39" y="102.03" width="48.14" height="19.2" rx="2.74" ry="2.74"/><rect class="cls-8" x="95.6" y="110.48" width="15.64" height="1.72"/><path class="cls-9" d="M112.74,277.87a49.29,49.29,0,0,0-.83-29.11,44.69,44.69,0,0,0-7.45-13.24,14.87,14.87,0,0,1,5.79.88c4.26,1.58,4.88,4.13,6.62,4.41,6.76,1.09,13.15-34.66,24-35.29,3.17-.19,6.7,3.67,8.28,5.29a23.06,23.06,0,0,1,5,7.95,89.6,89.6,0,0,1-9.93,27.35A84.74,84.74,0,0,1,112.74,277.87Z"/><path class="cls-10" d="M140.37,195.81l-35.91,39.71a24.29,24.29,0,0,1,9.93,7.94c6.63,9,5.78,19.88,5.57,22.06a209,209,0,0,0,16.59-19.41,221,221,0,0,0,17.57-27.35,44.17,44.17,0,0,0-5.35-13.24A38.63,38.63,0,0,0,140.37,195.81Z"/><path class="cls-9" d="M58.83,212.73a7.13,7.13,0,0,1,4.82-1.36c3,.36,5.55,2.95,6.45,6.53a1.15,1.15,0,0,1,.34-.38c1.75-1.16,5.49,4.62,12.27,10.06,4.92,3.94,10.2,6.72,15.74,12.54a4.45,4.45,0,0,1,.77.94c2.49,4.24-4.09,11-8.1,21.57a63,63,0,0,0-3.37,13,44.36,44.36,0,0,1-26-20.3C50.44,235.83,58,215,58.83,212.73Z"/><path class="cls-10" d="M66.38,198.11l31.46,41.47A19.19,19.19,0,0,0,87.9,244c-7.7,6.61-7.49,17.17-7.45,18.53a58.72,58.72,0,0,1-24.83-20.3,63.45,63.45,0,0,1-9.93-22.94,42.84,42.84,0,0,1,9.11-13.23A39.6,39.6,0,0,1,66.38,198.11Z"/><path class="cls-11" d="M44,101.31l-8.11-5.73a75.76,75.76,0,0,1,1.16-41.27A56.83,56.83,0,0,1,52.15,36c14.53-11.46,30.68-12.09,44-12.61,14.41-.56,31.9-1.24,47.51,10.32a55.14,55.14,0,0,1,16.23,19.49,65,65,0,0,1,4,43.48l-7.47,3.53a19.71,19.71,0,0,0,0-9.17c-1.47-5.87-4.91-6.92-8.11-13.76-1.79-3.83-.84-3.76-3.48-12.61-2.55-8.57-3.83-12.85-5.79-13.76-4.88-2.26-9.75,5.86-24.34,10.32-4.76,1.45-8.17,2.49-12.74,2.29-14.6-.64-18.9-13-30.13-11.47a18,18,0,0,0-11.59,6.88c-4.15,5.59-.72,9.25-4.64,18.35-2.5,5.83-4.7,6.16-8.11,13.76A56.63,56.63,0,0,0,44,101.31Z"/></g></svg>