<svg xmlns="http://www.w3.org/2000/svg" viewBox="0 0 209 289.37"><defs><style>.cls-1{fill:#eca68c;}.cls-2{fill:#f2b186;}.cls-3{fill:#262c3d;}.cls-4{fill:#e99280;}.cls-5{fill:#e8eaea;}.cls-6{fill:#1d1c1f;}.cls-7{fill:#cfc42b;}.cls-8{fill:#fff;}.cls-9{fill:#a7a9aa;}.cls-10{fill:#1b2426;}</style></defs><title>icon</title><g id="图层_3" data-name="图层 3"><path class="cls-1" d="M152.18,102.77V128a17.79,17.79,0,0,0,12.31-2.8,17.06,17.06,0,0,0,6.41-8.41c.43-1.15,4.12-11.11-1.67-15.89C165.13,97.52,157.69,97.91,152.18,102.77Z"/><path class="cls-2" d="M160.71,96v12.43c4.19-5.74,11.68-6.89,16.1-3.74s4.41,10,2.62,14c-1.4,3.17-3.9,4.85-6.41,6.54a29.37,29.37,0,0,1-12.31,4.67v11.51a23.93,23.93,0,0,0,5.46.64c10.74,0,22.28-10.71,23.68-23.36.9-8.18-2.09-20.43-12.1-24.3C170,91.36,162.37,95.09,160.71,96Z"/><path class="cls-1" d="M160.71,104.64v25.23a17.79,17.79,0,0,0,12.31-2.8,17.19,17.19,0,0,0,6.41-8.41c.42-1.15,4.11-11.11-1.68-15.89C173.65,99.39,166.22,99.77,160.71,104.64Z"/><path class="cls-2" d="M41.36,92.21v12.43c-4.21-5.74-11.72-6.89-16.14-3.74s-4.42,10-2.63,14c1.41,3.17,3.91,4.86,6.43,6.54a29.61,29.61,0,0,0,12.34,4.68v11.51a24.08,24.08,0,0,1-5.47.63c-10.77,0-22.34-10.71-23.74-23.36-.91-8.18,2.09-20.43,12.12-24.3C32.05,87.62,39.69,91.35,41.36,92.21Z"/><path class="cls-1" d="M41.36,100.9v25.24A18,18,0,0,1,29,123.33a17.21,17.21,0,0,1-6.43-8.41c-.42-1.15-4.12-11.11,1.68-15.89C28.38,95.65,35.84,96,41.36,100.9Z"/><path class="cls-3" d="M70.85,178.45,0,215.9v73.47H209v-71.2l-69.67-39.72Z"/><rect class="cls-4" x="68.18" y="159.73" width="71.15" height="59.06"/><path class="cls-5" d="M68.18,216.62l71.15,3.44q-3.14,35-6.29,70H74.48Z"/><polyline class="cls-6" points="67.44 184.71 33.74 221.85 50.4 233.91 29.64 257.68 34.09 287.93 29.64 287.93 25.2 254.8 45.21 237.51 30.39 220.22 67.44 180.61"/><polyline class="cls-6" points="140.07 186.15 172 223.29 156.22 235.35 175.88 259.12 171.67 289.37 175.88 289.37 180.1 256.24 161.14 238.95 175.18 221.67 140.07 182.05"/><path class="cls-2" d="M75.6,194.3a49,49,0,0,0,59.29-7.93l-6.67,32.41L86,221.87Z"/><path class="cls-7" d="M114.13,253.36H97.83Q91.91,236.07,86,218.78h40Q120.07,236.08,114.13,253.36Z"/><path class="cls-7" d="M126,288.65H86Q91.9,271,97.83,253.36h16.3Q120.07,271,126,288.65Z"/><path class="cls-8" d="M68.26,179.79a81.41,81.41,0,0,0-.61,42.05,78.63,78.63,0,0,0,6.86,17.5,37.47,37.47,0,0,1,13.86-16.16,38.1,38.1,0,0,1,12.42-5.12q-6.18-7.51-12.59-15.12Q78.19,191.09,68.26,179.79Z"/><path class="cls-8" d="M139.39,178.47c-6.3,8.83-13.45,18-21.55,27.35q-5.58,6.44-11.12,12.24a55.72,55.72,0,0,1,13.34,7.21,54.05,54.05,0,0,1,12.6,13,91.76,91.76,0,0,0,6.73-59.76Z"/><path class="cls-2" d="M169.23,104.87a117.85,117.85,0,0,1-1.58,20.41A115,115,0,0,1,163,143.57c-.29.83-.92,2.67-1.68,4.56-2,5.09-5.94,14.69-14.23,22-2.22,2-6.22,4.3-14.23,9-5.37,3.13-8.06,4.7-10.28,5.71-17.66,8-35.87,2.31-37.95,1.63a78.62,78.62,0,0,1-11.07-4.9A122.94,122.94,0,0,1,57,171.79c-12.58-9.4-17.4-28.38-19-35.91a149.06,149.06,0,0,1-5.53-33.45c-1-20.65-2.17-43.54,11.86-62C62.23,16.8,93,16.1,100.84,15.92c8.45-.19,38.57-.87,55.74,20.41C169,51.71,169.08,71.7,169.23,104.87Z"/><path class="cls-9" d="M161.44,96.75l10.5-4.58a77.89,77.89,0,0,0,1.45-30.39c-2.85-18.57-13.53-41.8-25.31-42-4.86-.1-7.61,3.76-12.6,2.17S129.51,15,126.3,11C117.55,0,94.88,3.19,86.19,4.4S57.45,9.89,41.77,26.78A68.66,68.66,0,0,0,26.43,53.91a84.8,84.8,0,0,0-1.75,44L37.45,99c-.57-5.44-1.46-21.3,9.12-35.82,9.92-13.62,24-17.89,36.21-21.6,24.09-7.31,57.31-7.86,63.88,4.63,2.08,4,4.17,14.36,4.78,18.18a28.3,28.3,0,0,0,4.14,11.24c.33.53.59.87.7,1A35.82,35.82,0,0,1,161.44,96.75Z"/><path class="cls-9" d="M129.48,86.67c4.24-1.72,6.37-2.58,9.15-2.63,6-.09,9.28,3.67,12.28,2a3.74,3.74,0,0,0,1.3-1.19,8.1,8.1,0,0,0-3.56-5.75c-6.13-3.88-17.5.92-21.17,2.47a46.65,46.65,0,0,0-11.91,7.3,3.24,3.24,0,0,0,2.13,2.43C120.19,92.06,123.06,89.28,129.48,86.67Z"/><path class="cls-9" d="M75.06,87.54c-4.3-1.35-6.45-2-9.23-1.7-5.95.68-9.12,5.32-12.17,3.9a3.4,3.4,0,0,1-1.35-1.15,10.47,10.47,0,0,1,3.36-6.88c6-5.14,17.49-1.31,21.2-.07A40.27,40.27,0,0,1,89,88.18a4.11,4.11,0,0,1-2,3C84.5,92.31,81.55,89.59,75.06,87.54Z"/><ellipse class="cls-10" cx="134.66" cy="99.1" rx="5.21" ry="2.15"/><ellipse class="cls-10" cx="68.36" cy="99.1" rx="5.21" ry="2.15"/><rect class="cls-4" x="93.73" y="105" width="15.92" height="24.78" rx="7.96" ry="7.96"/><path class="cls-4" d="M115,137.33q-6.75-.18-13.8-.17-6.8,0-13.31.17a2.54,2.54,0,0,0-1.78.76,2.61,2.61,0,0,0-.74,1.83h0a7.24,7.24,0,0,0,.74,1.83c3.1,5.4,12.42,5.2,16.08,5.13,3.88-.09,11.78-.25,14.59-5.13a7.64,7.64,0,0,0,.74-1.83l-.56-1.79Z"/><path class="cls-1" d="M79.51,145.93l-1.83-1.05a34.48,34.48,0,0,1,4.74-13.4,35.1,35.1,0,0,1,8.79-9.72l1.83,1a35.75,35.75,0,0,0-13.53,23.12Z"/><path class="cls-1" d="M124.33,146.05l2-1a33,33,0,0,0-4-13.65,33.53,33.53,0,0,0-8.5-10l-2,1a34.5,34.5,0,0,1,8.36,9.93A33.83,33.83,0,0,1,124.33,146.05Z"/><path class="cls-4" d="M79.58,101a14,14,0,0,1-8,5.78,12.9,12.9,0,0,1-4.4.3l3.7,2.36A15.41,15.41,0,0,0,79.58,101Z"/><path class="cls-4" d="M123.74,102.1a12,12,0,0,0,7.78,6.07,12.24,12.24,0,0,0,4.58.07L132,111.16a13.07,13.07,0,0,1-4.2-2.54A14.49,14.49,0,0,1,123.74,102.1Z"/></g></svg>