<svg xmlns="http://www.w3.org/2000/svg" viewBox="0 0 196.49 292.62"><defs><style>.cls-1{fill:#1b2426;}.cls-2{fill:#999;}.cls-3{fill:#e99280;}.cls-4{fill:#c5cad8;}.cls-5{fill:#4d4d4d;}.cls-6{fill:#f9d2b9;}.cls-7{fill:#fff;}.cls-8{fill:#eca68c;}</style></defs><title>icon</title><g id="图层_3" data-name="图层 3"><path class="cls-1" d="M155.93,140.63a74.81,74.81,0,0,1,15.6,28.08,44.49,44.49,0,0,1-33.27,17.68q-2.25-4.3-4.48-8.63c-1.59-14.82,3.06-28.13,12.79-34A23.39,23.39,0,0,1,155.93,140.63Z"/><path class="cls-2" d="M66.61,185.32,0,221.55v71.07H196.49V223.75L131,185.32Z"/><rect class="cls-3" x="64.1" y="167.2" width="66.89" height="57.14"/><path class="cls-4" d="M64.1,222.25l66.9,3.32q-3,33.87-5.92,67.75H70Q67.06,257.78,64.1,222.25Z"/><polyline class="cls-5" points="63.41 191.37 31.72 227.3 47.38 238.97 27.87 261.96 32.05 291.23 27.87 291.23 23.69 259.18 42.5 242.46 28.57 225.73 63.41 187.41"/><polyline class="cls-5" points="131.69 192.76 161.71 228.7 146.88 240.37 165.36 263.36 161.4 292.62 165.36 292.62 169.32 260.57 151.5 243.85 164.7 227.13 131.69 188.8"/><path class="cls-6" d="M71.07,200.65a45.76,45.76,0,0,0,25.78,6.27c16.84-1,27.41-11.31,30-13.94l-6.27,31.36-39.71,3Z"/><path class="cls-7" d="M64.18,188.7a80.79,80.79,0,0,0-.58,40.68,77.84,77.84,0,0,0,6.45,16.93,36.06,36.06,0,0,1,13-15.63,35.19,35.19,0,0,1,11.68-5q-5.82-7.28-11.84-14.63Q73.52,199.63,64.18,188.7Z"/><path class="cls-7" d="M131.05,187.42c-5.92,8.54-12.64,17.42-20.26,26.46q-5.25,6.23-10.45,11.84a51.7,51.7,0,0,1,24.38,19.51,91.15,91.15,0,0,0,6.33-57.81Z"/><path class="cls-3" d="M43.44,139,41.58,113.9c-1.57-.37-5.64-1.11-8.91,1.1-5.59,3.78-6,14.31-.79,19.9C36,139.35,42.23,139.11,43.44,139Z"/><path class="cls-6" d="M40.88,144.88a14.55,14.55,0,0,0,3.38-.41V139.6a14.47,14.47,0,0,1-7.7-2.9c-7.13-5.63-7.88-18.78-3-21.87,3.4-2.16,9,1,10.72,1.91.19-2.74.39-5.47.59-8.21-1.2-1-9.53-7.51-15.59-4.73-7.26,3.33-6.39,17.86-3,26.42C30.45,141,39.63,144.88,40.88,144.88Z"/><path class="cls-3" d="M148.06,139.29V113.62c4.93-3.3,7.83-2.49,8.72-2.16,6,2.25,8.67,15.61,2.64,22.76C155.64,138.71,149.74,139.21,148.06,139.29Z"/><path class="cls-6" d="M149.7,144.67a14.83,14.83,0,0,1-3.42-.42v-5a14.55,14.55,0,0,0,7.79-2.95c7.22-5.73,8-19.13,3.06-22.27-3.45-2.21-9.15,1-10.85,1.94l-.6-8.36c2.36-2,8.15-6.25,13.19-4.55,7.54,2.54,9,17,5.67,26.64C160.76,140.5,151,144.67,149.7,144.67Z"/><path class="cls-6" d="M151.13,122.9c-3.74,28.93-5.76,43.56-13.17,51.27-5.12,5.34-12.72,8.59-19.51,11.85-9,4.31-13.89,6.6-20.75,6.61-6.67,0-11.55-2.15-20.8-6.24-1.31-.57-10.71-4.73-16.28-8.74-15-10.81-17.84-31.84-20.86-54.75-2.7-20.42-4.39-35,4.14-49.76A53.8,53.8,0,0,1,55.74,59.2c4-3.48,17.33-14.75,37.63-15.33,17.86-.51,30.45,7.55,34.84,10.45a55.54,55.54,0,0,1,18.11,18.82c.42.73.85,1.53,1.28,2.48C154.69,91.34,151.7,118.57,151.13,122.9Z"/><circle class="cls-1" cx="70.72" cy="117.38" r="3.14"/><circle class="cls-1" cx="120.2" cy="116.69" r="3.14"/><path class="cls-1" d="M57.83,108c.56.68,3.5-2.72,8.67-2.7a27.7,27.7,0,0,1,7.83,1.63A39.14,39.14,0,0,0,79,108.17c2.49.51,4.33.66,4.94-.25s-.17-2.26-.38-2.64c-1.63-2.93-5.81-3.52-10.79-4.16-4.1-.53-6.15-.8-8.32,0C59.91,102.76,57.25,107.25,57.83,108Z"/><path class="cls-1" d="M133.59,108c-.54.56-2.54-2.26-6.77-2.7-3.24-.34-6.64.82-9,1.64a34.7,34.7,0,0,1-4.41,1.25c-2.37.51-4.13.66-4.71-.25s.18-2.3.36-2.64c.82-1.49,2.46-2.65,9.44-4.16,4.55-1,6.83-1.49,8.32-1C131.66,101.52,134.31,107.24,133.59,108Z"/><path class="cls-1" d="M118.5,58.48a119.6,119.6,0,0,0-27,10.4c-15.68,8.35-26.7,18.81-35.36,27-3.54,3.36-6.38,6.27-8.32,8.32A124.11,124.11,0,0,0,57.14,175L43.62,187.43c-5.85-6.17-28.83-31.83-29.12-70.71-.07-8.83,0-31.18,14.56-53C42.74,43.13,69.36,22.75,99.78,25.2a66,66,0,0,1,25,7.28c2.79.26,22.65,2.41,34.31,19.76,10,14.82,10,34.83,0,51l-13.52,5.2a66.44,66.44,0,0,1-12.47-19.76c-2.13-5.28-2.51-8.46-5.2-14.56A74.23,74.23,0,0,0,118.5,58.48Z"/><rect class="cls-3" x="84.18" y="154.15" width="27.04" height="5.2" rx="2.5" ry="2.5"/><circle class="cls-7" cx="152.29" cy="146.35" r="3.64"/><rect class="cls-8" x="90.88" y="119.84" width="11.44" height="21.28" rx="5.5" ry="5.5"/></g></svg>