<svg xmlns="http://www.w3.org/2000/svg" viewBox="0 0 195.49 260.51"><defs><style>.cls-1{fill:#f9d2b9;}.cls-2{fill:#eca68c;}.cls-3{fill:#ededed;}.cls-4{fill:#633e44;stroke:#512433;stroke-miterlimit:10;stroke-width:3px;}.cls-5{fill:#c6ccce;}.cls-6{fill:#4f5659;}.cls-7{fill:#68686d;}.cls-8{fill:#011c29;}.cls-9{fill:#efae8f;}</style></defs><title>icon</title><g id="图层_3" data-name="图层 3"><path class="cls-1" d="M36.68,87.14V97.22c-3.43-4.65-9.57-5.59-13.19-3s-3.61,8.08-2.15,11.37c1.15,2.57,3.2,3.94,5.26,5.31a24.33,24.33,0,0,0,10.08,3.79V124a19.33,19.33,0,0,1-4.47.52c-8.8,0-18.26-8.69-19.4-19-.74-6.63,1.71-16.57,9.91-19.71C29.08,83.42,35.32,86.44,36.68,87.14Z"/><path class="cls-2" d="M36.68,94.19v20.47a14.76,14.76,0,0,1-10.08-2.28,14,14,0,0,1-5.26-6.82c-.34-.93-3.37-9,1.38-12.89C26.07,89.93,32.17,90.24,36.68,94.19Z"/><path class="cls-1" d="M159.68,85.14V95.22c3.16-4.65,8.78-5.59,12.1-3s3.31,8.08,2,11.37c-1.05,2.57-2.93,3.94-4.81,5.31a21.18,21.18,0,0,1-9.25,3.79V122a16.42,16.42,0,0,0,4.11.52c8.07,0,16.73-8.69,17.78-19,.68-6.63-1.57-16.57-9.08-19.71C166.66,81.42,160.93,84.44,159.68,85.14Z"/><path class="cls-2" d="M159.68,92.19v20.47a12.62,12.62,0,0,0,9.25-2.28,13.83,13.83,0,0,0,4.81-6.82c.32-.93,3.09-9-1.25-12.89C169.41,87.93,163.82,88.24,159.68,92.19Z"/><polygon class="cls-3" points="68.46 187.8 0 208.53 0 259.37 195.49 260.51 195.49 208.53 138.21 187.8 68.46 187.8"/><path class="cls-2" d="M138.21,206c-7-.41-17.3,0-25.82,5.45-7.15,4.56-10.4,10.95-12.67,10.21-3.39-1.12,3.73-15.48-2.37-20.42C94.26,198.71,87,198,68.46,206V150.79h69.75Z"/><path class="cls-4" d="M109.11,240.84H93.78q-5.57-16.72-11.15-33.44h37.63Z"/><path class="cls-5" d="M113.18,236.89a31.08,31.08,0,0,0-.79-22.46,33.49,33.49,0,0,0-7.13-10.21,17.15,17.15,0,0,1,5.54.68c4.07,1.21,4.67,3.19,6.33,3.4,6.47.84,12.57-26.73,23-27.22,2.29-.11,4.16,1.29,7.91,4.08a30.06,30.06,0,0,1,10.29,13.61Z"/><path class="cls-1" d="M71.16,181.56a51,51,0,0,0,32.44,8c20.19-2,31.87-15.69,34.12-18.44v35.36l-31.9-1-5.35-.17-29.31-.91Z"/><path class="cls-3" d="M138.5,177l-33.24,27.22a25.09,25.09,0,0,1,7.92,5.44,21.42,21.42,0,0,1,5.76,17l35.39-36.07Z"/><path class="cls-5" d="M57,184.48a7.7,7.7,0,0,1,4.51-1.29,7.49,7.49,0,0,1,6.57,4.69,1,1,0,0,1,.31-.31c1.59-1,5.53,3.28,12.36,7.12,4.94,2.78,10.16,4.65,15.83,8.85a4.4,4.4,0,0,1,.79.68c2.65,3.13-3.2,8.67-6.33,17a39.83,39.83,0,0,0-2.38,10.21c-3.26-.56-16.89-3.22-26.12-14.29C50.47,202.69,56.3,186.29,57,184.48Z"/><path class="cls-3" d="M68.06,177l29.29,26.92a22.26,22.26,0,0,0-7.12,3.7C82.72,213.57,83,222.32,83.1,224c-4-1.25-15.37-5.26-23.74-15.66a38.39,38.39,0,0,1-8.71-23.14Z"/><path class="cls-4" d="M120.26,261.51H82.63q5.58-10.33,11.15-20.67h15.33Z"/><path class="cls-1" d="M165.08,102.11c-4.31,27.19-6.46,40.79-18.1,53a77.39,77.39,0,0,1-21.45,15.35c-8.88,4.31-15.86,7.16-25.12,7.17-8.07,0-14-2.33-25.17-6.76l-.5-.2a64.41,64.41,0,0,1-18.37-12.18C52.89,155.11,36.23,137,30.3,102.11c-3.16-18.59-6.15-36.55,5-53.87A60.87,60.87,0,0,1,49.64,33.15,76.93,76.93,0,0,1,95.18,16.56a77.82,77.82,0,0,1,42.15,11.31c4.66,2.76,14.7,9,21.93,20.37a28.91,28.91,0,0,1,1.54,2.69C169.71,68.6,165.57,99,165.08,102.11Z"/><path class="cls-6" d="M109.5,85.6a34.9,34.9,0,0,1,19.65-4.51,34.1,34.1,0,0,1,15.24,4.81,6.09,6.09,0,0,0,.73-3.68c-.45-3.34-3.92-5.12-4.91-5.63-2.48-1.27-5-1.24-9.83-1.13a60.19,60.19,0,0,0-14.74,2.26c-3.86,1.08-5.38,1.92-6.14,3.37A5.56,5.56,0,0,0,109.5,85.6Z"/><path class="cls-6" d="M85.84,85.64a36.59,36.59,0,0,0-20.14-4.5,35.65,35.65,0,0,0-15.6,4.8,6,6,0,0,1-.76-3.68c.47-3.33,4-5.12,5-5.62,2.53-1.28,5.08-1.25,10.06-1.13a63.31,63.31,0,0,1,15.1,2.25c4,1.08,5.52,1.92,6.3,3.38A5.45,5.45,0,0,1,85.84,85.64Z"/><path class="cls-7" d="M35.9,82.05l-8.76-4.34A41.12,41.12,0,0,1,24.63,63a42,42,0,0,1,3.76-16.5,50.16,50.16,0,0,1,16.28-13.9c15.71-8.68,33.17-9.16,47.6-9.55,15.57-.43,34.48-.94,51.36,7.81a48.92,48.92,0,0,1,17.53,14.77,38.47,38.47,0,0,1,6.27,16.5,35.19,35.19,0,0,1-2,16.43l-8.07,2.67a10.65,10.65,0,0,0,0-7c-1.59-4.44.73-9.53-2.73-14.72-1.93-2.9-2.14-3.29-5-10-2.76-6.49-8.94-5-11.06-5.67-5.27-1.71-9.16-5.7-24.94-2.33-5.14,1.1-12.05.15-17,0C80.91,41,78.11,43.57,66,44.71a21.91,21.91,0,0,0-12.53,5.21c-4.48,4.23-5.53,6.7-9.76,13.59-2.71,4.42-.33,5-4,10.72A35,35,0,0,0,35.9,82.05Z"/><path class="cls-7" d="M49.68,32.51C50.51,27,63,19.7,64.6,17.43c7.65-10.52,20-16.36,37.08-10.92,1.74.91,9.59,5.25,14.77,4.87a20.51,20.51,0,0,0,9.15-3c2.51,6,15.58,16.09,18.08,22.11-13.9,1-38.88-2.34-53.77-1.94C79.75,28.84,59.39,32.55,49.68,32.51Z"/><path class="cls-8" d="M73.57,97.62c-.19,1.9-2.74,3.2-4.76,3.22-3.12,0-6.27-2.93-5.86-5,.37-1.83,3.43-3,5.86-2.56C71.08,93.63,73.79,95.54,73.57,97.62Z"/><path class="cls-8" d="M132.4,96.8c.11,2.07-2.34,3.91-4.49,4.19-3.08.41-6.48-2.24-6.27-4.48.18-1.94,3.06-3.43,5.46-3.37C129.33,93.2,132.28,94.61,132.4,96.8Z"/><rect class="cls-2" x="94.61" y="101.5" width="7.66" height="26.22" rx="3.69" ry="3.69"/><path class="cls-2" d="M111.1,145.57a78.15,78.15,0,0,1-26,0c-1.13,0-2.06-1.47-2.06-3.26s.93-3.26,2.06-3.26a40.07,40.07,0,0,0,26.05,0c1.12,0,2.05,1.47,2.05,3.26S112.23,145.57,111.1,145.57Z"/><path class="cls-9" d="M84.68,123.28a25.86,25.86,0,0,0-4.78,4.18c-.63.69-1.21,1.39-1.74,2.09a58.38,58.38,0,0,0-.44,9,55.85,55.85,0,0,0,.44,5.57c-.08.67.15,1.27.43,1.39s.8-.34.84-1.17a50.21,50.21,0,0,1-.4-5.1,51.84,51.84,0,0,1,.43-8.35,12.41,12.41,0,0,1,.87-2.09,6.4,6.4,0,0,1,4.35-3.48Z"/><path class="cls-9" d="M111.68,123.28a26.63,26.63,0,0,1,5,4.18c.65.69,1.25,1.39,1.8,2.09a55.85,55.85,0,0,1,.45,9,52.81,52.81,0,0,1-.45,5.57c.09.67-.15,1.27-.45,1.39s-.82-.34-.86-1.17a50,50,0,0,0,.41-5.1,49.37,49.37,0,0,0-.45-8.35,11.17,11.17,0,0,0-.9-2.09,6.59,6.59,0,0,0-4.51-3.48Z"/></g></svg>