<svg xmlns="http://www.w3.org/2000/svg" viewBox="0 0 175.75 291"><defs><style>.cls-1{fill:#999;}.cls-2{fill:#f4bf9b;}.cls-3{fill:#e99280;}.cls-4{fill:#333;}.cls-5{fill:gray;}.cls-6{fill:#f9d2b9;}.cls-7{fill:#011c29;}.cls-8{fill:#f8c49f;}.cls-9{fill:#eca68c;}.cls-10{fill:none;stroke:#0e1600;stroke-miterlimit:10;stroke-width:2px;}.cls-11{fill:#0e1600;}</style></defs><title>icon</title><g id="图层_3" data-name="图层 3"><polygon class="cls-1" points="61.55 219.02 0 239.53 0 289.87 175.75 291 175.75 239.53 124.26 219.02 61.55 219.02"/><path class="cls-2" d="M123.12,253.62c-6.37-.46-15.68,0-23.41,6-6.48,5-9.42,12-11.47,11.21-3.08-1.22,3.37-17-2.16-22.43-2.8-2.75-9.4-3.56-26.18,5.24V193h63.22Z"/><path class="cls-3" d="M59.18,215.68a42.4,42.4,0,0,0,18.29,11c23.3,6.61,43.06-11.49,44.94-13.26q.12-7.2.26-14.4H58.82Z"/><path class="cls-4" d="M99.71,281.28A40.81,40.81,0,0,0,99,256.61a37.78,37.78,0,0,0-6.46-11.22,13.21,13.21,0,0,1,5,.75c3.69,1.33,4.23,3.5,5.74,3.74,5.86.92,11.39-29.37,20.8-29.91,2.75-.15,5.81,3.11,7.18,4.49a19.4,19.4,0,0,1,4.3,6.73A74.83,74.83,0,0,1,127,254.37,72.64,72.64,0,0,1,99.71,281.28Z"/><path class="cls-5" d="M123.66,211.75,92.54,245.39a21,21,0,0,1,8.61,6.73c5.74,7.61,5,16.85,4.82,18.69a176.16,176.16,0,0,0,14.38-16.44,185.17,185.17,0,0,0,15.23-23.18A36.88,36.88,0,0,0,131,220,33,33,0,0,0,123.66,211.75Z"/><path class="cls-4" d="M50.22,225.21a6.11,6.11,0,0,1,4.08-1.42c2.6.13,5,2.17,6,5.16a.93.93,0,0,1,.28-.35c1.44-1.08,5,3.6,11.2,7.82,4.48,3.06,9.2,5.1,14.34,9.72a4.23,4.23,0,0,1,.72.75c2.4,3.44-2.89,9.52-5.74,18.69a51.94,51.94,0,0,0-2.15,11.21,38.61,38.61,0,0,1-23.67-15.7C44.32,245.21,49.6,227.2,50.22,225.21Z"/><path class="cls-5" d="M59.54,211.75,86.8,246.89a16.78,16.78,0,0,0-8.61,3.74c-6.67,5.59-6.5,14.54-6.45,15.7a50.62,50.62,0,0,1-21.52-17.2,53,53,0,0,1-8.61-19.44,36.21,36.21,0,0,1,7.89-11.21A34.52,34.52,0,0,1,59.54,211.75Z"/><path class="cls-2" d="M33.53,116.74a14.7,14.7,0,0,1,2.27.47h0a21.83,21.83,0,0,1,2.16.71l-.51,3.85a16,16,0,0,0-11.76,3.84,13.92,13.92,0,0,0-3.85,5.81c-1.81,6.14,2.78,14.45,11.74,19.87,0,4,.09,7.91.14,11.86-2.34-.3-5.54-1.12-7.72-3.65a9.88,9.88,0,0,1-2.08-4.16c-2.56-9.52-9.87-14.24-11.44-23.92-.52-3.18-.6-8.08,2.08-14.55.9-2.73,2.17-3.74,3.12-4.16C22.27,110.64,31.63,116.51,33.53,116.74Z"/><path class="cls-3" d="M37.45,121.77l-3.87,29.52A25.94,25.94,0,0,1,25,143.9c-2-2.73-5.44-7.35-4.16-12.48a10.89,10.89,0,0,1,2.87-4.9C28.49,121.37,35.84,121.67,37.45,121.77Z"/><path class="cls-2" d="M151.5,112.93l-2.26.14a19.5,19.5,0,0,0-2.18.41l4.3,6.93c5.58,2,9.49,6.82,9.83,12.05.46,7-5.55,14.09-14.13,14.86v13.46a14.5,14.5,0,0,0,8.93-3.36c2.94-2.64,2.77-5.28,5.2-11.44,3.54-8.94,5.81-8.2,7.28-14.56.51-2.18,2.42-10.4-2.08-14.55a8.76,8.76,0,0,0-4.16-2.08C154.63,113.26,152.1,112.89,151.5,112.93Z"/><path class="cls-3" d="M148.49,119.66v29.16c9.91-2.78,15-12.27,12.7-19.47C159.61,124.34,154.55,120.6,148.49,119.66Z"/><path class="cls-6" d="M152.8,134.74c-.5,8.79-2.15,18.69-2.15,18.69-1.53,9.1-2.4,14.33-5,20.94-2.48,6.25-5.8,13.82-12.91,20.18-2,1.81-5.65,3.95-12.91,8.23-4.88,2.87-7.32,4.31-9.33,5.23-16,7.36-32.55,2.12-34.43,1.5A72.53,72.53,0,0,1,66,205a112.38,112.38,0,0,1-15.07-9c-11.41-8.62-15.78-26-17.21-32.9a138.48,138.48,0,0,1-5-30.65c-.93-18.92-2-39.88,10.76-56.82,16.26-21.63,44.13-22.27,51.3-22.43,7.66-.18,35-.8,50.57,18.69C155.22,89.33,154,114,152.8,134.74Z"/><path class="cls-7" d="M68.54,133.27c-.2,1.82-2.75,3.06-4.77,3.09-3.12,0-6.27-2.81-5.85-4.83.36-1.75,3.43-2.84,5.85-2.45S68.75,131.28,68.54,133.27Z"/><rect class="cls-8" x="87.52" y="133.99" width="10.24" height="26.55" rx="3.69" ry="3.69" transform="translate(-8.11 5.42) rotate(-3.21)"/><path class="cls-7" d="M124.36,131.49c.11,2-2.34,3.74-4.49,4-3.07.39-6.47-2.15-6.27-4.29.18-1.86,3.07-3.28,5.47-3.22C121.29,128,124.24,129.39,124.36,131.49Z"/><path class="cls-7" d="M67.6,118.59c-4.2-1-7.66-.58-11.48-.17a46.08,46.08,0,0,0-8.22,1.66,8.07,8.07,0,0,1,1.84-3.26c1.94-2.06,4.71-2.6,8.14-2.71,7.91-.23,16.14,2,20,3.18a4.3,4.3,0,0,1-1.63,2.85C74.35,121.42,72,119.6,67.6,118.59Z"/><path class="cls-9" d="M109.2,165.93q-7.12-.19-14.56-.19-7.19,0-14.06.19a2.66,2.66,0,0,0-1.88.81,2.84,2.84,0,0,0-.78,2h0a7.69,7.69,0,0,0,.78,2c3.27,5.77,13.11,5.57,17,5.48,4.09-.08,12.43-.26,15.4-5.48a7.69,7.69,0,0,0,.78-2c-.19-.64-.39-1.28-.58-1.92Z"/><path class="cls-7" d="M28.08,121c-4.18,1.39-6.74.8-8.32,0-11.61-6-10.39-44.89,9.36-70.72a68,68,0,0,1,16.64-15.6c31.11-20.21,72.77-8.61,80.07,2.08a22.53,22.53,0,0,0,7.28,7.28c4.22,2.52,7.24,2.2,10.4,3.12,9.2,2.67,13.64,14.1,16.64,21.84,3.74,9.62,3.95,17.63,4.16,26a115,115,0,0,1-2.08,25l-10.4,2.08a54.37,54.37,0,0,0-9.36-20.8c-2.74-3.64-5-5.53-7.28-10.4C131.63,83.3,133,80.32,131,77.35c-5.5-8.25-28.39-1.45-60.31,8.32-21,6.43-30,10.52-36.4,19.76A38.67,38.67,0,0,0,28.08,121Z"/><path class="cls-7" d="M114.44,118.69c4.18-.87,7.6-.42,11.37.08a44.36,44.36,0,0,1,8.11,1.85,8.13,8.13,0,0,0-1.76-3.31c-1.89-2.09-4.62-2.7-8-2.88-7.83-.41-16,1.63-19.89,2.72a4.3,4.3,0,0,0,1.56,2.89C107.71,121.36,110.05,119.59,114.44,118.69Z"/><path class="cls-10" d="M143,146.9a93.69,93.69,0,0,1-19.85,2.2,94.38,94.38,0,0,1-20.72-2.2,2.58,2.58,0,0,1-1.82-.75,2.55,2.55,0,0,1-.75-1.82V123.74a2.57,2.57,0,0,1,2.57-2.57H143a2.57,2.57,0,0,1,2.57,2.57v20.59A2.57,2.57,0,0,1,143,146.9Z"/><path class="cls-10" d="M82.11,146.9a90.44,90.44,0,0,1-39.68,0,3.11,3.11,0,0,1-2.14-.88,3,3,0,0,1-.88-2.13v-19.7a3,3,0,0,1,3-3H82.11a3,3,0,0,1,3,3v19.7A3,3,0,0,1,82.11,146.9Z"/><path class="cls-11" d="M99.84,135.6a9.8,9.8,0,0,0-7.28-3.14,9.66,9.66,0,0,0-6.76,3.14v-2.18a9.62,9.62,0,0,1,14,0Z"/></g></svg>