<svg xmlns="http://www.w3.org/2000/svg" viewBox="0 0 187.08 261.81"><defs><style>.cls-1{fill:#f0ffed;}.cls-2{fill:#364034;stroke:#7e8580;}.cls-11,.cls-2{stroke-miterlimit:10;}.cls-3{fill:#f9d2b9;}.cls-4{fill:#e99280;}.cls-5{fill:#a3bf9d;}.cls-6{fill:#f7fff6;}.cls-7{fill:#f4bf9b;}.cls-8{fill:#011c29;}.cls-9{fill:#f8c49f;}.cls-10{fill:#eca68c;}.cls-11{fill:#66371d;stroke:#0e1600;stroke-width:2px;opacity:0.21;}.cls-12{fill:#0e1600;opacity:0.35;}</style></defs><title>icon</title><g id="图层_3" data-name="图层 3"><polygon class="cls-1" points="64.98 194.82 -2.43 215.34 -2.43 265.68 190.08 266.81 190.08 215.34 133.68 194.82 64.98 194.82"/><line class="cls-2" x1="-2.42" y1="230.62" x2="190.08" y2="230.62"/><line class="cls-2" x1="26.08" y1="207.12" x2="168.08" y2="207.12"/><line class="cls-2" x1="-2.42" y1="218.62" x2="190.58" y2="218.62"/><line class="cls-2" x1="-2.42" y1="242.62" x2="190.08" y2="242.62"/><line class="cls-2" x1="-2.42" y1="253.62" x2="190.08" y2="253.62"/><path class="cls-3" d="M126.69,228.42c-6.37-.45-15.68,0-23.41,6-6.48,5-9.42,12-11.48,11.22-3.07-1.23,3.38-17-2.15-22.43-2.8-2.75-9.4-3.56-26.18,5.23V167.79h63.22Z"/><path class="cls-4" d="M62.75,190.48a42.31,42.31,0,0,0,18.29,11C104.33,208.12,124.1,190,126,188.25l.27-14.4H62.39Z"/><path class="cls-5" d="M103.28,256.09a40.78,40.78,0,0,0-.72-24.68,37.71,37.71,0,0,0-6.45-11.21,13,13,0,0,1,5,.75c3.69,1.33,4.23,3.5,5.74,3.74,5.86.91,11.39-29.37,20.8-29.91,2.75-.16,5.81,3.11,7.18,4.49a19.47,19.47,0,0,1,4.3,6.72,74.74,74.74,0,0,1-8.61,23.18A72.69,72.69,0,0,1,103.28,256.09Z"/><path class="cls-6" d="M127.23,186.56q-15.56,16.81-31.12,33.64a21,21,0,0,1,8.61,6.73c5.74,7.6,5,16.84,4.82,18.69a177.85,177.85,0,0,0,14.38-16.45A185.56,185.56,0,0,0,139.15,206a36.75,36.75,0,0,0-4.64-11.21A32.83,32.83,0,0,0,127.23,186.56Z"/><path class="cls-5" d="M53.78,200a6.25,6.25,0,0,1,4.09-1.42c2.6.14,5,2.18,6,5.16a.91.91,0,0,1,.28-.34c1.44-1.08,5,3.6,11.19,7.82,4.48,3.05,9.21,5.1,14.35,9.72a4.25,4.25,0,0,1,.72.74c2.4,3.45-2.9,9.53-5.74,18.7a51.83,51.83,0,0,0-2.15,11.21,38.59,38.59,0,0,1-23.67-15.7C47.88,220,53.16,202,53.78,200Z"/><path class="cls-6" d="M63.11,186.56l27.26,35.13a17,17,0,0,0-8.61,3.74c-6.67,5.6-6.5,14.55-6.46,15.7a50.71,50.71,0,0,1-21.52-17.19,53,53,0,0,1-8.6-19.44,36.23,36.23,0,0,1,7.89-11.22A34.45,34.45,0,0,1,63.11,186.56Z"/><path class="cls-7" d="M41.36,91.55a11.91,11.91,0,0,1,2.08.46h0a16.67,16.67,0,0,1,2,.72L45,96.58a13.82,13.82,0,0,0-10.81,3.83,14.18,14.18,0,0,0-3.54,5.82c-1.66,6.13,2.56,14.45,10.78,19.86q.08,5.94.13,11.87a10.69,10.69,0,0,1-7.09-3.65,10.38,10.38,0,0,1-1.91-4.16c-2.35-9.52-9.06-14.25-10.51-23.92a28.43,28.43,0,0,1,1.92-14.56c.82-2.73,2-3.73,2.86-4.16C31,85.44,39.62,91.32,41.36,91.55Z"/><path class="cls-4" d="M45,96.58,41.4,126.09a24.42,24.42,0,0,1-7.91-7.38c-1.86-2.73-5-7.35-3.82-12.48a11.09,11.09,0,0,1,2.64-4.91C36.73,96.18,43.48,96.48,45,96.58Z"/><path class="cls-7" d="M149.72,87.74l-2.08.14a16.85,16.85,0,0,0-2,.4l4,6.93a14.2,14.2,0,0,1,9,12.06,14.48,14.48,0,0,1-13,14.86v13.46a12.76,12.76,0,0,0,8.21-3.36c2.7-2.65,2.54-5.28,4.78-11.44,3.24-8.94,5.33-8.2,6.68-14.56.47-2.19,2.22-10.4-1.91-14.56a7.93,7.93,0,0,0-3.82-2.08C152.6,88.07,150.27,87.7,149.72,87.74Z"/><path class="cls-4" d="M147,94.47v29.15c9.1-2.77,13.75-12.26,11.67-19.47C157.17,99.14,152.52,95.41,147,94.47Z"/><path class="cls-3" d="M150.91,109.55c-.45,8.79-2,18.69-2,18.69-1.4,9.09-2.21,14.32-4.62,20.93C142,155.42,139,163,132.46,169.36c-1.85,1.8-5.19,3.94-11.86,8.22-4.48,2.88-6.72,4.31-8.56,5.24-14.73,7.35-29.9,2.12-31.63,1.49a63.22,63.22,0,0,1-9.23-4.48,101.33,101.33,0,0,1-13.83-9c-10.49-8.61-14.5-26-15.82-32.89a149.36,149.36,0,0,1-4.61-30.65c-.86-18.92-1.81-39.89,9.88-56.83C61.74,28.85,87.34,28.22,93.92,28.05c7-.17,32.14-.79,46.45,18.7C153.14,64.14,152,88.84,150.91,109.55Z"/><path class="cls-8" d="M72.51,107.08c-.18,1.81-2.51,3.06-4.37,3.08-2.87,0-5.76-2.8-5.38-4.82.33-1.75,3.15-2.84,5.38-2.45S72.71,105.09,72.51,107.08Z"/><path class="cls-9" d="M97.65,135.25l-2.63.16a3.52,3.52,0,0,1-3.57-3.47l-1-19.15a3.61,3.61,0,0,1,3.19-3.89l2.63-.16a3.51,3.51,0,0,1,3.57,3.47l1,19.15A3.59,3.59,0,0,1,97.65,135.25Z"/><path class="cls-8" d="M124.79,106.3c.1,2-2.15,3.73-4.12,4-2.83.39-6-2.15-5.76-4.29.16-1.86,2.81-3.29,5-3.23C122,102.85,124.68,104.2,124.79,106.3Z"/><path class="cls-8" d="M72.66,93.4c-3.86-1-7-.59-10.55-.18a38.59,38.59,0,0,0-7.55,1.67,8.32,8.32,0,0,1,1.69-3.27c1.78-2.05,4.33-2.6,7.48-2.7,7.26-.24,14.82,2,18.39,3.17a4.35,4.35,0,0,1-1.49,2.85C78.85,96.22,76.72,94.41,72.66,93.4Z"/><path class="cls-10" d="M107.87,149.73q-6.54-.18-13.38-.18c-4.4,0-8.7.07-12.91.18a2.32,2.32,0,0,0-1.73.82,3,3,0,0,0-.72,2h0a8.65,8.65,0,0,0,.72,2c3,5.77,12.05,5.56,15.59,5.48,3.77-.09,11.43-.27,14.15-5.48a8.32,8.32,0,0,0,.72-2l-.54-1.92Z"/><path class="cls-8" d="M36.35,95.83c-3.83,1.39-6.19.81-7.64,0-10.67-6-9.54-44.89,8.6-70.72,6.45-9.18.77-14,15.28-15.59C87.38,5.67,119.44.91,126.15,11.6a21.53,21.53,0,0,0,6.68,7.27c3.88,2.53,6.65,2.2,9.56,3.12,8.44,2.68,12.52,14.1,15.28,21.84,3.43,9.62,3.62,17.63,3.82,26a124.5,124.5,0,0,1-1.91,25L150,96.87a56.85,56.85,0,0,0-8.6-20.8c-2.52-3.64-4.58-5.53-6.69-10.4-3.27-7.57,1.17-14.57-.66-17.55-5.06-8.24-50.68-12.76-80-3C34.75,51.56,48,71,42.08,80.23A41.12,41.12,0,0,0,36.35,95.83Z"/><path class="cls-8" d="M115.68,93.49c3.84-.86,7-.41,10.45.09a38.11,38.11,0,0,1,7.45,1.85A8.5,8.5,0,0,0,132,92.12c-1.74-2.1-4.25-2.7-7.36-2.88-7.19-.42-14.72,1.62-18.27,2.72a4.43,4.43,0,0,0,1.43,2.88C109.5,96.16,111.64,94.4,115.68,93.49Z"/><path class="cls-11" d="M141.94,114.61a115.65,115.65,0,0,1-18.24,1.51,116.33,116.33,0,0,1-19-1.51,2.92,2.92,0,0,1-1.67-.52,1.56,1.56,0,0,1-.69-1.24V98.74c0-1,1.06-1.76,2.36-1.76h37.28c1.3,0,2.36.79,2.36,1.76v14.11C144.3,113.82,143.24,114.61,141.94,114.61Z"/><path class="cls-12" d="M102.27,110.4a8.21,8.21,0,0,0-12.9,0v-2.18a8.37,8.37,0,0,1,12.9,0Z"/><path class="cls-11" d="M86.94,114.61a115.65,115.65,0,0,1-18.24,1.51,116.33,116.33,0,0,1-19-1.51,2.92,2.92,0,0,1-1.67-.52,1.56,1.56,0,0,1-.69-1.24V98.74c0-1,1.06-1.76,2.36-1.76H86.94c1.3,0,2.36.79,2.36,1.76v14.11C89.3,113.82,88.24,114.61,86.94,114.61Z"/></g></svg>