<svg xmlns="http://www.w3.org/2000/svg" viewBox="0 0 189 284.89"><defs><style>.cls-1{fill:#3a260b;}.cls-2{fill:#f9f9d2;}.cls-3{fill:#e99280;}.cls-4{fill:#f9d2b9;}.cls-5{fill:#1b2426;}.cls-6{fill:#eca68c;}</style></defs><title>icon</title><g id="图层_3" data-name="图层 3"><path class="cls-1" d="M22,105.89c-6.45,9.37-8.41,17.37-9,23-1,9.81,1.91,14.64-1,25-2.28,8.11-4.58,7-6,14-2,10.15,2.59,13.38,1,25-1,7.39-3.11,7.67-4,14-.91,6.48.06,14.78,6,25-.43,5.32.25,6.74,1,7,1.85.65,7.22-4.76,8-11,.3-2.4-.18-4.14,1-5,1.6-1.16,3.71,1.14,7,1,3.79-.16,4.65-3.36,9-6,5.11-3.09,7.87-1.07,15-3a33.83,33.83,0,0,0,13-7,167.15,167.15,0,0,0-1-35,171.71,171.71,0,0,0-25.92-69.72Z"/><path class="cls-1" d="M153.7,107.55c5.41,2.73,7.54,5.86,8.47,8.31,1.47,3.9-.17,6,.91,14.56.56,4.39,1.09,4.64,1,7.22-.18,4.38-3.76,11-3.76,11a13.94,13.94,0,0,0,1.7,7.25c2.26,4,5.63,4.62,8,7s4.37,7.42,2,18c6.53,5.36,8,9.82,8,13,0,5.86-4.73,9.25-3,13s7.5,2.57,9,6-2.37,9.31-6,12c-13.55,10-52.11-2.42-60-28-2.88-9.34-1-18.2,1-24a60.33,60.33,0,0,0,14.19-17c3.82-6.85,4.32-12.09,7.56-20.64Q148.15,121,153.7,107.55Z"/><path class="cls-2" d="M62,189.89l-62,27v68H189q-.5-32.49-1-65l-60-30Z"/><rect class="cls-3" x="61.61" y="158.47" width="66.89" height="57.14"/><path class="cls-4" d="M61.93,190.14a51,51,0,0,0,32.43,8c20.19-2,31.87-15.69,34.12-18.44V215.1c-.56,2.27-6.92,26.45-27.48,32.79-2.89.89-10.65,3.17-19,0-12-4.54-19.93-18.29-20.07-34.87Z"/><path class="cls-3" d="M41,130.31l-1.87-25.14c-1.56-.37-5.64-1.11-8.9,1.1-5.6,3.78-6,14.3-.8,19.9C33.52,130.61,39.74,130.38,41,130.31Z"/><path class="cls-4" d="M39.68,135.69a14.09,14.09,0,0,0,3.34-.62q-.65-4.4-1.31-8.77a12.05,12.05,0,0,1-7.11-1.56c-6.56-4-8.28-15.4-4.12-18.58,3.26-2.49,9.48.56,10.81,1.24,0-2.75.05-5.49.08-8.23-1.26-.89-10-6.91-15.85-3.76-7,3.78-5.26,18.23-1.38,26.57C29,132.5,38.43,135.77,39.68,135.69Z"/><path class="cls-3" d="M145.56,130.56V104.89c4.94-3.3,7.83-2.5,8.72-2.17,6.05,2.25,8.68,15.61,2.65,22.76C153.14,130,147.25,130.47,145.56,130.56Z"/><path class="cls-4" d="M147.21,135.93a14.38,14.38,0,0,1-3.43-.42v-4.95a14.69,14.69,0,0,0,7.8-3c7.22-5.73,8-19.12,3.06-22.27-3.45-2.2-9.15,1-10.86,1.94-.2-2.78-.39-5.57-.59-8.35,2.36-2,8.15-6.26,13.18-4.56,7.54,2.55,9.06,17,5.68,26.65C158.26,131.76,148.53,135.93,147.21,135.93Z"/><path class="cls-4" d="M148.64,114.16c-1.47,11.47-4.2,20.22-9.64,37.73-2.26,7.28-4.38,13.3-10,18-2.28,1.91-5.85,3.61-13,7-7.6,3.61-11.41,5.42-15,6a39.89,39.89,0,0,1-16.49-1.18A58.68,58.68,0,0,1,74,177.89c-6.09-2.67-11.63-5.11-16-9-4.84-4.31-6.94-9.24-10-18-6.2-17.76-9.41-26.63-10.74-36.73C34.73,94.77,32.72,79.47,41.4,64.4A53.89,53.89,0,0,1,53.25,50.47c4-3.49,17.33-14.75,37.63-15.33,17.86-.52,30.44,7.55,34.84,10.45A55.57,55.57,0,0,1,143.83,64.4c.42.74.85,1.54,1.28,2.49C152.18,82.57,149.71,105.9,148.64,114.16Z"/><ellipse class="cls-5" cx="73.5" cy="115.6" rx="5.5" ry="2.3"/><path class="cls-1" d="M56.73,105.2c.26,1.57,10.36-1,23.05,1.83,1.76.4,4.65,1.15,4.92.54s-2.29-2.52-4.7-3.68c-3-1.42-5.64-1.69-9-2a23.32,23.32,0,0,0-7,0C60.79,102.49,56.56,104.18,56.73,105.2Z"/><path class="cls-2" d="M99,234.2c8.18-.38,14.46-7.17,18.33-12.76,5.37-7.77,9.46-18.61,10.67-31.24,7.14,2.8,15.55,7.22,16,13.34.5,6.93-9.47,11.46-15.88,17.85-8.2,8.16-15,25-6,63.5H65.75A317.79,317.79,0,0,1,59,219.26c0-9.88.64-19.73.65-19.85h0c-.06-2.41.08-6.15,1.4-8.52a2.58,2.58,0,0,1,.76-.95.42.42,0,0,1,.24-.05c.74.1,1,2.64,1,3C63.55,197.76,79.72,235.09,99,234.2Z"/><path class="cls-3" d="M109.76,148.7a19,19,0,0,1-28.08,0v-3.12c4.58.2,9.36.32,14.32.31q7.14,0,13.76-.31Z"/><path class="cls-1" d="M59.8,73.37c1-.47,4.65-1.16,11.9-2.52C86,68.15,87.52,68,89.59,68.05c6.47.1,6.55,1.55,13.08,1.43,7.91-.16,8.2-2.3,12.94-1.58,6.23.95,10.61,5.39,15.47,10.33A62.38,62.38,0,0,1,137.43,86c3.38,4.62,5.28,7.22,6.48,10.72,1.75,5.09.5,7.69.62,14a50.16,50.16,0,0,0,3.79,17.85,42.89,42.89,0,0,0,18-23.82c2.52-9.67,1.48-16.54.07-21-1.21-3.85-2.39-5-5.53-11.77C155.6,60.56,157,59.49,154,54.19c-4.69-8.53-12.11-12.63-26.94-20.83-6.8-3.76-10.28-5.63-14.26-5.37a22.1,22.1,0,0,1-9-.61,18.2,18.2,0,0,1-4.09-1.82c-5.77-3.33-28.22-3.49-45.6,10C48.76,39.76,50.66,40,37.85,52.32a29.48,29.48,0,0,0-6.64,8.31c-1.73,3.37-2.35,6.46-3.47,12.16-.72,3.7-1,5.89-1.55,10.08C24.54,94.72,24.12,96.56,23.85,98c-1.55,8.1-2.2,8-2.51,11.12-.46,4.56.28,11.17,5.88,19.76a37.64,37.64,0,0,0,11.46-12.52c5.4-9.81,2-15.19,7.8-27.37C48.77,84.13,52.32,76.88,59.8,73.37Z"/><rect class="cls-6" x="93" y="119.89" width="7" height="18" rx="3" ry="3"/><path class="cls-1" d="M129.86,105.88c-.24,1.53-9.25-1.39-20.62,1-1.58.33-4.16,1-4.4.36s2.07-2.41,4.23-3.46c2.67-1.3,5.06-1.47,8.06-1.65a18.81,18.81,0,0,1,6.26.25C126.26,103.07,130,104.88,129.86,105.88Z"/><ellipse class="cls-5" cx="116.5" cy="115.6" rx="5.5" ry="2.3"/></g></svg>