<svg xmlns="http://www.w3.org/2000/svg" viewBox="0 0 186.62 285.71"><defs><style>.cls-1{fill:#666;}.cls-2{fill:#e99280;}.cls-3{fill:#fff;}.cls-4{fill:#333;}.cls-5{fill:#f4bf9b;}.cls-6{fill:#a20022;stroke:#512433;stroke-miterlimit:10;stroke-width:3px;}.cls-7{fill:#1b2426;}.cls-8{fill:#434349;}.cls-9{fill:#eca68c;}</style></defs><title>icon</title><g id="图层_3" data-name="图层 3"><path class="cls-1" d="M59.35,180.57-7.26,216.81v71.07H189.23V219l-65.49-38.43Z"/><rect class="cls-2" x="56.85" y="160.31" width="66.89" height="59.28"/><path class="cls-3" d="M56.85,217.5l66.89,3.32q-3,33.88-5.92,67.76h-55Q59.8,253,56.85,217.5Z"/><polyline class="cls-4" points="56.15 186.63 24.46 222.56 40.12 234.23 20.61 257.22 24.79 286.49 20.61 286.49 16.43 254.43 35.24 237.71 21.31 220.99 56.15 182.66"/><polyline class="cls-4" points="124.43 188.02 154.45 223.95 139.62 235.62 158.1 258.61 154.14 287.88 158.1 287.88 162.06 255.83 144.24 239.1 157.44 222.38 124.43 184.06"/><path class="cls-5" d="M63.81,195.9a45.59,45.59,0,0,0,25.78,6.27c16.84-1,27.42-11.3,30-13.93l-6.28,31.35-39.71,3Z"/><path class="cls-6" d="M100.05,253H84.72q-5.58-16.72-11.15-33.45h37.62Q105.63,236.32,100.05,253Z"/><path class="cls-6" d="M111.19,287.18H73.57Q79.14,270.11,84.72,253h15.33Q105.62,270.11,111.19,287.18Z"/><path class="cls-3" d="M56.92,181.87a80.92,80.92,0,0,0-.58,40.68,77.64,77.64,0,0,0,6.45,16.93,36.06,36.06,0,0,1,13-15.63A35.14,35.14,0,0,1,87.5,218.9q-5.81-7.29-11.84-14.64Q66.26,192.8,56.92,181.87Z"/><path class="cls-3" d="M123.79,180.59c-5.92,8.54-12.64,17.43-20.26,26.46q-5.25,6.22-10.45,11.85a51.61,51.61,0,0,1,24.39,19.51,91.26,91.26,0,0,0,6.32-57.82Z"/><path class="cls-2" d="M33.74,126.8,27.47,96.4c-1.6-.26-5.74-.66-8.56,2.43-4.84,5.3-3.4,18.17,2.72,24.35A13.41,13.41,0,0,0,33.74,126.8Z"/><path class="cls-5" d="M34.62,135.67l-2.07-9.26A16.05,16.05,0,0,1,24,123.09c-7-5.51-6.44-15-6.35-16.47.17-3,.39-6.66,3-8.54,2.88-2.08,7.71-1.28,11.95,2.18,0-1.68.05-3.37.07-5.06-3.89-8.24-9.79-12.59-14-11.41-3.63,1-5.24,5.95-6,8.3s-2.27,8.07,3,24.9c3.72,11.89,5.78,18.09,11,19.72C27.93,137.12,30.59,137.58,34.62,135.67Z"/><path class="cls-2" d="M148.21,126.06V96.7c5.5-3.78,8.72-2.85,9.71-2.48,6.74,2.58,9.67,17.86,3,26C156.65,125.4,150.08,126,148.21,126.06Z"/><path class="cls-5" d="M145.62,136.71l.6-10.65a10.11,10.11,0,0,0,3.95-.81c5.76-2.5,7.45-10,8.45-14.48,1.35-6,2.52-11.24-.3-13.56-2.56-2.11-7.56-1.14-12.1,2.22l-.6-6.3c2.06-3.2,6.26-8.67,11-8.3,7.41.57,13.38,15.23,11,25.94-.46,2.07-.49.63-6,12.45-3.52,7.54-4.68,10.64-8,12.45A12.26,12.26,0,0,1,145.62,136.71Z"/><path class="cls-5" d="M151.64,107.31c-3.42,29-9.94,42.88-12,47a57.31,57.31,0,0,1-10,14.52,51.77,51.77,0,0,1-14.4,10.64c-16.33,7.85-32.78,3.62-40.24,1.68-2.46-.64-4.35-1.27-5.57-1.68a69.09,69.09,0,0,1-18.63-9.57c-5.81-4.52-8.59-12.36-14.16-28a204.66,204.66,0,0,1-9.09-34.59,171.17,171.17,0,0,1-2.32-22.63c-.59-12.56.8-23.37,6.93-34.29a61.11,61.11,0,0,1,13.2-15.94c4.46-4,19.31-16.87,41.93-17.54,19.9-.58,33.93,8.64,38.82,12a62.8,62.8,0,0,1,20.19,21.52c.46.84.94,1.75,1.42,2.84C154.15,67.91,153.72,89.62,151.64,107.31Z"/><ellipse class="cls-7" cx="63.08" cy="97" rx="4.54" ry="3.59"/><ellipse class="cls-7" cx="116.14" cy="96.2" rx="4.52" ry="3.59"/><path class="cls-8" d="M48.29,88.89c.88.89,4.23-2.43,11.55-4.6,3.39-1,5.13-1,6.39-.77.36.08,1.56.34,3.27.57.62.08,1.28.16,2,.22,2.82.22,4.88.14,5.43-1s-.64-2.76-.77-2.94c-2.11-3-6.58-3-12.12-2.91-4.57,0-6.86.07-8.93,1.13C49.85,81.32,47.25,87.84,48.29,88.89Z"/><path class="cls-8" d="M130.49,89.21c-.79.73-3.38-2.36-9.35-4.66-2.77-1.07-4.23-1.18-5.29-1-.31,0-1.33.2-2.78.31-.51,0-1.07.06-1.71.07-2.36,0-4.08-.15-4.47-1.16s.72-2.37.84-2.52c2-2.46,5.69-2.22,10.31-1.85,3.82.3,5.73.45,7.39,1.49C129.68,82.52,131.43,88.36,130.49,89.21Z"/><rect class="cls-2" x="86.62" y="101.43" width="12" height="26.98"/><path d="M23.92,85.14c-1.48-6.18-11.8-28.28-2.3-48C34.92,9.44,40.56,6,48.62,4.94c0,0,46.54-1.83,61.62,4.92,5.24,2.34,7.93,3.55,10.4,6.64,1.51,1.89,2.17,3.54,4.16,4.43,3.14,1.41,5.88-.72,8.32-1.11C140.39,18.68,149.2,32.4,152.88,42c7.15,18.62.8,36.8-1.53,42.66l-9.91,4.95A44,44,0,0,0,139.36,73c-1.94-5.76-4.15-7.94-5.2-13.29a29,29,0,0,1,1-14.39c-1.88-4-5.39-9.83-11.44-12.18-11.57-4.5-22,7.85-41.6,14.39-7.8,2.61-19.91,5.25-36.4,3.32C47.9,69.76,45.7,76,42.64,77.39c-1.58.75-3.78.39-5.2,2.22-1.7,2.2-1,5.88,0,8.86Z"/><path class="cls-2" d="M105.38,156.51a19,19,0,0,1-28.08,0v-3.12q6.87.31,14.32.32,7.14,0,13.76-.32Z"/><path class="cls-9" d="M67.89,149.52,66,148.41a37.23,37.23,0,0,1,14.28-24.74l1.94,1.11a38.34,38.34,0,0,0-14.29,24.74Z"/><path class="cls-9" d="M117,150.31l2.09-1.09a35.55,35.55,0,0,0-13.23-25.32L103.72,125A36.5,36.5,0,0,1,117,150.31Z"/></g></svg>