<svg xmlns="http://www.w3.org/2000/svg" viewBox="0 0 196.49 298.06"><defs><style>.cls-1{fill:#f4bf9b;}.cls-2{fill:#e99280;}.cls-3{fill:#cabad1;}.cls-4{fill:#60605f;}.cls-5{fill:#011c29;}.cls-6{fill:#eca68c;}.cls-7{fill:#fff;}.cls-8{fill:#e6e6e6;}</style></defs><title>icon</title><g id="图层_3" data-name="图层 3"><path class="cls-1" d="M153.12,101.52a18.81,18.81,0,0,0-2.17.4,19.93,19.93,0,0,0-2.07.65l6.92,9.22a15.3,15.3,0,0,1,4.73-1.16c1.62-.12,2.62-.2,3.45.3,2.59,1.58,1.92,7.85,1.84,8.6-1,9.22-10.28,15-13,16.54l.46,3.89a18.68,18.68,0,0,0,4.36,0c8.69-1,15.21-11.6,16.41-21.41.72-6,0-16.12-4.85-18.63C165.1,97.82,157.76,101,153.12,101.52Z"/><path class="cls-2" d="M149.33,106.44l3.47,29.63a17,17,0,0,0,12.06-7.25A21.23,21.23,0,0,0,168,117.76c.13-2.8.27-5.6-1-7.84C164.64,105.52,157.41,104.12,149.33,106.44Z"/><path class="cls-3" d="M66.61,190.75,0,227v71.07H196.49V229.18L131,190.75Z"/><rect class="cls-2" x="64.1" y="172.64" width="66.89" height="57.14"/><path class="cls-1" d="M41.63,103.6a18.9,18.9,0,0,1,2.2.44,20.52,20.52,0,0,1,2.1.66l-7.11,8.38A17.43,17.43,0,0,0,34,111.86c-1.64-.16-2.66-.27-3.51.18-2.64,1.4-2,7.25-1.94,7.95.93,8.62,10.34,14.26,13.11,15.81l-.49,3.6a20.07,20.07,0,0,1-4.44-.11c-8.83-1.21-15.38-11.26-16.52-20.44-.69-5.59.15-15,5.08-17.21C29.47,99.79,36.91,102.93,41.63,103.6Z"/><path class="cls-2" d="M45.44,108.29,41.67,135.8c-1.41-.2-8.11-1.29-12.21-7.12a18.92,18.92,0,0,1-3.12-10.4c-.11-2.61-.23-5.23,1-7.28C29.88,107,37.24,105.89,45.44,108.29Z"/><path class="cls-1" d="M157.47,120.38a97.71,97.71,0,0,1-1.39,17.42,95.22,95.22,0,0,1-4.1,15.62c-.25.71-.81,2.27-1.47,3.89A62.68,62.68,0,0,1,138,176.12a53.67,53.67,0,0,1-21.6,12.54,61.79,61.79,0,0,1-33.44,1.4,54.1,54.1,0,0,1-24.39-12.55c-9.91-9.13-13.49-19.66-16.72-30.65a123.89,123.89,0,0,1-4.88-28.57C36,100.66,35,81.12,47.38,65.33,63.17,45.17,90.25,44.58,97.2,44.43c7.45-.16,34-.74,49.12,17.42C157.26,75,157.34,92.05,157.47,120.38Z"/><path class="cls-4" d="M150.49,107.38l9.16-4.2a67.36,67.36,0,0,0,5-24.64c0-5.44,0-20.34-9-34-17.85-27.1-57.08-28.28-60-23-.32.58-1,2.75-2.71,3.14-1.51.36-3-.9-3.29-1.14-3.73-2.92-30.45-6.09-48,10-11.14,10.22-13.38,23.42-15,33a79.45,79.45,0,0,0,4.53,42l11.14,1c-1.08-9.78-1.51-26,8-32.8,4.51-3.23,9.55-3.11,12.48-3.12,36.79-.11,67-22.74,74.88-12.48,2,2.66,2.82,7.81,4.16,16.64a26.92,26.92,0,0,0,3.6,10.3c.29.47.52.79.61,1A34,34,0,0,1,150.49,107.38Z"/><path d="M145,108.49a1.34,1.34,0,0,1,1.34,1.33v12.75a1.34,1.34,0,0,1-1.34,1.34H106.5a1.34,1.34,0,0,1-1.33-1.34V109.82a1.34,1.34,0,0,1,1.33-1.33H145m0-1H106.5a2.33,2.33,0,0,0-2.33,2.33v12.75a2.33,2.33,0,0,0,2.33,2.34H145a2.34,2.34,0,0,0,2.34-2.34V109.82a2.33,2.33,0,0,0-2.34-2.33Z"/><path d="M87.49,108.49a1.74,1.74,0,0,1,1.74,1.74v11.94a1.74,1.74,0,0,1-1.74,1.74H49.77A1.74,1.74,0,0,1,48,122.17V110.23a1.74,1.74,0,0,1,1.74-1.74H87.49m0-1H49.77A2.74,2.74,0,0,0,47,110.23v11.94a2.74,2.74,0,0,0,2.74,2.74H87.49a2.74,2.74,0,0,0,2.74-2.74V110.23a2.73,2.73,0,0,0-2.74-2.74Z"/><ellipse class="cls-5" cx="68.99" cy="115.85" rx="4.53" ry="4.18"/><path class="cls-4" d="M67.89,98.23a37.59,37.59,0,0,0-13.49,2,6.12,6.12,0,0,1,0-3.45c1-3,4.14-4,5-4.35,2.28-.78,4.34-.36,8.37.5a46.85,46.85,0,0,1,11.89,4.33c.46.24,5,3.17,4.54,4C83.76,102.32,76.9,98.6,67.89,98.23Z"/><rect class="cls-6" x="91.28" y="123.17" width="11.44" height="21.6" rx="3.81" ry="3.81"/><path class="cls-2" d="M114.57,156.41q-6.63.1-13.39.11-8.75,0-17.27-.11V160a167.45,167.45,0,0,0,18.31.67c4.35-.08,8.47-.32,12.35-.67Z"/><ellipse class="cls-5" cx="125.07" cy="115.5" rx="4.53" ry="4.18"/><rect x="90.3" y="115.16" width="14.04" height="1.56"/><path class="cls-6" d="M72.15,158.7l-1.93-1.11A37.23,37.23,0,0,1,84.5,132.85L86.44,134A38.34,38.34,0,0,0,72.15,158.7Z"/><path class="cls-7" d="M64.1,227.68,131,231q-3,33.88-5.92,67.75H70Q67.06,263.22,64.1,227.68Z"/><path class="cls-1" d="M71.07,206.08a45.68,45.68,0,0,0,25.78,6.27c16.84-1,27.41-11.31,30-13.93l-6.27,31.35-39.71,3Z"/><path class="cls-8" d="M107.3,263.22H92q-5.58-16.73-11.15-33.45h37.62Q112.89,246.49,107.3,263.22Z"/><path class="cls-8" d="M118.45,297.36H80.83Q86.4,280.29,92,263.22H107.3Q112.88,280.29,118.45,297.36Z"/><path class="cls-7" d="M64.18,192.05a80.81,80.81,0,0,0-.58,40.68,77.64,77.64,0,0,0,6.45,16.93,36.06,36.06,0,0,1,13-15.63,35.14,35.14,0,0,1,11.68-4.95q-5.82-7.29-11.84-14.64Q73.52,203,64.18,192.05Z"/><path class="cls-7" d="M131.05,190.77c-5.92,8.54-12.64,17.43-20.26,26.46q-5.25,6.22-10.45,11.85a51.53,51.53,0,0,1,24.38,19.51,91.17,91.17,0,0,0,6.33-57.82Z"/><path class="cls-6" d="M121.21,159.49l2.09-1.09a35.55,35.55,0,0,0-13.23-25.32L108,134.17a36.44,36.44,0,0,1,13.23,25.32Z"/><path class="cls-4" d="M126,98.45a31.16,31.16,0,0,1,12.19,1.85,6.64,6.64,0,0,0-.19-3.44c-1-2.93-3.92-4-4.74-4.27-2.08-.75-3.91-.31-7.48.59a38,38,0,0,0-10.42,4.43c-.39.25-4.26,3.21-3.85,4C112,102.69,118,98.91,126,98.45Z"/></g></svg>