<svg xmlns="http://www.w3.org/2000/svg" viewBox="0 0 196.49 299.99"><defs><style>.cls-1{fill:#1b2426;}.cls-2{fill:#191214;}.cls-3{fill:#e99280;}.cls-4{fill:#f9d2b9;}.cls-5{fill:#eca68c;}.cls-6{fill:#19152d;}.cls-7{fill:#0f070a;}</style></defs><title>icon</title><g id="图层_3" data-name="图层 3"><polygon class="cls-1" points="161.06 137.91 175.64 224.91 127.19 198.8 125.64 169.36 146.48 140.01 161.06 137.91"/><path class="cls-1" d="M16.64,230.91q.41-19.84,1-40,1-34,2.61-67.18l21.85,3.65,30.54,79.53Z"/><path class="cls-2" d="M66.61,192.68,0,228.92V300H196.49V231.11L131,192.68Z"/><rect class="cls-3" x="64.1" y="174.57" width="66.89" height="57.14"/><path class="cls-4" d="M64.42,206.24a51,51,0,0,0,32.43,8c20.19-2,31.88-15.69,34.13-18.44V231.2l-31.9-1L93.73,230l-29.31-.91Z"/><path class="cls-3" d="M43.44,146.41l-1.86-25.14c-1.57-.37-5.64-1.11-8.91,1.1-5.59,3.78-6,14.3-.79,19.9C36,146.71,42.23,146.47,43.44,146.41Z"/><path class="cls-4" d="M42.12,151.81a14.79,14.79,0,0,0,3.35-.61l-.29-4.86a14.39,14.39,0,0,1-7.86-2.44c-7.46-5.19-9-18.27-4.33-21.64,3.27-2.37,9.08.41,10.82,1.26l.09-8.23c-1.25-.89-10-6.93-15.84-3.79-7,3.76-5.31,18.21-1.45,26.56C31.48,148.6,40.87,151.88,42.12,151.81Z"/><path class="cls-3" d="M148.06,146.66V121c4.93-3.3,7.83-2.5,8.72-2.17,6,2.25,8.67,15.61,2.64,22.76C155.64,146.08,149.74,146.57,148.06,146.66Z"/><path class="cls-4" d="M149.7,152a14.3,14.3,0,0,1-3.42-.42v-5a14.66,14.66,0,0,0,7.79-3c7.22-5.73,8-19.12,3.06-22.27-3.45-2.2-9.15,1-10.85,1.94l-.6-8.35c2.36-2,8.15-6.26,13.19-4.56,7.54,2.55,9,17,5.67,26.64C160.76,147.86,151,152,149.7,152Z"/><path class="cls-4" d="M151.13,130.26c-3.55,25.12-5.33,37.68-14.95,48.94a64.68,64.68,0,0,1-17.73,14.18c-7.34,4-13.1,6.61-20.75,6.62-6.67,0-11.55-2.15-20.8-6.24l-.42-.19A52.88,52.88,0,0,1,61.3,182.32c-2.88-3.1-16.64-19.84-21.54-52.06C37.15,113.09,34.68,96.5,43.9,80.5A53.71,53.71,0,0,1,55.74,66.57c4-3.49,17.33-14.75,37.63-15.33,17.86-.52,30.45,7.55,34.84,10.45A55.48,55.48,0,0,1,146.32,80.5c.42.73.85,1.54,1.28,2.48C155,99.31,151.54,127.42,151.13,130.26Z"/><ellipse class="cls-1" cx="77.24" cy="133.52" rx="4.65" ry="3.12"/><path class="cls-1" d="M57.14,124.08c.56.7,3.93-3.15,9.36-3.12a21.34,21.34,0,0,1,8.43,2.17c.2.11,1.16.63,2.52,1.25.54.25,1.15.5,1.85.77,1.69.66,4.62,1.18,4.91.58.41-.87-4.45-4.93-10.43-6.85-2.8-.9-8-2.58-12.48,0C58.42,120.55,56.68,123.51,57.14,124.08Z"/><rect class="cls-5" x="91.46" y="135.52" width="7.74" height="20.8" rx="3.3" ry="3.3"/><path class="cls-6" d="M63.64,210.91c2.23,2.27,14.11,13.88,33,14.05,19.85.17,32.27-12.42,34.32-14.56.26,9,.28,18.35,0,28.08a481.51,481.51,0,0,1-5.9,62.2H70a311.17,311.17,0,0,1-6.65-64.28c0-9.69.63-19.33.63-19.45h0A29.84,29.84,0,0,0,63.64,210.91Z"/><polyline class="cls-7" points="64.16 199.06 31.91 234.48 47.39 246.4 27.52 269.08 31.23 298.41 27.05 298.34 23.38 266.23 42.45 249.8 28.78 232.86 64.22 195.09"/><polyline class="cls-7" points="131.22 200.32 161.59 235.95 146.87 247.76 165.58 270.57 161.91 299.88 165.87 299.84 169.51 267.75 151.53 251.2 164.56 234.35 131.18 196.36"/><ellipse class="cls-1" cx="114.04" cy="132.52" rx="4.65" ry="3.12"/><path class="cls-1" d="M96.66,75.2a160.55,160.55,0,0,0,15.6,16.64c11.72,10.86,17.79,13.26,25,21.84a65.68,65.68,0,0,1,12.47,23.92,12.88,12.88,0,0,0,5.2-3.12c3.42-3.44,3-7.29,6.24-9.36a8.07,8.07,0,0,1,5.2-1A79.36,79.36,0,0,0,162.17,96c-7.86-23-27.88-45.84-54.07-51a59.16,59.16,0,0,0-13.52-1Q95.62,59.6,96.66,75.2Z"/><path class="cls-1" d="M134,120.94c-.52.75-4.29-2.74-9.84-2.19a22.89,22.89,0,0,0-8.47,3c-.19.12-1.13.74-2.48,1.48-.53.3-1.13.61-1.83,1-1.68.81-4.64,1.61-5,1-.49-.82,4.16-5.31,10.13-7.8,2.8-1.16,8-3.33,12.79-1.2C132.35,117.56,134.38,120.33,134,120.94Z"/><rect class="cls-3" x="84.18" y="165.68" width="28.08" height="3.12"/><path class="cls-1" d="M102.54,82,89.64,93.91a105,105,0,0,1-15,11c-17,10.32-22.89,8.43-28,15-3.36,4.34-6,12.08-2,27l-6-14c-4,.3-13.67.47-18.34-5.53-5.52-7.08.22-18.08,4.34-30.47,2.82-8.45,9.21-26.78,28-40a73.28,73.28,0,0,1,42-13Q98.6,63,102.54,82Z"/></g></svg>