<svg xmlns="http://www.w3.org/2000/svg" viewBox="0 0 196.49 285.9"><defs><style>.cls-1{fill:#1b2426;}.cls-2{fill:#aa529d;}.cls-3{fill:#e99280;}.cls-4{fill:#f9d2b9;}.cls-5{fill:#eca68c;}.cls-6{fill:#19152d;}.cls-7{fill:#823482;}.cls-8{fill:#e0947c;}</style></defs><title>icon</title><g id="图层_3" data-name="图层 3"><path class="cls-1" d="M161.13,111a23.79,23.79,0,0,1,7.28,9.36c4.93,11.64-.51,27.31-13.52,39.52a20.86,20.86,0,0,0-9.36,17.68l-18.71-2.08Q136,156.7,146.57,137,153.83,123.62,161.13,111Z"/><path class="cls-2" d="M66.61,178.59,0,214.82V285.9H196.49V217L131,178.59Z"/><rect class="cls-3" x="64.1" y="160.48" width="66.89" height="57.14"/><path class="cls-4" d="M64.42,192.14a50.87,50.87,0,0,0,32.43,8.05c20.19-2,31.88-15.69,34.13-18.44V217.1l-31.9-1-5.35-.17L64.42,215Z"/><path class="cls-3" d="M43.44,132.31l-1.86-25.13c-1.57-.38-5.64-1.11-8.91,1.09-5.59,3.79-6,14.31-.79,19.91C36,132.62,42.23,132.38,43.44,132.31Z"/><path class="cls-4" d="M40.88,138.15a14.55,14.55,0,0,0,3.38-.41v-4.87a14.47,14.47,0,0,1-7.7-2.9c-7.13-5.62-7.88-18.78-3-21.87,3.4-2.16,9,1,10.72,1.91.19-2.73.39-5.47.59-8.2-1.2-1-9.53-7.52-15.59-4.74-7.26,3.33-6.39,17.86-3,26.42C30.45,134.31,39.63,138.15,40.88,138.15Z"/><path class="cls-3" d="M148.06,132.56V106.89c4.93-3.3,7.83-2.49,8.72-2.16,6,2.25,8.67,15.61,2.64,22.76C155.64,132,149.74,132.48,148.06,132.56Z"/><path class="cls-4" d="M149.7,137.94a14.83,14.83,0,0,1-3.42-.42v-5a14.55,14.55,0,0,0,7.79-2.95c7.22-5.73,8-19.13,3.06-22.27-3.45-2.2-9.15,1-10.85,1.94l-.6-8.36c2.36-2,8.15-6.25,13.19-4.55,7.54,2.55,9,17,5.67,26.64C160.76,133.77,151,137.94,149.7,137.94Z"/><path class="cls-4" d="M151.13,116.17c-3.55,25.12-5.33,37.68-14.95,48.94a64.89,64.89,0,0,1-17.73,14.18c-7.34,4-13.1,6.61-20.75,6.62-6.67,0-11.55-2.15-20.8-6.24l-.42-.19A52.88,52.88,0,0,1,61.3,168.23c-2.88-3.1-16.64-19.84-21.54-52.06C37.15,99,34.68,82.41,43.9,66.41A53.8,53.8,0,0,1,55.74,52.47c4-3.48,17.33-14.74,37.63-15.33A59.48,59.48,0,0,1,128.21,47.6a55.48,55.48,0,0,1,18.11,18.81c.42.73.85,1.53,1.28,2.48C155,85.22,151.54,113.33,151.13,116.17Z"/><ellipse class="cls-1" cx="74.32" cy="118.31" rx="4.65" ry="3.12"/><path class="cls-1" d="M56.1,107.91c.56.7,3.93-3.16,9.36-3.12A21.34,21.34,0,0,1,73.89,107c.2.11,1.16.63,2.52,1.25.54.24,1.15.5,1.85.77,2.36.92,4.15,1.38,4.91.58s.12-2.52.07-2.66c-1.36-3.65-7.17-4.66-10.5-5.23-4-.7-8.48-1.46-12.48,1C57.43,104.48,55.65,107.35,56.1,107.91Z"/><path class="cls-1" d="M136.18,106.87c-.33.61-2.4-.58-7.28-1-5.36-.51-8.93.34-10.41,1.27-.17.1-.92.59-2,1.18-.57.32-1.23.65-2,1-2.21,1-3.89,1.56-4.65.8a2.79,2.79,0,0,1-.24-2.65c.21-.62,1.11-2.73,8.91-4.73,5.48-1.41,8.22-2.11,11.44-1C133.74,102.94,136.6,106.07,136.18,106.87Z"/><path class="cls-1" d="M116.42,70.47A384.75,384.75,0,0,1,77.94,88.15c-9.09,3.56-18.88,6.95-25,16.64a32,32,0,0,0-4.16,10.4,64.38,64.38,0,0,0-1,21.84,66.31,66.31,0,0,0,13.52,31.2,55.48,55.48,0,0,1-29.12,6.24,27.25,27.25,0,0,0,5.2-14.56c.14-4-.72-9-8.32-21.84-7.72-13-10.61-13.23-12.48-18.72C11.36,104,18.24,88.88,22.82,78.79,27.15,69.26,38.44,44.39,66.5,32c19.9-8.79,42.83-8.92,51-4.16A51.55,51.55,0,0,0,128.9,33c4.88,1.54,7,1.42,9.36,2.08,7.1,2,8.87,9.55,16.63,25,10.16,20.17,14.38,21.68,14.56,31.2.1,4.73-1,5.27-2.08,16.64-.81,8.78-1,16-1,20.8l-15.6-8.32c-.61-6.37-3.2-24.21-17.67-38.48A58.65,58.65,0,0,0,116.42,70.47Z"/><rect class="cls-5" x="93.54" y="121.43" width="7.74" height="20.8" rx="3.3" ry="3.3"/><path class="cls-6" d="M64.42,197.34a47.52,47.52,0,0,0,32.24,13.52c19.83.23,32.28-12.41,34.32-14.56.26,9,.28,18.36,0,28.08a481.5,481.5,0,0,1-5.9,62.21H70a311.2,311.2,0,0,1-6.65-64.29c0-9.74.63-19.44.63-19.44C64.17,200.5,64.32,198.57,64.42,197.34Z"/><polyline class="cls-7" points="64.16 184.96 31.91 220.39 47.39 232.3 27.52 254.99 31.23 284.31 27.05 284.25 23.38 252.13 42.45 235.71 28.78 218.77 64.22 181"/><polyline class="cls-7" points="131.22 186.23 161.59 221.86 146.87 233.67 165.58 256.48 161.91 285.79 165.87 285.75 169.51 253.66 151.53 237.11 164.56 220.26 131.18 182.26"/><path class="cls-8" d="M97.7,155.75c-8.09-.13-16.77-3.82-16.64-6.76,0-1.14,1.41-2,2.6-2.6h29.12c1.29.63,2.55,1.5,2.6,2.6C115.5,152,106.28,155.88,97.7,155.75Z"/><ellipse class="cls-1" cx="118" cy="118.31" rx="4.65" ry="3.12"/></g></svg>