<svg xmlns="http://www.w3.org/2000/svg" viewBox="0 0 184 292.37"><defs><style>.cls-1{fill:#666;}.cls-2{fill:#e99280;}.cls-3{fill:#fff;}.cls-4{fill:#333;}.cls-5{fill:#f4bf9b;}.cls-6{fill:#582ddf;stroke:#512433;stroke-miterlimit:10;stroke-width:3px;}.cls-7{fill:#011c29;}.cls-8{fill:#eca68c;}</style></defs><title>icon</title><g id="图层_3" data-name="图层 3"><path class="cls-1" d="M56.73,194.23q-33.3,18.12-66.61,36.23v71.08h196.5V232.66l-65.5-38.43Z"/><rect class="cls-2" x="54.23" y="176.11" width="66.89" height="57.14"/><path class="cls-3" d="M54.23,231.16l66.89,3.32q-3,33.87-5.92,67.75h-55Q57.2,266.7,54.23,231.16Z"/><polyline class="cls-4" points="53.53 200.28 21.85 236.22 37.5 247.88 17.99 270.88 22.18 300.14 17.99 300.14 13.81 268.09 32.63 251.37 18.69 234.64 53.53 196.32"/><polyline class="cls-4" points="121.81 201.68 151.83 237.61 137 249.28 155.48 272.27 151.52 301.54 155.48 301.54 159.44 269.48 141.62 252.76 154.82 236.04 121.81 197.71"/><path class="cls-5" d="M61.19,209.56A45.72,45.72,0,0,0,87,215.83c16.83-1,27.41-11.31,30-13.93l-6.27,31.35-39.72,3Z"/><path class="cls-6" d="M97.43,266.7H82.1Q76.52,250,71,233.25h37.63Q103,250,97.43,266.7Z"/><path class="cls-6" d="M108.58,300.84H71q5.58-17.07,11.15-34.14H97.43Q103,283.77,108.58,300.84Z"/><path class="cls-3" d="M54.3,195.53a80.92,80.92,0,0,0-.58,40.68,77.84,77.84,0,0,0,6.45,16.93,36.14,36.14,0,0,1,13-15.63,35.36,35.36,0,0,1,11.69-5Q79.07,225.27,73,217.92,63.63,206.46,54.3,195.53Z"/><path class="cls-3" d="M121.17,194.25c-5.92,8.54-12.64,17.42-20.26,26.46q-5.25,6.22-10.45,11.84a51.78,51.78,0,0,1,24.39,19.51,91.22,91.22,0,0,0,6.32-57.81Z"/><path class="cls-5" d="M34,87.18c1.19.18,2.27.47,2.27.47h0a21.83,21.83,0,0,1,2.16.71l-.51,3.85c-9.13.53-16.44,5.52-17.37,12.56s4.83,13.89,13.49,17c0,4,.1,7.91.14,11.86A24,24,0,0,1,22,128.36c-9-7.52-9-20.09-9-26.5A50.39,50.39,0,0,1,15.05,87.3C25.52,87,33.16,87.05,34,87.18Z"/><path class="cls-2" d="M37.94,92.21l-3.88,29.52a19.83,19.83,0,0,1-10.69-7.39c-1.21-1.7-3.49-4.94-3.12-9.36a13.18,13.18,0,0,1,3.91-8C29.31,91.6,36.73,92.11,37.94,92.21Z"/><path class="cls-5" d="M149,87.37l-2.25.14h0a22.06,22.06,0,0,0-2.18.4c1.43,2.32,2.87,4.63,4.3,6.94,5.58,2,9.49,6.82,9.83,12.05.46,7-5.55,14.09-14.13,14.86v13.46A28.18,28.18,0,0,0,166,105.86a30,30,0,0,0-6.24-16.63C153,87.64,150.16,87.3,149,87.37Z"/><path class="cls-2" d="M146,94.1v29.16c9.91-2.78,15-12.27,12.7-19.48C157.1,98.78,152,95,146,94.1Z"/><path class="cls-5" d="M150.29,103.8c-.5,10-2.16,21.19-2.16,21.19-1.52,10.31-2.39,16.24-5,23.73-1.9,5.42-5.2,15.38-12.91,22.89-1.47,1.43-1.1.83-15.2,9.78-11.12,7.06-11.3,7.41-13.52,8.25a35.78,35.78,0,0,1-20.8,1.18c-2.72-.65-4.92-1.52-19.75-10.61-10.48-6.42-15.72-9.63-16.64-10.61C37.85,162.76,35.2,154,31.2,136c-2.16-9.71-4.38-20.14-5-34.75-.93-21.44-2-45.21,10.76-64.41C53.2,12.32,81.07,11.6,88.23,11.42c7.67-.2,35-.91,50.58,21.19C152.71,52.32,151.45,80.33,150.29,103.8Z"/><path class="cls-7" d="M71.21,107.38c-.1,1.82-2.58,3.21-4.6,3.34-3.11.21-6.41-2.47-6.1-4.5.27-1.77,3.27-3,5.71-2.76S71.32,105.38,71.21,107.38Z"/><rect class="cls-8" x="86.05" y="114.47" width="7.89" height="22.39" rx="3.69" ry="3.69"/><path class="cls-7" d="M121.73,106c.43,1.93-1.69,4.07-3.76,4.7-3,.89-6.75-1-6.9-3.2-.13-1.86,2.48-3.74,4.86-4.08C118.13,103.15,121.26,104,121.73,106Z"/><path class="cls-7" d="M62.17,92.34a20.06,20.06,0,0,0-7.28-1c-4.93.35-7.41,3-8.32,2.08s.35-3.56,2.08-5.19a8.4,8.4,0,0,1,5.2-2.08c1.68-.19,3.7-.07,9.36,2.08,2.13.81,5,2,8.29,3.63a4,4,0,0,1-1.84,2.72C67.9,95.39,66.15,93.6,62.17,92.34Z"/><path class="cls-7" d="M148.24,102.74a3.93,3.93,0,0,0,3.12,0c3.31-1.79.38-9.78,4.16-12.48,1.81-1.28,3,.13,5.2-1,2.89-1.58,3.47-5.68,4.16-13.52.91-10.26,1.36-15.39,1-17.68-.58-4.15-1.74-12.4-8.32-19.76a33.73,33.73,0,0,0-18.72-10.4,60.94,60.94,0,0,0-18.72-15.6C94.72-1.28,76.26,1.46,65,5.37c-8.63,3-17.26,5.13-25,12-17.35,15.38-27.63,45-28,52.1q1,10.92,2.08,21.83c5.62-.65,8.11.73,9.36,2.08,3.18,3.47,1.05,9.87,4.16,11.44a4.09,4.09,0,0,0,3.12,0c-2-12.26.45-20,3.12-24.95C36,76,30.56,69.2,34,64.37c2.91-4.08,13.5-5.28,15.45-14.66C64.81,55.14,76.9,39.52,84,37.37c10.72-3.26,21.34-19.75,34-21,5-.5,18.44,16.81,20,26,.93,5.43,1.35,8.5,8,19,4.28,6.75.9,8.3,2.24,13.3.94,3.5.36,5.3,0,12.48C148.06,90.85,147.93,96.19,148.24,102.74Z"/><path class="cls-7" d="M113.2,92.81a16.59,16.59,0,0,1,6.61-1.23c4.57.2,7.1,2.77,7.85,1.82s-.64-3.51-2.38-5.07a8,8,0,0,0-5-1.91c-1.57-.13-3.42,0-8.44,2.32a76,76,0,0,0-7.31,3.82,4.33,4.33,0,0,0,1.93,2.63C108.19,96,109.64,94.16,113.2,92.81Z"/><rect class="cls-2" x="72.29" y="150.22" width="33.26" height="4.83" rx="2.32" ry="2.32"/><path class="cls-8" d="M65.27,155.18l-1.93-1.12a37.29,37.29,0,0,1,14.28-24.74l1.94,1.12a38.34,38.34,0,0,0-14.29,24.74Z"/><path class="cls-8" d="M111.34,156l2.08-1.09a35.5,35.5,0,0,0-13.23-25.32l-2.08,1.09A36.54,36.54,0,0,1,111.34,156Z"/></g></svg>