<svg xmlns="http://www.w3.org/2000/svg" viewBox="0 0 196.49 293.77"><defs><style>.cls-1{fill:#2b1d33;}.cls-2{fill:#e99280;}.cls-3{fill:#a2c4ff;stroke:#b9e9ff;}.cls-11,.cls-3,.cls-6{stroke-miterlimit:10;}.cls-4{fill:#18151e;}.cls-5{fill:#f4bf9b;}.cls-6{fill:#f6d0ff;stroke:#ee5cff;}.cls-7{fill:#1b2426;}.cls-8{fill:#efae8f;}.cls-9{fill:#434349;}.cls-10{fill:#333;}.cls-11{fill:none;stroke:#a8a8a8;}.cls-12{fill:#a8a8a8;}</style></defs><title>icon</title><g id="图层_3" data-name="图层 3"><path class="cls-1" d="M66.61,183.67,0,220.85v72.92H196.49V223.1L131,183.67Z"/><rect class="cls-2" x="64.1" y="165.08" width="66.89" height="58.63"/><path class="cls-3" d="M64.1,221.56,131,225q-3,34.75-5.92,69.52H70Q67.06,258,64.1,221.56Z"/><polyline class="cls-4" points="63.41 189.88 31.72 226.75 47.38 238.72 27.87 262.31 32.05 292.34 27.87 292.34 23.69 259.45 42.5 242.29 28.57 225.13 63.41 185.81"/><polyline class="cls-4" points="131.69 191.31 161.71 228.18 146.88 240.15 165.36 263.74 161.4 293.77 165.36 293.77 169.32 260.88 151.5 243.72 164.7 226.56 131.69 187.24"/><path class="cls-5" d="M71.07,199.4a44.77,44.77,0,0,0,25.78,6.43c16.84-1.05,27.41-11.6,30-14.3l-6.27,32.18-39.71,3Z"/><path class="cls-6" d="M107.3,258H92q-5.58-17.16-11.15-34.31h37.62Q112.89,240.85,107.3,258Z"/><path class="cls-6" d="M118.45,293.06H80.83Q86.4,275.54,92,258H107.3Q112.88,275.54,118.45,293.06Z"/><path class="cls-3" d="M64.18,185a85,85,0,0,0-.58,41.74,80.84,80.84,0,0,0,6.45,17.37,36.85,36.85,0,0,1,13-16A34.84,34.84,0,0,1,94.76,223q-5.82-7.47-11.84-15Q73.52,196.22,64.18,185Z"/><path class="cls-3" d="M131.05,183.69c-5.92,8.76-12.64,17.88-20.26,27.15q-5.25,6.38-10.45,12.15a51.4,51.4,0,0,1,12.54,7.15A52.54,52.54,0,0,1,124.72,243a95.53,95.53,0,0,0,7.67-27.17A96.35,96.35,0,0,0,131.05,183.69Z"/><path class="cls-2" d="M43.44,136.18l-1.86-25.79c-1.57-.38-5.64-1.14-8.91,1.13-5.59,3.88-6,14.67-.79,20.42C36,136.5,42.23,136.26,43.44,136.18Z"/><path class="cls-5" d="M40.88,142.17a14,14,0,0,0,3.38-.42v-5a14.28,14.28,0,0,1-7.7-3c-7.13-5.77-7.88-19.27-3-22.44,3.4-2.22,9,1,10.72,2,.19-2.81.39-5.61.59-8.42-1.2-1-9.53-7.71-15.59-4.86-7.26,3.42-6.39,18.33-3,27.12C30.45,138.23,39.63,142.17,40.88,142.17Z"/><path class="cls-2" d="M148.06,136.44V110.1c4.93-3.38,7.83-2.55,8.72-2.22,6,2.31,8.67,16,2.64,23.36C155.64,135.85,149.74,136.36,148.06,136.44Z"/><path class="cls-5" d="M149.7,142a14.3,14.3,0,0,1-3.42-.43v-5.09a14.36,14.36,0,0,0,7.79-3c7.22-5.88,8-19.62,3.06-22.85-3.45-2.26-9.15,1-10.85,2l-.6-8.57c2.36-2,8.15-6.42,13.19-4.68,7.54,2.62,9,17.47,5.67,27.34C160.76,137.68,151,142,149.7,142Z"/><path class="cls-5" d="M151.13,119.62c-3.74,29.69-5.76,44.7-13.17,52.61-7,7.48-15.06,10.49-19.51,12.15-19.19,7.17-36.25,1.65-41.11,0a51.21,51.21,0,0,1-16.72-8.58c-15.21-12.24-17.69-31.56-20.86-56.18-2.7-21-4.39-35.87,4.14-51.06a54.77,54.77,0,0,1,11.84-14.3c4-3.57,17.33-15.13,37.63-15.73,17.86-.52,30.45,7.75,34.84,10.73a56.3,56.3,0,0,1,18.11,19.3c.42.76.85,1.58,1.28,2.55C154.69,87.24,151.7,115.18,151.13,119.62Z"/><ellipse class="cls-7" cx="70.72" cy="113.96" rx="3.14" ry="3.22"/><ellipse class="cls-7" cx="120.2" cy="114.31" rx="3.14" ry="3.22"/><ellipse class="cls-8" cx="92.56" cy="138.07" rx="1.83" ry="1.8" transform="translate(-68.55 97.14) rotate(-41.91)"/><ellipse class="cls-8" cx="99.52" cy="138.07" rx="1.78" ry="1.85" transform="translate(-49.52 55.89) rotate(-25.34)"/><path class="cls-2" d="M105.65,151.6a39.32,39.32,0,0,1-20.33,0,1,1,0,0,1-1-1v-.88a1,1,0,0,1,1-1,25.1,25.1,0,0,0,20.33,0,1,1,0,0,1,.72.3,1.07,1.07,0,0,1,.29.74v.88A1,1,0,0,1,105.65,151.6Z"/><path class="cls-9" d="M57.83,104.31c.46.76,3.23-1.33,8.67-1.7a21.28,21.28,0,0,1,7.83.6,47.46,47.46,0,0,0,4.64,1.3c2.49.52,4.33.67,4.94-.26a2.78,2.78,0,0,0-.38-2.7c-1.29-2-3.91-1.62-10.79-2.14-6.66-.51-8-1.16-10.4,0C59.42,100.79,57.39,103.58,57.83,104.31Z"/><path class="cls-9" d="M133.59,104.31c-.61.75-2.57-1.08-6.77-1.7a20.25,20.25,0,0,0-9,.62,41.32,41.32,0,0,1-4.41,1.28c-2.37.52-4.13.67-4.71-.26a2.84,2.84,0,0,1,.36-2.7c1.32-2.08,4.1-1.63,10.48-2.14,7.34-.59,9.15-1.63,11.44,0C133,100.87,134.2,103.57,133.59,104.31Z"/><path class="cls-8" d="M78.74,145.78a24.16,24.16,0,0,0-4.3,3.88q-.84,1-1.56,2a56.09,56.09,0,0,0-.39,8.42c.05,1.94.2,3.68.39,5.19-.07.62.14,1.18.39,1.29s.71-.31.75-1.09c-.17-1.37-.31-3-.36-4.74a50,50,0,0,1,.39-7.78,10.49,10.49,0,0,1,.78-1.94,5.75,5.75,0,0,1,3.91-3.24Z"/><path class="cls-8" d="M110.09,145.78a24.49,24.49,0,0,1,4.45,3.88c.59.65,1.12,1.3,1.62,2a54.64,54.64,0,0,1,.4,8.42c0,1.94-.21,3.68-.4,5.19.07.62-.14,1.18-.41,1.29s-.74-.31-.78-1.09a46.51,46.51,0,0,0,.38-4.74,48.67,48.67,0,0,0-.4-7.78,10.71,10.71,0,0,0-.81-1.94,6,6,0,0,0-4-3.24Z"/><path class="cls-10" d="M28,99.41c-1.49-6-5.34-24.71,4.16-43.75C45.48,29,74,23.63,82.1,22.58c0,0,17.16-2.24,32.24,4.26,5.24,2.27,7.93,3.43,10.4,6.41,1.51,1.82,2.17,3.41,4.16,4.27,3.14,1.35,5.87-.7,8.32-1.07,7.27-1.1,16.07,12.12,19.75,21.34,7.16,17.94.8,35.46-1.52,41.11l-9.92,4.77a40.64,40.64,0,0,0-2.08-16c-1.93-5.55-4.15-7.65-5.19-12.81a27,27,0,0,1,1-13.87c-1.89-3.83-5.39-9.47-11.44-11.74-11.57-4.33-22,7.57-41.6,13.87-7.81,2.52-19.91,5.07-36.4,3.21,2.13,18.24-.07,24.23-3.12,25.61-1.58.71-3.78.37-5.2,2.13-1.7,2.12-1,5.67,0,8.54Z"/><rect class="cls-11" x="46.93" y="107.61" width="43.2" height="20.73" rx="6.15" ry="6.15"/><rect class="cls-11" x="102.34" y="107.93" width="43.2" height="20.73" rx="6.15" ry="6.15"/><rect class="cls-12" x="89.9" y="113.81" width="11.96" height="3.03"/></g></svg>