<svg xmlns="http://www.w3.org/2000/svg" viewBox="0 0 196.49 303.94"><defs><style>.cls-1{fill:#f2b186;}.cls-2{fill:#e99280;}.cls-3{fill:#333;}.cls-4{fill:#011c29;}.cls-5{fill:#fff;}</style></defs><title>icon</title><g id="图层_3" data-name="图层 3"><path class="cls-1" d="M153.12,107.4a18.81,18.81,0,0,0-2.17.4,19.9,19.9,0,0,0-2.07.64q3.45,4.62,6.92,9.22a15.33,15.33,0,0,1,4.73-1.15c1.62-.13,2.62-.21,3.45.3,2.59,1.58,1.92,7.84,1.84,8.6-1,9.22-10.28,15-13,16.54l.46,3.88a18.15,18.15,0,0,0,4.36,0c8.69-1,15.21-11.6,16.41-21.42.72-6,0-16.11-4.85-18.62C165.1,103.7,157.76,106.84,153.12,107.4Z"/><path class="cls-2" d="M149.33,112.31,152.8,142a17,17,0,0,0,12.06-7.25A21.23,21.23,0,0,0,168,123.64c.13-2.8.27-5.6-1-7.84C164.64,111.4,157.41,110,149.33,112.31Z"/><path class="cls-3" d="M66.61,196.63,0,232.86v71.08H196.49V235.06L131,196.63Z"/><rect class="cls-2" x="64.1" y="178.51" width="66.89" height="57.14"/><path class="cls-1" d="M41.63,109.48a18.9,18.9,0,0,1,2.2.44,18.31,18.31,0,0,1,2.1.66L38.82,119A17.43,17.43,0,0,0,34,117.74c-1.64-.17-2.66-.27-3.51.18-2.64,1.39-2,7.25-1.94,8,.93,8.62,10.34,14.26,13.11,15.81l-.49,3.6a20.69,20.69,0,0,1-4.44-.11C27.91,144,21.36,133.9,20.22,124.73c-.69-5.59.15-15,5.08-17.21C29.47,105.67,36.91,108.81,41.63,109.48Z"/><path class="cls-2" d="M45.44,114.17l-3.77,27.51c-1.41-.2-8.11-1.29-12.21-7.12a18.92,18.92,0,0,1-3.12-10.4c-.11-2.61-.23-5.23,1-7.28C29.88,112.86,37.24,111.77,45.44,114.17Z"/><path class="cls-1" d="M157.47,126.26a97.52,97.52,0,0,1-1.39,17.41A95.09,95.09,0,0,1,152,159.3c-.25.71-.81,2.27-1.47,3.89A62.84,62.84,0,0,1,138,182a53.67,53.67,0,0,1-21.6,12.54,61.64,61.64,0,0,1-33.44,1.39,54,54,0,0,1-24.39-12.54c-9.91-9.13-13.49-19.66-16.72-30.66a123.69,123.69,0,0,1-4.88-28.56C36,106.54,35,87,47.38,71.21,63.17,51.05,90.25,50.46,97.2,50.31c7.45-.17,34-.75,49.12,17.42C157.26,80.86,157.34,97.93,157.47,126.26Z"/><path class="cls-4" d="M150.49,113.26l9.16-4.2c2-4.49,9.53-22.88,1.89-43.14-5.89-15.59-17.49-23.62-23.92-28.08-5.06-3.5-22.7-15.34-46.8-13.52S40.25,41.39,30.5,68c-7.68,21-1.71,40,.64,46.39l11.14,1a132.62,132.62,0,0,0,8-32.8c.45-4.26.56-7.63,3.12-10.4,5.49-5.94,15.85-2.21,28.08-1,30.89,3,49.72-12.7,56.16-4.16,2,2.69,2.81,7.76,4.16,16.64a26.84,26.84,0,0,0,3.6,10.29c.29.48.52.8.61,1A34,34,0,0,1,150.49,113.26Z"/><ellipse class="cls-4" cx="68.99" cy="120.86" rx="4.53" ry="3.3"/><path class="cls-4" d="M84.58,108.56c-5.59-1.43-10.88-2.74-16.64-4.16-2.64-.65-5.45-1.31-8.32,0a10.19,10.19,0,0,0-4.57,4.44,6.1,6.1,0,0,1-.63-3.4c.39-3.08,3.33-4.73,4.16-5.2,2.1-1.18,4.2-1.15,8.32-1a46.89,46.89,0,0,1,12.48,2.08c3.27,1,4.56,1.77,5.2,3.12A5.58,5.58,0,0,1,84.58,108.56Z"/><rect class="cls-2" x="91.28" y="123.84" width="11.44" height="21.6" rx="3.81" ry="3.81"/><path class="cls-2" d="M113.57,156.29a38,38,0,0,1-30.66,0v3.6a32.9,32.9,0,0,0,30.66,0Z"/><ellipse class="cls-4" cx="125.07" cy="120.68" rx="4.53" ry="3.48"/><path class="cls-5" d="M64.1,233.56l66.9,3.32q-3,33.89-5.92,67.75H70Q67.06,269.1,64.1,233.56Z"/><polyline points="63.41 202.68 31.72 238.62 47.38 250.28 27.87 273.28 32.05 302.54 27.87 302.54 23.69 270.49 42.5 253.77 28.57 237.04 63.41 198.72"/><polyline points="131.69 204.08 161.71 240.01 146.88 251.68 165.36 274.67 161.4 303.94 165.36 303.94 169.32 271.88 151.5 255.16 164.7 238.44 131.69 200.12"/><path class="cls-1" d="M71.07,212a45.68,45.68,0,0,0,25.78,6.27c16.84-1,27.41-11.31,30-13.93l-6.27,31.35-39.71,3Z"/><path class="cls-5" d="M64,198a92.22,92.22,0,0,0,.42,43.32,91.12,91.12,0,0,0,6.81,18.19,35.71,35.71,0,0,1,12.55-16.33,32.18,32.18,0,0,1,11.47-5q-6-7.89-12.11-15.87Q73.53,209.85,64,198Z"/><path class="cls-5" d="M131.22,196.68c-6,9.41-12.82,19.22-20.5,29.2q-5.31,6.88-10.54,13.1a47,47,0,0,1,12.17,7.29,51.26,51.26,0,0,1,11.36,13.37,110.71,110.71,0,0,0,8.13-28.94A109.23,109.23,0,0,0,131.22,196.68Z"/><path class="cls-4" d="M108.59,109.17c5.91-1.72,11.51-3.31,17.61-5,2.8-.79,5.77-1.59,8.92-.49a10.55,10.55,0,0,1,5.14,4,5.53,5.53,0,0,0,.49-3.34c-.58-3-3.82-4.41-4.74-4.81-2.32-1-4.57-.87-9-.52a55.2,55.2,0,0,0-13.26,2.77c-3.45,1.16-4.79,2-5.41,3.34A5,5,0,0,0,108.59,109.17Z"/></g></svg>