<svg xmlns="http://www.w3.org/2000/svg" viewBox="0 0 196.49 281.97"><defs><style>.cls-1{fill:#1b2426;}.cls-2{fill:#564649;}.cls-3{fill:#e99280;}.cls-4{fill:#f9d2b9;}.cls-5{fill:#eca68c;}.cls-6{fill:#19152d;}.cls-7{fill:#30262a;}</style></defs><title>icon</title><g id="图层_3" data-name="图层 3"><path class="cls-1" d="M161.13,107.1c5,3.42,6.7,6.81,7.28,9.36.94,4.06-1,5.89-1,14.56,0,4.42.45,4.74,0,7.28-.88,4.95-3.5,8-5.2,10.4a45,45,0,0,0-7.28,17.68,11,11,0,0,1-6.24,6.24,10.83,10.83,0,0,1-7.27,0c0,.22-.82,5-4.16,6.24s-8.72-1.4-10.4-7.28q9.15-18.81,19.75-38.48Q153.83,119.69,161.13,107.1Z"/><path class="cls-2" d="M66.61,174.66,0,210.89V282H196.49V213.09L131,174.66Z"/><rect class="cls-3" x="64.1" y="156.55" width="66.89" height="57.14"/><path class="cls-4" d="M64.42,188.21a50.87,50.87,0,0,0,32.43,8c20.19-2,31.88-15.7,34.13-18.44v35.35l-31.9-1L93.73,212l-29.31-.92Z"/><path class="cls-3" d="M43.44,128.38l-1.86-25.13c-1.57-.38-5.64-1.11-8.91,1.09-5.59,3.79-6,14.31-.79,19.91C36,128.69,42.23,128.45,43.44,128.38Z"/><path class="cls-4" d="M40.88,134.22a14.55,14.55,0,0,0,3.38-.41v-4.87a14.47,14.47,0,0,1-7.7-2.9c-7.13-5.62-7.88-18.78-3-21.87,3.4-2.16,9,1,10.72,1.91.19-2.73.39-5.47.59-8.2-1.2-1-9.53-7.52-15.59-4.74-7.26,3.33-6.39,17.86-3,26.42C30.45,130.38,39.63,134.22,40.88,134.22Z"/><path class="cls-3" d="M148.06,128.63V103c4.93-3.3,7.83-2.49,8.72-2.16,6,2.25,8.67,15.61,2.64,22.76C155.64,128.05,149.74,128.55,148.06,128.63Z"/><path class="cls-4" d="M149.7,134a14.83,14.83,0,0,1-3.42-.42v-5a14.55,14.55,0,0,0,7.79-2.95c7.22-5.73,8-19.13,3.06-22.27-3.45-2.2-9.15,1-10.85,1.94l-.6-8.36c2.36-2,8.15-6.25,13.19-4.55,7.54,2.55,9,17,5.67,26.64C160.76,129.84,151,134,149.7,134Z"/><path class="cls-4" d="M151.13,112.24c-3.55,25.12-5.33,37.68-14.95,48.94a64.89,64.89,0,0,1-17.73,14.18c-7.34,4-13.1,6.61-20.75,6.61-6.67,0-11.55-2.14-20.8-6.23l-.42-.19A52.88,52.88,0,0,1,61.3,164.3c-2.88-3.1-16.64-19.84-21.54-52.06-2.61-17.17-5.08-33.76,4.14-49.76A53.8,53.8,0,0,1,55.74,48.54c4-3.48,17.33-14.74,37.63-15.33a59.48,59.48,0,0,1,34.84,10.46,55.48,55.48,0,0,1,18.11,18.81c.42.73.85,1.53,1.28,2.48C155,81.29,151.54,109.4,151.13,112.24Z"/><ellipse class="cls-1" cx="72.24" cy="117.5" rx="4.65" ry="3.12"/><path class="cls-1" d="M57.14,106.06c.56.69,3.93-3.16,9.36-3.12a21.34,21.34,0,0,1,8.43,2.17c.2.11,1.16.63,2.52,1.25.54.24,1.15.5,1.85.77,1.69.66,4.62,1.18,4.91.58.41-.87-4.45-4.93-10.43-6.85-2.8-.9-8-2.58-12.48,0C58.42,102.52,56.68,105.49,57.14,106.06Z"/><rect class="cls-5" x="91.46" y="117.5" width="7.74" height="20.8" rx="3.3" ry="3.3"/><path class="cls-6" d="M64.42,193.41a47.52,47.52,0,0,0,32.24,13.52c19.83.23,32.28-12.41,34.32-14.56.26,9,.28,18.36,0,28.08a481.5,481.5,0,0,1-5.9,62.21H70a311.2,311.2,0,0,1-6.65-64.29c0-9.74.63-19.44.63-19.44C64.17,196.57,64.32,194.64,64.42,193.41Z"/><polyline class="cls-7" points="64.16 181.03 31.91 216.46 47.39 228.37 27.52 251.06 31.23 280.38 27.05 280.32 23.38 248.21 42.45 231.78 28.78 214.84 64.22 177.07"/><polyline class="cls-7" points="131.22 182.3 161.59 217.93 146.87 229.74 165.58 252.55 161.91 281.86 165.87 281.82 169.51 249.73 151.53 233.18 164.56 216.33 131.18 178.33"/><ellipse class="cls-1" cx="119.04" cy="117.5" rx="4.65" ry="3.12"/><path class="cls-1" d="M96.66,57.18a160.55,160.55,0,0,0,15.6,16.64c11.72,10.86,17.79,13.26,25,21.84a65.59,65.59,0,0,1,12.47,23.92,12.88,12.88,0,0,0,5.2-3.12c3.42-3.44,3-7.29,6.24-9.36a8.07,8.07,0,0,1,5.2-1A79.32,79.32,0,0,0,162.17,78c-7.86-23-27.88-45.84-54.07-51a59.16,59.16,0,0,0-13.52-1Q95.62,41.58,96.66,57.18Z"/><path class="cls-1" d="M96.66,57.18C92.44,60.69,86,65.86,77.94,71.74,58,86.22,55.83,84.67,51.94,90.46c-10.1,15-3.44,37.1,1,52,1.58,5.24,2.57,8.54,5.2,12.48,3.22,4.81,6,6.23,7.28,10.4s.18,8.5-1,11.44c-2.23,2.86-5.62,6.14-10.4,7.27-4.16,1-5.58-.56-8.32,1-4.3,2.52-3.53,7.89-8.32,10.4a9.49,9.49,0,0,1-4.16,1c-.3-3.8-.7-7-1-9.36-.72-5-1.08-7.49-2.08-10.39-1.55-4.47-2.39-4-3.12-7.28s.18-3.7-.4-7.27c-.86-5.19-3-5.08-3.76-10.41-.35-2.33-.14-3.66-1-6.24a18.27,18.27,0,0,0-2.08-4.16c-3.51-5.49-6.23-18.65-5.2-29.12.83-8.42,3.74-8.39,10.4-25,4.18-10.4,5.64-17.24,7.28-21.84,3.36-9.45,12.87-15.92,31.2-29.12C69.48,32,74.74,28.72,82.1,27a44.21,44.21,0,0,1,12.48-1Q95.62,41.58,96.66,57.18Z"/><path class="cls-1" d="M134,102.92c-.52.74-4.29-2.75-9.84-2.19a22.89,22.89,0,0,0-8.47,3c-.19.12-1.13.74-2.48,1.48-.53.29-1.13.61-1.83.94-1.68.82-4.64,1.62-5,1-.49-.82,4.16-5.31,10.13-7.8,2.8-1.16,8-3.33,12.79-1.2C132.35,99.54,134.38,102.31,134,102.92Z"/><rect class="cls-3" x="84.18" y="147.66" width="28.08" height="3.12"/></g></svg>