<svg xmlns="http://www.w3.org/2000/svg" viewBox="0 0 184 256.81"><defs><style>.cls-1{fill:#6b4105;}.cls-2{fill:#e2529d;}.cls-3{fill:#e99280;}.cls-4{fill:#f9d2b9;}.cls-5{fill:#19152d;}.cls-6{fill:#eca68c;}.cls-7{fill:#1b2426;}.cls-8{stroke:#e99280;stroke-miterlimit:10;}</style></defs><title>icon</title><g id="图层_3" data-name="图层 3"><path class="cls-1" d="M62.91,146.35c-5.74-4.24-9.61-4.75-12.14-4.34-4,.65-4.54,3.59-12,7.34-3.79,1.91-4.34,1.49-6.28,3.08-3.29,2.69-6.06,10.31-6.06,10.31-3.24,9.3-16.77,3.12-23.08,12.67C1.69,178-.09,182.56.81,191.34c-2.9,1.25-6.92,3.81-8,9-2.43,11.34,9.82,31.36,23,33.18,8.1,1.13,15.27-4.84,18.06-14.78a79.93,79.93,0,0,0,9-17.9c4-11.18,3.32-17.44,5.78-26.92C50.43,166.92,54.2,157.19,62.91,146.35Z"/><path class="cls-1" d="M110,139.84c6.26-2.64,10.29-2.19,12.87-1.2,4.1,1.57,4.4,4.47,11.76,9.79,3.76,2.71,4.36,2.44,6.24,4.4,3.18,3.34,5.43,11.2,5.43,11.2,2.59,9.55,17.05,6.94,22.78,17.47,1.54,2.8,3,7.58,1.38,15.67,2.88,1.86,6.82,5.24,7.56,10.41,1.6,11.3-12.65,27.29-26.33,25.89-8.44-.87-15.36-8.22-17.45-18.27a68.12,68.12,0,0,0-1.88-24.45c-2.24-8.23-5.83-12.46-9.82-21.44Q115.93,154.36,110,139.84Z"/><path class="cls-1" d="M110,150.82a24.1,24.1,0,0,0,10.63-2.49c10.93-5.4,18.94-19.41,20.31-35.21a20,20,0,0,1,1.81-9.89,25.63,25.63,0,0,1,5.44-7.71l-11.86-9q-8.15,18.25-16.12,38Q114.81,137.93,110,150.82Z"/><path class="cls-1" d="M61.76,152.44a23.78,23.78,0,0,1-10.86-2.65C40,144.1,32.92,129.48,33,113a20.16,20.16,0,0,0-1-10.3A23.79,23.79,0,0,0,27,94.67l13.21-9.28q6.81,19,13.3,39.6Q57.94,139,61.76,152.44Z"/><path class="cls-2" d="M55.67,160.3l-66.61,34.28v67.23H185.55V196.65L120.06,160.3Z"/><rect class="cls-3" x="53.17" y="142.19" width="66.89" height="57.14"/><path class="cls-4" d="M53.48,173.86a51,51,0,0,0,32.43,8c20.2-2,31.88-15.69,34.13-18.44v35.35l-31.9-1-5.35-.17-29.31-.92Z"/><path class="cls-5" d="M53.48,179A49,49,0,0,0,120,178c.26,8.35.28,17,0,26.06a415.85,415.85,0,0,1-5.9,57.74h-55a269,269,0,0,1-6.65-59.67c0-9,.64-18,.64-18C53.23,181.91,53.38,180.12,53.48,179Z"/><path class="cls-3" d="M33,107.22,31.08,82.09c-1.56-.38-5.64-1.11-8.9,1.09-5.6,3.79-6,14.31-.8,19.91C25.52,107.53,31.74,107.29,33,107.22Z"/><path class="cls-4" d="M30.39,113.06a14.55,14.55,0,0,0,3.38-.41v-4.87a14.45,14.45,0,0,1-7.7-2.9c-7.13-5.62-7.89-18.78-3-21.87,3.4-2.16,9,1,10.72,1.91.19-2.73.39-5.47.58-8.2-1.19-1-9.52-7.52-15.58-4.74-7.27,3.33-6.39,17.86-3,26.42C20,109.22,29.13,113.06,30.39,113.06Z"/><path class="cls-3" d="M137.56,107.47V81.8c4.94-3.3,7.83-2.49,8.72-2.16,6.05,2.25,8.68,15.61,2.65,22.76C145.14,106.89,139.25,107.39,137.56,107.47Z"/><path class="cls-4" d="M139.21,112.85a14.91,14.91,0,0,1-3.43-.42v-5a14.57,14.57,0,0,0,7.8-3c7.22-5.73,8-19.13,3.06-22.27-3.45-2.2-9.15,1-10.86,1.94-.2-2.78-.39-5.57-.59-8.36,2.36-2,8.15-6.25,13.18-4.55,7.54,2.55,9.06,17,5.68,26.64C150.26,108.68,140.53,112.85,139.21,112.85Z"/><path class="cls-4" d="M140.64,91.08c-3.56,25.12-5.33,37.68-15,48.94A64.9,64.9,0,0,1,108,154.2c-7.34,4-13.11,6.61-20.76,6.62-6.66,0-11.54-2.15-20.8-6.24l-.41-.19a52.88,52.88,0,0,1-15.18-11.25C47.93,140,34.16,123.3,29.26,91.08c-2.61-17.17-5.07-33.76,4.14-49.76A54,54,0,0,1,45.25,27.38c4-3.48,17.33-14.74,37.63-15.33,17.86-.51,30.44,7.55,34.84,10.46a55.57,55.57,0,0,1,18.11,18.81c.42.73.85,1.53,1.28,2.48C144.47,60.13,141,88.24,140.64,91.08Z"/><path class="cls-3" d="M99.76,125.62a32.26,32.26,0,0,1-28.08,0V122.5a43.81,43.81,0,0,0,28.08,0Z"/><path class="cls-1" d="M42,47.81c14.2-5.23,24.81-5.13,32-4,4,.63,7.8,1.72,17,3,9.81,1.36,14.65,1.39,19,1a61.51,61.51,0,0,0,11-2,77.1,77.1,0,0,0,16.56,40.61L151,71.3c1.22-9,1.1-20.68-4-32.49-5-11.48-14-21.43-18-20-.93.34-2,1.45-3,1-1.18-.54-.68-2.66-2-5a8.39,8.39,0,0,0-3-3c-2.88-1.47-43.27-21.47-73-1a52.82,52.82,0,0,0-15,16,53.16,53.16,0,0,0-9,13,55.51,55.51,0,0,0-5,31l12,11a142.31,142.31,0,0,0,7-18A140.34,140.34,0,0,0,42,47.81Z"/><rect class="cls-6" x="81" y="91.81" width="9" height="21"/><ellipse class="cls-7" cx="61.5" cy="91.51" rx="5.5" ry="2.3"/><ellipse class="cls-7" cx="110.5" cy="91.51" rx="5.5" ry="2.3"/><line class="cls-8" x1="93" y1="106.81" x2="107" y2="118.81"/><line class="cls-8" x1="75.74" y1="106.6" x2="64.26" y2="121.02"/><path class="cls-1" d="M44.73,80.12c.26,1.57,10.36-1,23.05,1.83,1.76.4,4.65,1.15,4.92.54S70.41,80,68,78.81c-3-1.43-5.64-1.69-9-2a23,23,0,0,0-7,0C48.79,77.41,44.56,79.1,44.73,80.12Z"/><path class="cls-1" d="M122.86,81.8c-.24,1.53-9.25-1.39-20.62,1-1.58.33-4.16,1-4.4.35s2.07-2.4,4.23-3.45c2.67-1.3,5.06-1.47,8.06-1.65a18.55,18.55,0,0,1,6.26.25C119.26,79,123,80.8,122.86,81.8Z"/><path class="cls-3" d="M121.93,119.52a4.55,4.55,0,0,0-5.25,2.79,4.61,4.61,0,0,0,2.22,5.22l1.41.53a4.8,4.8,0,0,1-1.81-4.67,4.7,4.7,0,0,1,4.84-3.34Z"/><path class="cls-3" d="M54.48,127.54a4.3,4.3,0,0,0-2.7-8.13l-1.43.48a4.77,4.77,0,0,1,4.35,2.48A4.68,4.68,0,0,1,53.05,128Z"/></g></svg>