<svg xmlns="http://www.w3.org/2000/svg" viewBox="0 0 196.49 285.83"><defs><style>.cls-1{fill:#f2b186;}.cls-2{fill:#e99280;}.cls-3{fill:#333;}.cls-4{fill:#011c29;}.cls-5{fill:#fff;}.cls-6{fill:#4a5356;}</style></defs><title>icon</title><g id="图层_3" data-name="图层 3"><path class="cls-1" d="M153.12,89.29a18.81,18.81,0,0,0-2.17.4,17.78,17.78,0,0,0-2.07.65l6.92,9.22a15,15,0,0,1,4.73-1.16c1.62-.13,2.62-.21,3.45.3,2.59,1.58,1.92,7.84,1.84,8.6-1,9.22-10.28,15-13,16.54l.46,3.89a18.68,18.68,0,0,0,4.36,0c8.69-1,15.21-11.6,16.41-21.42.72-6,0-16.11-4.85-18.62C165.1,85.59,157.76,88.73,153.12,89.29Z"/><path class="cls-2" d="M149.33,94.2l3.47,29.64a17,17,0,0,0,12.06-7.25A21.23,21.23,0,0,0,168,105.53c.13-2.8.27-5.6-1-7.84C164.64,93.29,157.41,91.89,149.33,94.2Z"/><path class="cls-3" d="M66.61,178.52,0,214.75v71.08H196.49V217L131,178.52Z"/><rect class="cls-2" x="64.1" y="160.41" width="66.89" height="57.14"/><path class="cls-1" d="M41.63,91.37a18.9,18.9,0,0,1,2.2.44,18.31,18.31,0,0,1,2.1.66l-7.11,8.38A17.43,17.43,0,0,0,34,99.63c-1.64-.17-2.66-.27-3.51.18-2.64,1.39-2,7.25-1.94,8,.93,8.62,10.34,14.26,13.11,15.81l-.49,3.6a20.69,20.69,0,0,1-4.44-.11c-8.83-1.21-15.38-11.27-16.52-20.44-.69-5.59.15-15,5.08-17.21C29.47,87.56,36.91,90.7,41.63,91.37Z"/><path class="cls-2" d="M45.44,96.06l-3.77,27.51c-1.41-.2-8.11-1.29-12.21-7.12a18.92,18.92,0,0,1-3.12-10.4c-.11-2.61-.23-5.23,1-7.28C29.88,94.75,37.24,93.66,45.44,96.06Z"/><path class="cls-1" d="M157.47,108.15a136.85,136.85,0,0,1-8.41,34.3c-5.4,14-10.13,19.36-11.44,20.8a53.16,53.16,0,0,1-20.8,13.52,56.68,56.68,0,0,1-33.9,1c-4.26-1.14-19.21-5.37-29.54-18.73-6.79-8.78-10.08-19.56-11.57-24.47-.9-2.92-1.51-5.49-1.77-6.59a128.23,128.23,0,0,1-3.11-22c-1.49-24.06-2.38-38.55,5-53C50.53,36.17,70.51,18.9,96,18.69c27.78-.23,49.53,19.89,57.2,38.48C160.17,74,159.32,90,157.47,108.15Z"/><ellipse class="cls-4" cx="68.28" cy="103.79" rx="5.9" ry="4.34"/><path class="cls-4" d="M82.62,98c-5.29-2.3-10.31-4.44-15.76-6.76-2.51-1.07-5.17-2.16-8.21-1.33a10.24,10.24,0,0,0-5.23,3.64,6.06,6.06,0,0,1-.07-3.45c.87-3,4-4.14,4.93-4.47,2.26-.82,4.33-.46,8.38.31a46.71,46.71,0,0,1,12,4c3.06,1.5,4.21,2.47,4.63,3.91A5.55,5.55,0,0,1,82.62,98Z"/><rect class="cls-2" x="91.28" y="107.81" width="11.44" height="21.6" rx="3.81" ry="3.81"/><path class="cls-2" d="M112.53,143.49a44.4,44.4,0,0,0-30.66,0v-3a38.32,38.32,0,0,1,30.66,0Z"/><path class="cls-5" d="M64.1,215.45l66.9,3.32q-3,33.89-5.92,67.75H70Q67.06,251,64.1,215.45Z"/><polyline points="63.41 184.57 31.72 220.51 47.38 232.17 27.87 255.17 32.05 284.43 27.87 284.43 23.69 252.38 42.5 235.66 28.57 218.94 63.41 180.61"/><polyline points="131.69 185.97 161.71 221.9 146.88 233.57 165.36 256.56 161.4 285.83 165.36 285.83 169.32 253.77 151.5 237.05 164.7 220.33 131.69 182.01"/><path class="cls-1" d="M71.07,193.85a45.68,45.68,0,0,0,25.78,6.27c16.84-1,27.41-11.31,30-13.93l-6.27,31.35-39.71,3Z"/><path class="cls-5" d="M64,179.87a90.73,90.73,0,0,0,7.23,61.52,35.72,35.72,0,0,1,12.55-16.34,32.18,32.18,0,0,1,11.47-5q-6-7.89-12.11-15.87Q73.53,191.76,64,179.87Z"/><path class="cls-5" d="M131.22,178.57c-6,9.41-12.82,19.22-20.5,29.2q-5.31,6.89-10.54,13.1a47,47,0,0,1,12.17,7.29,51.26,51.26,0,0,1,11.36,13.37,110.71,110.71,0,0,0,8.13-28.94A109.24,109.24,0,0,0,131.22,178.57Z"/><path class="cls-4" d="M109.84,97c5.5-2.78,10.71-5.38,16.38-8.2,2.6-1.3,5.37-2.64,8.67-2.14a10.57,10.57,0,0,1,5.8,3,5.37,5.37,0,0,0-.14-3.38c-1.12-2.82-4.57-3.62-5.54-3.85-2.46-.58-4.65,0-8.92,1.15a55.23,55.23,0,0,0-12.52,5.17c-3.17,1.79-4.34,2.85-4.7,4.29A5,5,0,0,0,109.84,97Z"/><path class="cls-6" d="M60.66,31.17C50.7,43,47.84,52.56,47.14,59.25a87.83,87.83,0,0,1-2.08,14.56,74.26,74.26,0,0,1-5.2,14.56l-3.12,9.36-8.5-8.88a27.83,27.83,0,0,1-1.9-15c.5-2.93,1-2.62,2.08-7.28,2-8.77.49-11.16,3.12-14.56,1.86-2.4,3.34-2.15,5.2-5.2a17.4,17.4,0,0,0,2.08-6.24C39.67,37.29,44.18,33.46,60.66,31.17Z"/><path class="cls-6" d="M132.88,31.42a43.13,43.13,0,0,1,18.26,6c3,1.87,4.78,2.94,6.24,5.2,3.1,4.83.72,8.57,4.16,13.52,2,2.93,3.47,2.5,5.2,5.2,2.52,4,2,8.85,1,12.48q.51,6.76,1,13.52l-10.4,3.12-3.12,9.36a104.4,104.4,0,0,0-22.42-68.39Z"/><ellipse class="cls-4" cx="121.32" cy="103.79" rx="5.9" ry="4.34"/><path class="cls-2" d="M112.37,111a12,12,0,0,0,13,6.57l-4.36,3.13a13.81,13.81,0,0,1-4.43-2.73A15.43,15.43,0,0,1,112.37,111Z"/><path class="cls-2" d="M76.75,110.83A14.77,14.77,0,0,1,68.32,117a13.37,13.37,0,0,1-4.64.32l3.91,2.53a16.2,16.2,0,0,0,4.47-2.65A16.67,16.67,0,0,0,76.75,110.83Z"/><path class="cls-2" d="M96.56,54.11a95.78,95.78,0,0,0-22.39,3.41,127.24,127.24,0,0,1,20-2.41,131.28,131.28,0,0,1,35.12,3.28A99.06,99.06,0,0,0,96.56,54.11Z"/></g></svg>