<svg xmlns="http://www.w3.org/2000/svg" viewBox="0 0 183 287"><defs><style>.cls-1{fill:#1b2426;}.cls-2{fill:#ffc5e1;}.cls-3{fill:#e99280;}.cls-4{fill:#f9d2b9;}.cls-5{fill:#eca68c;}.cls-6{fill:#25272d;}.cls-7{fill:#fff;}</style></defs><title>icon</title><g id="图层_3" data-name="图层 3"><path class="cls-1" d="M98.38,150.54c6-1,9.54.17,11.75,1.58,3.52,2.24,3.44,4.88,9.46,11.12,3.07,3.18,3.64,3.07,5.1,5.19,2.48,3.62,3.58,11.07,3.58,11.07,1.2,9,14.56,9.67,18.49,20.2,1,2.81,1.81,7.35-.62,14.2,2.38,2.25,5.54,6.06,5.58,10.81.11,10.35-14.63,21.63-26.82,17.56-7.51-2.51-12.88-10.46-13.57-19.82a60.58,60.58,0,0,0,1.19-22.09c-1-7.78-3.78-12.27-6.31-21.06Q102,164.65,98.38,150.54Z"/><path class="cls-2" d="M59,203-3,230v68H186q-.5-32.5-1-65l-60-30Z"/><rect class="cls-3" x="58.61" y="171.57" width="66.89" height="57.14"/><path class="cls-4" d="M58.93,205.54c3.62,2.89,15.81,11.81,32.43,9.82,20.19-2.42,31.87-19.16,34.12-22.52V236l-31.89-1.22-5.35-.2-29.31-1.12Z"/><path class="cls-3" d="M38,143.41l-1.87-25.13c-1.56-.38-5.64-1.11-8.9,1.09-5.6,3.79-6,14.31-.8,19.9C30.52,143.72,36.74,143.48,38,143.41Z"/><path class="cls-4" d="M35.39,149.25a14.55,14.55,0,0,0,3.38-.41V144a14.45,14.45,0,0,1-7.7-2.9c-7.13-5.63-7.89-18.78-3-21.87,3.4-2.16,9,1,10.72,1.91.19-2.73.39-5.47.58-8.21-1.19-1-9.52-7.51-15.58-4.73-7.27,3.33-6.39,17.86-3,26.42C25,145.4,34.13,149.25,35.39,149.25Z"/><path class="cls-3" d="M142.56,143.66V118c4.94-3.3,7.83-2.49,8.72-2.16,6.05,2.25,8.68,15.61,2.65,22.76C150.14,143.08,144.25,143.58,142.56,143.66Z"/><path class="cls-4" d="M144.21,149a14.91,14.91,0,0,1-3.43-.42v-5a14.57,14.57,0,0,0,7.8-2.95c7.22-5.73,8-19.13,3.06-22.27-3.45-2.21-9.15,1-10.86,1.94-.2-2.78-.39-5.57-.59-8.36,2.36-2,8.15-6.25,13.18-4.55,7.54,2.54,9.06,17,5.68,26.64C155.26,144.87,145.53,149,144.21,149Z"/><path class="cls-4" d="M145.64,127.27c-3.56,25.12-2.33,37.68-12,48.94-6.93,8.1-18.19,12.8-20.72,14.18-7.34,4-13.11,6.6-20.76,6.61-6.66,0-11.54-2.14-20.8-6.24l-.41-.18s-11.13-3.66-18.18-11.26c-2.88-3.09-13.65-19.83-18.55-52-2.61-17.17-5.07-33.76,4.14-49.76A54,54,0,0,1,50.25,63.57c4-3.48,17.33-14.74,37.63-15.33,17.86-.51,30.44,7.55,34.84,10.46a55.57,55.57,0,0,1,18.11,18.81c.42.73.85,1.53,1.28,2.48C149.47,96.32,146,124.43,145.64,127.27Z"/><ellipse class="cls-1" cx="68.2" cy="129.7" rx="3.2" ry="3.3"/><path class="cls-2" d="M92,260c9.51,1.45,20.62-40,37.74-52.85,4.61,1.69,10.6,4.62,11.26,9.19.94,6.57-9.82,11.81-15.88,17.84-8.2,8.17-15,25-6,63.51H62.75A317.79,317.79,0,0,1,56,232.06c0-9.88.64-19.73.65-19.85h0c.85-3.83-2-6.49-1.56-7.1C56,203.63,75.58,257.49,92,260Z"/><ellipse class="cls-1" cx="112.45" cy="129.7" rx="3.55" ry="3.3"/><path class="cls-1" d="M130,116c-.34.6-3,.34-9,0,0,0-6-2.63-10-1-.21.09-1.25.52-2.71,1-.58.19-1.23.39-2,.59-1.81.49-4.86.73-5.09.11-.34-.9,5.45-6.34,11.78-7.68,2.28-.48,7.2.44,12.4,3.07C128.1,113.43,130.27,115.52,130,116Z"/><rect class="cls-5" x="89" y="136" width="6" height="18"/><path class="cls-1" d="M81,116c-.34.6-3,.34-9,0,0,0-6-2.63-10-1-.21.09-1.25.52-2.71,1-.58.19-1.23.39-2,.59-1.81.49-4.86.73-5.09.11-.34-.9,5.45-6.34,11.78-7.68,2.28-.48,7.2.44,12.4,3.07C79.1,113.43,81.27,115.52,81,116Z"/><path class="cls-6" d="M62.62,75.46c.85-.34,3.91-.85,10-1.85,12-2,13.25-2.08,15-2.07,5.41,0,5.47,1,10.93.92,6.63-.15,6.89-1.66,10.84-1.18,5.21.63,8.85,3.73,12.89,7.18a46.13,46.13,0,0,1,5.27,5.41c2.8,3.23,4.38,5.06,5.36,7.51,1.43,3.58.37,5.41.44,9.85a30.15,30.15,0,0,0,3.07,12.55,35.69,35.69,0,0,0,8.11-6,29.84,29.84,0,0,0,7.06-10.88c2.17-6.82,1.34-11.66.18-14.81-1-2.7-2-3.48-4.55-8.26-4.31-8-3.17-8.72-5.58-12.43-3.88-6-10.06-8.83-22.43-14.52-5.67-2.6-8.57-3.91-11.9-3.7a21.62,21.62,0,0,1-7.55-.37,16,16,0,0,1-3.41-1.26c-4.81-2.31-23.6-2.29-38.23,7.33-4.51,3-2.92,3.1-13.72,11.88a22.56,22.56,0,0,0-5.6,5.89c-1.47,2.39-2,4.57-3,8.59-.63,2.61-.85,4.15-1.37,7.11C33,90.7,32.63,92,32.39,93c-1.34,5.72-1.88,5.63-2.17,7.85-.4,3.21.17,7.87,4.81,13.88a29.55,29.55,0,0,0,9.66-8.89c4.58-6.94,1.8-10.71,6.69-19.32C53.33,83.1,56.34,78,62.62,75.46Z"/><path class="cls-3" d="M106.76,166.81a19,19,0,0,1-28.08,0v-3.12q6.87.3,14.32.31c4.76,0,9.35-.12,13.76-.31Z"/><circle class="cls-7" cx="58.29" cy="206.42" r="3.64"/><circle class="cls-7" cx="61.29" cy="212.42" r="3.64"/><circle class="cls-7" cx="66.29" cy="217.42" r="3.64"/><circle class="cls-7" cx="112.29" cy="219.42" r="3.64"/><circle class="cls-7" cx="106.29" cy="223.42" r="3.64"/><circle class="cls-7" cx="99.29" cy="225.42" r="3.64"/><circle class="cls-7" cx="92.29" cy="225.42" r="3.64"/><circle class="cls-7" cx="85.29" cy="225.42" r="3.64"/><circle class="cls-7" cx="78.29" cy="224.42" r="3.64"/><circle class="cls-7" cx="72.29" cy="221.42" r="3.64"/><circle class="cls-7" cx="126.29" cy="205.42" r="3.64"/><circle class="cls-7" cx="122.29" cy="210.42" r="3.64"/><circle class="cls-7" cx="117.29" cy="214.42" r="3.64"/></g></svg>