<svg xmlns="http://www.w3.org/2000/svg" viewBox="0 0 194 289"><defs><style>.cls-1{fill:#3e342e;}.cls-2{fill:#e99280;}.cls-3{fill:#efe7e2;}.cls-4{fill:#f9d2b9;}.cls-5{fill:#fff;}.cls-6{fill:#f4bf9b;}.cls-7{fill:#b3b3b3;}.cls-8{fill:#011c29;}.cls-9{fill:#eca68c;}</style></defs><title>icon</title><g id="图层_3" data-name="图层 3"><path class="cls-1" d="M63.5,199.26-3.94,232.39v65H195v-63l-66.31-35.13Z"/><rect class="cls-2" x="60.96" y="180.18" width="67.73" height="60.17"/><path class="cls-3" d="M61,233l67.73,3q-3,31-6,61.94H67Z"/><path class="cls-4" d="M68,215.41a44.9,44.9,0,0,0,26.1,6.6c17-1.08,27.75-11.91,30.33-14.68l-6.35,33-40.21,3.13Z"/><path class="cls-5" d="M61,202.82a88.57,88.57,0,0,0-.58,42.84A83.79,83.79,0,0,0,67,263.49,37.73,37.73,0,0,1,80.17,247,34.9,34.9,0,0,1,92,241.81q-5.9-7.67-12-15.41Q70.48,214.34,61,202.82Z"/><path class="cls-5" d="M128.74,201.47c-6,9-12.8,18.35-20.51,27.87q-5.33,6.56-10.59,12.47a51.76,51.76,0,0,1,12.7,7.34,53.94,53.94,0,0,1,12,13.21,99.25,99.25,0,0,0,7.76-27.89A100.27,100.27,0,0,0,128.74,201.47Z"/><path class="cls-6" d="M152.75,100.16a19.8,19.8,0,0,0-2.39.42,20.62,20.62,0,0,0-2.27.69l7.6,9.81a17.61,17.61,0,0,1,5.21-1.23c1.78-.13,2.88-.22,3.79.33,2.84,1.68,2.11,8.34,2,9.14-1.08,9.82-11.3,16-14.31,17.62l.5,4.13a20.26,20.26,0,0,0,4.8,0c9.56-1.08,16.72-12.34,18-22.79.8-6.36,0-17.16-5.33-19.83C165.92,96.22,157.85,99.55,152.75,100.16Z"/><path class="cls-2" d="M148.58,105.39l3.82,31.55c1.52-.18,8.78-1.19,13.26-7.72,3.1-4.52,3.35-9.44,3.47-11.77.15-3,.3-6-1.06-8.36C165.41,104.42,157.47,102.92,148.58,105.39Z"/><path class="cls-6" d="M30.16,102.37a21.82,21.82,0,0,1,2.43.46c.79.2,1.56.44,2.31.71l-7.82,8.92a19.15,19.15,0,0,0-5.29-1.29c-1.8-.18-2.92-.29-3.86.18-2.9,1.49-2.21,7.72-2.13,8.47,1,9.18,11.37,15.18,14.41,16.82l-.54,3.84a22.88,22.88,0,0,1-4.88-.12c-9.71-1.29-16.91-12-18.16-21.76-.76-5.95.16-16,5.59-18.32C16.8,98.31,25,101.66,30.16,102.37Z"/><path class="cls-2" d="M34.36,107.36l-4.15,29.28c-1.54-.21-8.91-1.36-13.42-7.57A19.6,19.6,0,0,1,13.36,118c-.13-2.78-.26-5.57,1.14-7.75C17.25,106,25.34,104.81,34.36,107.36Z"/><path class="cls-4" d="M157.53,113.29A117.89,117.89,0,0,1,156,133.53a116.22,116.22,0,0,1-4.5,18.15c-.28.82-.89,2.64-1.63,4.52-4.93,12.58-10.36,24.42-10.79,24.85-9.1,9.37-21.92,9.9-26.74,11.58a64.57,64.57,0,0,1-36.78,1.62c-5-1.31-19.14-2.11-29.56-12.25-10.9-10.61-12.09-25.17-15.64-37.95A151.81,151.81,0,0,1,25,110.86c-1-20.48-2.1-43.18,11.49-61.52C53.85,25.91,83.62,25.23,91.27,25.05c8.18-.19,37.37-.86,54,20.24C157.31,60.55,157.39,80.38,157.53,113.29Z"/><path class="cls-7" d="M149.85,106.39l10.07-4.47a79.43,79.43,0,0,0,1.42-29.61c-1-7.33-3.55-24.24-16.49-37.35-18.67-18.91-46.68-17.28-58.31-16.6-10,.57-34.24,2-51.46,19.92-9.19,9.59-12.73,20-14.74,26.44a84,84,0,0,0-1.71,42.88l12.25,1C29.7,98.22,22.57,74.25,33,67c5-3.45,18.78-4,22-4,40.45-.12,78.33-23.92,87-13,2.24,2.82-3.2,15.41-1.72,24.82a28,28,0,0,0,4,11c.32.5.57.84.67,1A35.28,35.28,0,0,1,149.85,106.39Z"/><ellipse class="cls-8" cx="60.25" cy="115.41" rx="4.98" ry="4.45"/><path class="cls-7" d="M73.76,106.67c-5.26-3.52-10.26-6.81-15.7-10.39-2.49-1.64-5.16-3.34-8.6-3.11a11.14,11.14,0,0,0-6.33,2.73,6.14,6.14,0,0,1,.58-3.63c1.51-2.94,5.15-3.49,6.18-3.65,2.6-.4,4.76.42,9,2.07A53.31,53.31,0,0,1,71,97.44c3,2.22,4.07,3.48,4.25,5.06A5.78,5.78,0,0,1,73.76,106.67Z"/><rect class="cls-9" x="84.76" y="123.2" width="12.58" height="23" rx="3.81" ry="3.81"/><ellipse class="cls-8" cx="121.91" cy="115.04" rx="4.98" ry="4.45"/><path class="cls-9" d="M61.73,178l-2.13-1.19a38.83,38.83,0,0,1,5.5-15.27A40.41,40.41,0,0,1,75.3,150.5l2.13,1.19a41.53,41.53,0,0,0-10,11A40,40,0,0,0,61.73,178Z"/><path class="cls-7" d="M105.8,105.82c5.12-4.41,10-8.55,15.28-13,2.43-2.07,5-4.22,8.66-4.63a11.58,11.58,0,0,1,6.94,1.51,5.56,5.56,0,0,0-1-3.45c-1.92-2.6-5.79-2.47-6.89-2.44-2.76.1-4.94,1.29-9.17,3.68a62.92,62.92,0,0,0-12,8.84c-2.9,2.73-3.87,4.16-3.87,5.75A5.1,5.1,0,0,0,105.8,105.82Z"/><path class="cls-9" d="M122.67,178.87l2.29-1.16a37.18,37.18,0,0,0-4.68-15.56,38.46,38.46,0,0,0-9.87-11.4c-.76.39-1.52.78-2.29,1.16a39.63,39.63,0,0,1,9.7,11.31A38.11,38.11,0,0,1,122.67,178.87Z"/><path class="cls-2" d="M68.35,121.78A14.69,14.69,0,0,1,59.92,128a13.35,13.35,0,0,1-4.64.32l3.91,2.53a16.38,16.38,0,0,0,4.48-2.65A16.56,16.56,0,0,0,68.35,121.78Z"/><path class="cls-2" d="M114.15,121.8a11.55,11.55,0,0,0,9,4.78,12.08,12.08,0,0,0,4.72-1c-1.24,1.4-2.49,2.79-3.73,4.18a12.46,12.46,0,0,1-4.75-1.78A14.74,14.74,0,0,1,114.15,121.8Z"/><path class="cls-2" d="M84.16,75.06a96.32,96.32,0,0,0-22.39,3.42,127.24,127.24,0,0,1,20-2.41,131,131,0,0,1,35.13,3.28A99.38,99.38,0,0,0,84.16,75.06Z"/><path class="cls-2" d="M106.32,175.4a31.85,31.85,0,0,0-17.79-4,32.53,32.53,0,0,0-12.87,4v-5.09a27,27,0,0,1,11.74-5.09c8.85-1.37,15.76,2.81,18.92,5.09Z"/></g></svg>