<svg xmlns="http://www.w3.org/2000/svg" viewBox="0 0 196.49 287.93"><defs><style>.cls-1{fill:#564649;}.cls-2{fill:#e99280;}.cls-3{fill:#f2b186;}.cls-4{fill:#19152d;}.cls-5{fill:#30262a;}.cls-6{fill:#011c29;}.cls-7{fill:#434349;}.cls-8{fill:#a56f4b;}</style></defs><title>icon</title><g id="图层_3" data-name="图层 3"><path class="cls-1" d="M66.61,180.63,0,216.86v71.07H196.49V219.05L131,180.63Z"/><rect class="cls-2" x="64.1" y="162.51" width="66.89" height="57.14"/><path class="cls-3" d="M64.42,194.18a50.93,50.93,0,0,0,32.43,8c20.19-2,31.88-15.7,34.13-18.45v35.36l-31.9-1L93.73,218l-29.31-.91Z"/><path class="cls-4" d="M64.42,199.38A47.57,47.57,0,0,0,96.66,212.9c19.83.22,32.28-12.42,34.32-14.56.26,9,.28,18.36,0,28.08a481.67,481.67,0,0,1-5.9,62.21H70a311.35,311.35,0,0,1-6.65-64.29c0-9.74.63-19.45.63-19.45C64.17,202.53,64.32,200.61,64.42,199.38Z"/><polyline class="cls-5" points="64.16 187 31.91 222.43 47.39 234.34 27.52 257.02 31.23 286.35 27.05 286.28 23.38 254.17 42.45 237.75 28.78 220.81 64.22 183.04"/><polyline class="cls-5" points="131.22 188.26 161.59 223.9 146.87 235.71 165.58 258.52 161.91 287.82 165.87 287.78 169.51 255.69 151.53 239.15 164.56 222.29 131.18 184.3"/><path class="cls-3" d="M153.37,90.11a16.26,16.26,0,0,0-2.18.39,20.54,20.54,0,0,0-2.06.65l6.91,9.22a15.49,15.49,0,0,1,4.74-1.15c1.61-.13,2.62-.21,3.45.3,2.58,1.58,1.92,7.84,1.84,8.59-1,9.22-10.29,15-13,16.55l.45,3.88a18.77,18.77,0,0,0,4.37,0c8.69-1,15.21-11.6,16.4-21.41.73-6,0-16.12-4.84-18.63C165.35,86.4,158,89.54,153.37,90.11Z"/><path class="cls-2" d="M149.58,95l3.47,29.64a17.09,17.09,0,0,0,12.06-7.25,21.25,21.25,0,0,0,3.15-11.07c.14-2.79.28-5.6-1-7.84C164.89,94.11,157.66,92.71,149.58,95Z"/><path class="cls-3" d="M41.87,92.18a21.49,21.49,0,0,1,2.21.44,20.52,20.52,0,0,1,2.1.66l-7.11,8.38a17.22,17.22,0,0,0-4.81-1.21c-1.64-.17-2.66-.28-3.51.17-2.64,1.4-2,7.25-1.94,7.95.93,8.63,10.34,14.27,13.11,15.81l-.5,3.6a20.09,20.09,0,0,1-4.44-.11c-8.83-1.21-15.37-11.26-16.51-20.44-.69-5.59.14-15,5.08-17.21C29.71,88.37,37.15,91.52,41.87,92.18Z"/><path class="cls-2" d="M45.69,96.87l-3.77,27.51c-1.41-.2-8.11-1.28-12.21-7.12a18.79,18.79,0,0,1-3.12-10.4c-.12-2.61-.23-5.23,1-7.28C30.12,95.56,37.48,94.48,45.69,96.87Z"/><path class="cls-3" d="M157.72,109a136.59,136.59,0,0,1-8.42,34.3c-5.4,14-10.12,19.36-11.44,20.8a52.86,52.86,0,0,1-20.79,13.52,56.66,56.66,0,0,1-33.91,1.06c-4.25-1.14-19.2-5.38-29.53-18.74-6.79-8.78-10.08-19.55-11.58-24.46-.89-2.93-1.5-5.5-1.76-6.59a128.37,128.37,0,0,1-3.11-22c-1.49-24.05-3.93-45.51,3.46-60C49.23,30,70.76,19.72,96.27,19.51c27.78-.23,47.71,9.75,55.37,28.35C158.59,64.72,159.57,90.81,157.72,109Z"/><ellipse class="cls-6" cx="68.53" cy="104.6" rx="5.9" ry="4.34"/><rect class="cls-2" x="91.53" y="108.63" width="11.44" height="21.6" rx="3.81" ry="3.81"/><ellipse class="cls-6" cx="121.56" cy="104.6" rx="5.9" ry="4.34"/><path d="M39.29,95l-8.11-6.1c-1.25-5.24,1.13-11.74,1.23-20.14.1-9.63,3-17.8,4.64-23.4A55.38,55.38,0,0,1,51.64,26.86c14.54-12.19,27.65-21.45,41-22,14.41-.6,29.39,10.7,45,23,8.75,6.88,9.37,13.16,12,18.6,2.18,5,6.14,11.08,7,21.26.79,9.78,3.87,17.09,2.6,22.34l-7.47,3.75a22.09,22.09,0,0,0,0-9.75c-1.47-6.24-4.91-7.35-8.11-14.63-1.79-4.07-.83-4-3.47-13.41-2.56-9.11-3.63-13.91-5.6-14.88-4.87-2.4-3.48-5.32-20.88-4.25-5,.31-11.67,1.28-16.25,1.06-14.59-.68-26.68,3.19-39.45,2.13-4.81-.4-3.32,6-5.8,9.57-4.14,5.94-1.88,10.52-5.8,20.2-2.51,6.2-.15,6.13-3.56,14.21A63,63,0,0,0,39.29,95Z"/><path class="cls-7" d="M50.31,100c.89.9,4.23-2.43,11.55-4.59,3.39-1,5.14-1,6.39-.77.36.07,1.56.34,3.28.57.61.08,1.28.15,2,.21,2.82.23,4.87.15,5.42-1s-.63-2.76-.76-2.94c-2.12-3-6.59-3-12.12-2.91-4.57.05-6.86.07-8.93,1.13C51.87,92.46,49.28,99,50.31,100Z"/><path class="cls-7" d="M135.52,101.36c-.8.73-3.38-2.36-9.35-4.67-2.77-1.06-4.23-1.18-5.3-1-.3,0-1.32.21-2.77.31-.52,0-1.08.07-1.71.08-2.37,0-4.08-.16-4.47-1.17s.71-2.37.83-2.52c2-2.45,5.69-2.21,10.31-1.85,3.82.3,5.73.45,7.39,1.49C134.7,94.66,136.45,100.51,135.52,101.36Z"/><path class="cls-8" d="M109.62,150.51a78.28,78.28,0,0,1-25.85-3.23c-1.11-.14-1.85-1.72-1.63-3.49s1.32-3.13,2.44-3A40,40,0,0,0,110.43,144c1.12.14,1.86,1.72,1.63,3.5S110.75,150.65,109.62,150.51Z"/></g></svg>