<svg xmlns="http://www.w3.org/2000/svg" viewBox="0 0 189 282.82"><defs><style>.cls-1{fill:#1b2426;}.cls-2{fill:#28191d;}.cls-3{fill:#e99280;}.cls-4{fill:#f9d2b9;}.cls-5{fill:#eca68c;}</style></defs><title>icon</title><g id="图层_3" data-name="图层 3"><path class="cls-1" d="M45.94,101c-7.14,0-10.56,1.86-12.35,3.69-2.87,2.91-1.54,5.58-5.32,13-1.92,3.79-2.61,3.78-3.24,6.2C24,128,26.25,135.82,26.25,135.82c2.89,9.4-11.68,12.43-11.11,23.86.16,3,1.44,7.81,7.37,14.36-1.6,2.72-3.32,7.17-1.15,12,4.75,10.58,26.48,19.46,38.14,13.16,7.19-3.88,9.44-12.94,5.81-22.6A80.49,80.49,0,0,0,62,156.82c-3.42-11.35-7.65-16-11.27-25.11C48.05,125,45.33,114.92,45.94,101Z"/><path class="cls-1" d="M153.7,105.48c5.41,2.73,7.54,5.86,8.47,8.31,1.47,3.9-.17,6,.91,14.56.56,4.39,1.09,4.64,1,7.22-.18,4.38-3.76,11-3.76,11-4.44,7.94,5.86,16.47,2.7,27.25-.84,2.88-3,7-9,11,.56,3.23.8,8.18-2,12-6.12,8.36-24.68,8.56-32-2-4.51-6.51-4-16.09,1-24a60.41,60.41,0,0,0,14.19-17c3.82-6.86,4.32-12.1,7.56-20.65Q148.15,118.94,153.7,105.48Z"/><path class="cls-2" d="M62,187.82l-62,27v68H189q-.5-32.49-1-65l-60-30Z"/><rect class="cls-3" x="61.61" y="156.4" width="66.89" height="57.14"/><path class="cls-4" d="M61.93,188.07a51,51,0,0,0,32.43,8c20.19-2,31.87-15.69,34.12-18.44V213l-31.89-1-5.35-.17L61.93,211Z"/><path class="cls-3" d="M41,128.24,39.08,103.1c-1.56-.37-5.64-1.11-8.9,1.1-5.6,3.78-6,14.3-.8,19.9C33.52,128.54,39.74,128.31,41,128.24Z"/><path class="cls-4" d="M38.39,134.07a14.55,14.55,0,0,0,3.38-.41V128.8a14.56,14.56,0,0,1-7.7-2.91c-7.13-5.62-7.89-18.78-3-21.86,3.4-2.17,9,1,10.72,1.9.19-2.73.39-5.47.58-8.2-1.19-1-9.52-7.52-15.58-4.74-7.27,3.33-6.39,17.86-3,26.43C28,130.23,37.13,134.07,38.39,134.07Z"/><path class="cls-3" d="M145.56,128.49V102.82c4.94-3.3,7.83-2.5,8.72-2.17,6.05,2.25,8.68,15.61,2.65,22.76C153.14,127.91,147.25,128.4,145.56,128.49Z"/><path class="cls-4" d="M147.21,133.86a14.38,14.38,0,0,1-3.43-.42v-4.95a14.69,14.69,0,0,0,7.8-3c7.22-5.73,8-19.12,3.06-22.27-3.45-2.2-9.15,1-10.86,1.94-.2-2.78-.39-5.57-.59-8.35,2.36-2,8.15-6.26,13.18-4.56,7.54,2.55,9.06,17,5.68,26.65C158.26,129.69,148.53,133.86,147.21,133.86Z"/><path class="cls-4" d="M148.64,112.09c-3.56,25.12-5.33,37.68-15,48.94A64.69,64.69,0,0,1,116,175.21c-7.34,4-13.11,6.61-20.76,6.62-6.66,0-11.54-2.15-20.8-6.24L74,175.4a52.88,52.88,0,0,1-15.18-11.25c-2.88-3.1-16.65-19.84-21.55-52.06-2.61-17.17-5.07-33.76,4.14-49.76A53.89,53.89,0,0,1,53.25,48.4c4-3.49,17.33-14.75,37.63-15.33,17.86-.52,30.44,7.55,34.84,10.45a55.57,55.57,0,0,1,18.11,18.81c.42.74.85,1.54,1.28,2.49C152.47,81.14,149,109.25,148.64,112.09Z"/><ellipse class="cls-1" cx="71.2" cy="114.53" rx="3.2" ry="3.3"/><path class="cls-1" d="M54.87,104.17c.43.63,4.13-2.69,10-3a21.39,21.39,0,0,1,8.58,1.49c.21.09,1.2.53,2.61,1,.56.2,1.19.41,1.91.62,1.74.52,4.7.8,4.93.18.35-.9-4.83-4.55-10.94-6-2.23-.52-7.49-1.68-12.44,1C56.62,101.12,54.53,103.67,54.87,104.17Z"/><path class="cls-2" d="M93,205.21c9.51,1.45,22.62-.42,39.74-13.24,4.61,1.69,10.6,4.62,11.26,9.19.94,6.57-9.82,11.81-15.88,17.85-8.2,8.16-15,25-6,63.51H65.75A318,318,0,0,1,59,216.88c0-9.88.64-19.73.65-19.85h0c.85-3.82-2-6.49-1.56-7.1C59,188.45,76.58,202.69,93,205.21Z"/><ellipse class="cls-1" cx="115.45" cy="114.53" rx="3.55" ry="3.3"/><path class="cls-1" d="M132,103.82c-.34.61-4.1-2-10.14-2.36a24,24,0,0,0-8.87,1.35c-.21.08-1.25.51-2.71,1-.58.2-1.23.39-2,.59-1.81.49-4.86.73-5.09.11-.34-.9,5.07-4.45,11.39-5.79,2.28-.48,7.59-1.45,12.79,1.18C130.1,101.26,132.27,103.34,132,103.82Z"/><path class="cls-3" d="M108.76,142.63a32.26,32.26,0,0,1-28.08,0v-3.12a43.81,43.81,0,0,0,28.08,0Z"/><path class="cls-1" d="M50,68.82c14.2-5.22,24.81-5.13,32-4,4,.64,7.8,1.73,17,3,9.81,1.36,14.65,1.39,19,1a61.51,61.51,0,0,0,11-2,77.17,77.17,0,0,0,16.56,40.62L159,92.31c1.22-9,1.1-20.68-4-32.49-5-11.48-14-21.43-18-20-.93.34-2,1.45-3,1-1.18-.54-.68-2.66-2-5a8.39,8.39,0,0,0-3-3c-2.88-1.47-43.27-21.47-73-1a52.82,52.82,0,0,0-15,16,53.36,53.36,0,0,0-9,13,55.51,55.51,0,0,0-5,31l12,11a141.72,141.72,0,0,0,7-18A140.34,140.34,0,0,0,50,68.82Z"/><rect class="cls-5" x="92" y="115.82" width="6" height="18"/></g></svg>