<svg xmlns="http://www.w3.org/2000/svg" viewBox="0 0 196.84 289"><defs><style>.cls-1{fill:#74c8ff;}.cls-2{fill:#e99280;}.cls-3{fill:#117bbf;}.cls-4{fill:#a2dbff;}.cls-5{fill:#f4b69b;}.cls-6{fill:#f4bf9b;}.cls-7{fill:#1b2426;}.cls-8{fill:#efae8f;}.cls-9{fill:none;stroke:#a8a8a8;stroke-miterlimit:10;}.cls-10{fill:#011c29;}</style></defs><title>icon</title><g id="图层_3" data-name="图层 3"><polygon class="cls-1" points="65.98 206.59 -6.16 232.65 -6.16 296.56 199.84 298 199.84 232.65 139.49 206.59 65.98 206.59"/><path class="cls-2" d="M153.3,250.8c-10.7-.6-26.32,0-39.29,7.85-10.88,6.58-15.82,15.79-19.27,14.71-5.15-1.61,5.67-22.3-3.61-29.43-4.7-3.61-15.78-4.68-43.95,6.87V171.22H153.3Z"/><path class="cls-3" d="M125.71,285.66a56,56,0,0,0-.84-31.33,48.92,48.92,0,0,0-7.56-14.24,14.31,14.31,0,0,1,5.88.95c4.32,1.69,5,4.44,6.73,4.74,6.87,1.17,13.35-37.29,24.38-38,3.22-.2,6.81,3.95,8.41,5.7a25.09,25.09,0,0,1,5,8.54,100.55,100.55,0,0,1-10.09,29.43A88.54,88.54,0,0,1,125.71,285.66Z"/><path class="cls-4" d="M153.78,197.37l-36.47,42.72a24.86,24.86,0,0,1,10.09,8.54c6.73,9.66,5.86,21.39,5.65,23.74a219.38,219.38,0,0,0,16.85-20.89,239.38,239.38,0,0,0,17.86-29.43,49.51,49.51,0,0,0-5.44-14.24A40.67,40.67,0,0,0,153.78,197.37Z"/><path class="cls-3" d="M36.7,214.46a6.9,6.9,0,0,1,4.79-1.81c3,.17,5.83,2.77,7,6.55a1.21,1.21,0,0,1,.33-.43c1.69-1.37,5.87,4.57,13.12,9.93,5.25,3.88,10.8,6.48,16.82,12.34a5.07,5.07,0,0,1,.84,1c2.81,4.37-3.39,12.09-6.73,23.73A71.22,71.22,0,0,0,70.33,280,44.92,44.92,0,0,1,42.58,260C29.78,239.85,36,217,36.7,214.46Z"/><path class="cls-4" d="M48.63,198.37,80.58,243a19,19,0,0,0-10.09,4.74c-7.82,7.11-7.62,18.48-7.57,19.94A60.38,60.38,0,0,1,37.7,245.84a70.58,70.58,0,0,1-10.09-24.69,46.23,46.23,0,0,1,9.25-14.24A40.17,40.17,0,0,1,48.63,198.37Z"/><path class="cls-5" d="M172,133.59a72.53,72.53,0,0,1-1.14,15A66.15,66.15,0,0,1,167.42,160a55.32,55.32,0,0,1-3.15,10.56,59.35,59.35,0,0,1-21.07,25.76,67.11,67.11,0,0,1-20,9.37,87.27,87.27,0,0,1-45,1.61c-1.86-.42-3.24-.8-3.8-1-5.42-1.52-19-5.5-30.55-16.46C33.67,180.28,29.81,169.7,27,162a95.55,95.55,0,0,1-5.34-28.39c-1-37.58,24-86.8,48-86.64,8.74,0,9.75,6.6,27.13,11.27,17.83,4.79,21.62-.81,33.4,2.7C162,70.37,171.58,122.06,172,133.59Z"/><path class="cls-2" d="M25.36,152.07V123c-2.07-.56-7.48-1.76-12.1.51-7.91,3.88-9.51,16-3,22.84C15.34,151.79,23.73,152.05,25.36,152.07Z"/><path class="cls-6" d="M23.17,158.16a22.67,22.67,0,0,0,4.56-.47v-5.62a21.71,21.71,0,0,1-10.39-3.35C7.72,142.23,6.7,127,13.26,123.48c4.6-2.5,12.2,1.1,14.47,2.2.27-3.16.53-6.31.8-9.47-2.08-1-10.36-4.68-17.56-1.87-10.25,4-10.76,18.31-7.58,26.9C7.91,153.45,21.36,158.16,23.17,158.16Z"/><path class="cls-2" d="M167.84,152.52V122.89c2.1-.58,7.58-1.8,12.25.51,8,3.95,9.64,16.25,3.1,23.26C178,152.23,169.49,152.49,167.84,152.52Z"/><path class="cls-6" d="M170.06,158.72a23.27,23.27,0,0,1-4.62-.48v-5.72A21.93,21.93,0,0,0,176,149.1c9.75-6.61,10.78-22.07,4.13-25.7-4.65-2.54-12.35,1.12-14.65,2.24-.27-3.21-.53-6.43-.8-9.65,2.1-1,10.49-4.76,17.77-1.89,10.39,4.08,10.9,18.64,7.68,27.39C185.52,153.93,171.9,158.72,170.06,158.72Z"/><ellipse class="cls-7" cx="64.39" cy="130" rx="4.58" ry="3.92"/><ellipse class="cls-7" cx="123.92" cy="129.35" rx="4.58" ry="3.92"/><path class="cls-7" d="M48.94,118c1,1,7.22-5.18,14.9-4.44,2.83.27,4.52,1.35,8.94,1.14,1.38-.06,5-.23,5.59-1.64.43-1-.73-2.13-1.08-2.48-4-4-16.44-4.21-24,1.56C50.35,114.33,48.3,117.31,48.94,118Z"/><path class="cls-7" d="M144.4,117.94c-1.08,1.15-8-5.55-16.37-4.58-3.08.35-4.92,1.58-9.75,1.45-1.51,0-5.43-.15-6.14-1.7-.49-1.07.76-2.36,1.13-2.75,4.31-4.44,17.91-5,26.31,1.22C142.8,114,145.09,117.2,144.4,117.94Z"/><rect class="cls-2" x="81.14" y="132.45" width="27.76" height="27.41" rx="8.08" ry="8.08"/><path class="cls-2" d="M113.27,175.52a23.17,23.17,0,0,1-16.86,8.58c-11.48.47-18.25-7.88-18.79-8.58a2.84,2.84,0,0,1-1.88-.73A2.47,2.47,0,0,1,75,173v-.2a2.6,2.6,0,0,1,2.66-2.51h35.65a2.59,2.59,0,0,1,2.66,2.51v.2A2.59,2.59,0,0,1,113.27,175.52Z"/><path class="cls-8" d="M116.17,152.86a28,28,0,0,1,5.16,4.32c.67.71,1.3,1.44,1.87,2.16a58,58,0,0,1,.47,9.35c-.07,2.15-.25,4.08-.47,5.76a1.44,1.44,0,0,1-.47,1.44c-.35.14-.86-.36-.9-1.22a49.71,49.71,0,0,0,.43-5.26,50.42,50.42,0,0,0-.47-8.64,11.19,11.19,0,0,0-.93-2.15,6.82,6.82,0,0,0-4.69-3.6Z"/><path class="cls-8" d="M74.6,154.93a27.15,27.15,0,0,0-5,4.31c-.66.72-1.26,1.44-1.81,2.16a59.71,59.71,0,0,0-.45,9.36,56.36,56.36,0,0,0,.45,5.75c-.09.7.16,1.32.45,1.44s.83-.35.87-1.21c-.2-1.53-.36-3.29-.42-5.26a53.9,53.9,0,0,1,.45-8.64,12.51,12.51,0,0,1,.91-2.16,6.59,6.59,0,0,1,4.52-3.59Z"/><rect class="cls-9" x="41.46" y="120.12" width="44.9" height="20.88" rx="6.15" ry="6.15"/><rect class="cls-9" x="103.82" y="119.08" width="44.9" height="20.88" rx="6.15" ry="6.15"/><path class="cls-9" d="M104.74,128.59a14.71,14.71,0,0,0-9.7-3.24,14.43,14.43,0,0,0-9,3.24v-2.26a15.53,15.53,0,0,1,18.71,0Z"/><path class="cls-10" d="M161.15,117.31l11-4.32c2.37-4.63,5.26-24.71-4-45.67-7.11-16.14-15-23.38-22.69-28-6.08-3.64-27.27-15.93-56.18-14.13S33.2,45,21.6,72.48c-9.15,21.65-6.46,38.93-3.62,45.59l13.37,1c6.19-14.36,1.76-26.2,2.72-34.22.52-4.41,7.39-7.54,10.45-10.39,6.57-6.13,19-2.24,33.68-1,37.07,3.17,59.6-13,67.35-4.11,2.45,2.79-.27,5.14,4.92,13.41.79,1.25-1-3.1,2.08,6.2.19.57,0,1,3.14,9.24C158.53,105.67,161.26,111.81,161.15,117.31Z"/></g></svg>