<svg xmlns="http://www.w3.org/2000/svg" viewBox="0 0 189.4 284.31"><defs><style>.cls-1{fill:#262c3d;}.cls-2{fill:#e99280;}.cls-3{fill:#f4bf9b;}.cls-4{fill:#011c29;}.cls-5{fill:none;stroke:#fffcff;}.cls-10,.cls-5{stroke-miterlimit:10;stroke-width:3px;}.cls-6{fill:#eca68c;}.cls-7{fill:#fffcff;}.cls-8{fill:#8196c3;}.cls-9{fill:#1d1c1f;}.cls-10,.cls-11{fill:#563d85;}.cls-10{stroke:#4f2d70;}.cls-12{fill:#b5c1db;}</style></defs><title>icon</title><g id="图层_3" data-name="图层 3"><path class="cls-1" d="M63,180-3.65,216.19v71.07H192.84V218.38L127.34,180Z"/><rect class="cls-2" x="60.45" y="161.84" width="66.89" height="57.14"/><path class="cls-3" d="M38,92.8a20.18,20.18,0,0,1,4.31,1.1l-.49,3.59c-8.88.49-16,5.14-16.88,11.7S29.6,122.14,38,125l-.5,3.6a20.09,20.09,0,0,1-4.44-.11c-10.47-1.44-17.86-10.59-16.51-20.44S27.5,91.37,38,92.8Z"/><path class="cls-2" d="M41.79,97.49,38,125c-8.42-2.86-14-9.25-13.11-15.81S32.91,98,41.79,97.49Z"/><path class="cls-3" d="M152.56,92.16a18.49,18.49,0,0,0-4.31.51v3.64c8.52,1.7,14.77,7.31,14.77,14s-6.26,12.27-14.77,14v3.66a19.63,19.63,0,0,0,4.31.49c10.32,0,18.68-8.11,18.68-18.12S162.88,92.16,152.56,92.16Z"/><path class="cls-2" d="M148.25,96.31v27.93c8.51-1.7,14.77-7.31,14.77-14S156.77,98,148.25,96.31Z"/><path class="cls-3" d="M153.82,109.58A97.71,97.71,0,0,1,152.43,127a96.24,96.24,0,0,1-4.1,15.62c-.25.71-.81,2.27-1.48,3.89-1.8,4.34-5.24,12.55-12.54,18.81-2,1.68-5.49,3.68-12.54,7.67-4.74,2.67-7.11,4-9.06,4.87-15.57,6.86-31.62,2-33.45,1.4a72.26,72.26,0,0,1-9.75-4.18,109.53,109.53,0,0,1-14.63-8.37c-11.09-8-15.33-24.23-16.73-30.65a124.51,124.51,0,0,1-4.87-28.57c-.91-17.63-1.92-37.17,10.45-53,15.79-20.16,42.86-20.75,49.82-20.9,7.44-.16,34-.74,49.12,17.42C153.61,64.18,153.69,81.25,153.82,109.58Z"/><path class="cls-4" d="M146.83,96.58l9.16-4.2a54.26,54.26,0,0,0,1.29-27.82c-3.47-15.45-13.12-24.37-18.9-29.71C133.54,30.38,114.71,13,87.17,14.71c-24,1.46-48.81,17-58.13,42.73-6.29,17.35-3.32,33.25-1.56,40.27l11.15,1c3.29-17.48,9.84-39.54,23.95-43.46,2.73-.76,3.7-.27,10.46.22,8.53.63,27.74-7.66,43.44-.35,2.5,1.16,6.65,4.73,14.93,11.85,8,6.84,9.76,9.29,10.93,11.23A34,34,0,0,1,146.83,96.58Z"/><rect class="cls-5" x="100.52" y="96.69" width="43.2" height="17.42" rx="8.38" ry="8.38"/><rect class="cls-5" x="43.38" y="96.69" width="43.2" height="17.42" rx="8.38" ry="8.38"/><ellipse class="cls-4" cx="66.37" cy="106.09" rx="4.53" ry="4.18"/><path class="cls-4" d="M78.57,92.16c-5.39-7.56-14-10.42-20.21-7.67-4.27,1.9-6.26,6-7,7.67a4.74,4.74,0,0,1-2.78-2.79c-1-3.35,3.62-8,7.66-9.75C66.56,75,82,84.67,81.36,89.37,81.18,90.67,79.79,91.58,78.57,92.16Z"/><path class="cls-4" d="M107.85,92.16c5.37-7.56,13.94-10.42,20.1-7.67,4.25,1.9,6.23,6,6.94,7.67a4.78,4.78,0,0,0,2.77-2.79c1-3.35-3.61-8-7.63-9.75-10.23-4.59-25.57,5-25,9.75C105.25,90.67,106.64,91.58,107.85,92.16Z"/><rect class="cls-6" x="87.63" y="112.37" width="11.85" height="21.6" rx="5.5" ry="5.5"/><path class="cls-2" d="M107.83,154.17a31.76,31.76,0,0,0-17.79-4,32.53,32.53,0,0,0-12.87,4v-5.09A27,27,0,0,1,88.91,144c8.85-1.37,15.76,2.81,18.92,5.09Z"/><ellipse class="cls-4" cx="121.42" cy="104.7" rx="4.53" ry="4.18"/><rect class="cls-7" x="86.93" y="105.4" width="13.94" height="2.09"/><rect class="cls-6" x="73.69" y="120.73" width="2.09" height="28.57" transform="translate(77.52 -19.28) rotate(30)"/><rect class="cls-6" x="109.23" y="120.73" width="2.09" height="28.57" transform="translate(-55.18 80.11) rotate(-32.4)"/><path class="cls-8" d="M60.45,216.88l66.89,3.32L121.43,288H66.37Q63.42,252.42,60.45,216.88Z"/><polyline class="cls-9" points="59.76 186 28.07 221.94 43.73 233.6 24.22 256.6 28.4 285.86 24.22 285.86 20.04 253.81 38.85 237.09 24.92 220.37 59.76 182.04"/><polyline class="cls-9" points="128.04 187.4 158.06 223.33 143.22 235 161.71 257.99 157.75 287.26 161.71 287.26 165.67 255.21 147.84 238.48 161.04 221.76 128.04 183.44"/><path class="cls-3" d="M67.42,195.28a45.65,45.65,0,0,0,25.78,6.27c16.84-1,27.41-11.31,30-13.93L116.89,219l-39.72,3Z"/><path class="cls-10" d="M103.65,252.42H88.32Q82.76,235.7,77.17,219H114.8Q109.22,235.7,103.65,252.42Z"/><path class="cls-11" d="M114.8,286.56H77.17q5.58-17.07,11.15-34.14h15.33Q109.23,269.49,114.8,286.56Z"/><path class="cls-12" d="M60.52,181.25A81,81,0,0,0,60,221.93a77.65,77.65,0,0,0,6.44,16.93,36.18,36.18,0,0,1,13-15.63,35.14,35.14,0,0,1,11.68-4.95Q85.29,211,79.26,203.64,69.87,192.18,60.52,181.25Z"/><path class="cls-12" d="M127.4,180c-5.93,8.54-12.65,17.43-20.26,26.46q-5.25,6.23-10.46,11.85a51.49,51.49,0,0,1,24.39,19.51A91.17,91.17,0,0,0,127.4,180Z"/></g></svg>